<?xml version="1.0" encoding="UTF-8"?>
<svg viewBox="0 0 744.09448819 1052.3622047" xmlns="http://www.w3.org/2000/svg">
 <path d="m113.74 912.74c-5.2777-0.33614-10.373-2.5071-14.002-6.4371-7.2553-7.8549-6.0642-19.953 2.6376-26.797 1.6994-1.337 3.5682-2.3807 5.5281-3.1364" fill="#fff" fill-rule="evenodd"/>
 <path d="m113.74 912.74c-5.2777-0.33614-10.373-2.5071-14.002-6.4371-7.2553-7.855-6.0642-19.953 2.6376-26.797 1.6994-1.337 3.5682-2.3807 5.5281-3.1364" fill="none" stroke="#c8c8c8" stroke-miterlimit="14.3" stroke-width="2.8125"/>
 <path d="m180.45 839.3c-4.0462 1.4583-7.1794 4.2257-9.1039 7.63l-1.6817-2.6107c-9.6425-9.341-25.645-12.781-40.269-7.5062-18.87 6.801-28.768 25.7-21.928 41.86" fill="#fff" fill-rule="evenodd"/>
 <path d="m180.45 839.3c-4.0462 1.4583-7.1794 4.2257-9.1039 7.63l-1.6817-2.6107c-9.6425-9.341-25.645-12.781-40.269-7.5062-18.87 6.801-28.768 25.7-21.928 41.86" fill="none" stroke="#c8c8c8" stroke-miterlimit="14.3" stroke-width="2.8125"/>
 <path d="m160.43 848.38c1.4667-8.9442 10.505-15.215 20.021-13.885 9.5135 1.3294 16.139 9.7833 14.672 18.73" fill="#fff" fill-rule="evenodd"/>
 <path d="m160.43 848.38c1.4667-8.9442 10.505-15.215 20.021-13.885 9.5135 1.3294 16.139 9.7833 14.672 18.73" fill="none" stroke="#c8c8c8" stroke-miterlimit="14.3" stroke-width="2.8125"/>
 <path d="m114.32 912.75c-5.2777-0.33614-10.376-2.5071-14.005-6.4371-7.2553-7.855-6.0642-19.956 2.6376-26.8 5.4396-4.2762 12.609-5.5551 18.992-3.9932" fill="#fff" fill-rule="evenodd"/>
 <path d="m114.32 912.75c-5.2777-0.33614-10.376-2.5071-14.005-6.4371-7.2553-7.855-6.0642-19.956 2.6376-26.8 5.4396-4.2762 12.609-5.5551 18.992-3.9932" fill="none" stroke="#c8c8c8" stroke-miterlimit="11.5" stroke-width=".9375"/>
 <path d="m181.49 839.3c-4.0487 1.4583-7.1794 4.2257-9.1064 7.63l-1.6792-2.6107c-9.6425-9.341-25.645-12.781-40.269-7.5062-18.87 6.8036-28.768 25.7-21.928 41.86" fill="#fff" fill-rule="evenodd"/>
 <path d="m181.49 839.3c-4.0487 1.4583-7.1794 4.2257-9.1064 7.63l-1.6792-2.6107c-9.6425-9.341-25.645-12.781-40.269-7.5062-18.87 6.8036-28.768 25.7-21.928 41.86" fill="none" stroke="#c8c8c8" stroke-miterlimit="11.5" stroke-width=".9375"/>
 <path d="m161.47 848.38c1.4667-8.9442 10.507-15.215 20.021-13.885 9.5161 1.3294 16.142 9.7833 14.675 18.73" fill="#fff" fill-rule="evenodd"/>
 <path d="m161.47 848.38c1.4667-8.9442 10.507-15.215 20.021-13.885 9.5161 1.3294 16.142 9.7833 14.675 18.73" fill="none" stroke="#c8c8c8" stroke-miterlimit="11.5" stroke-width=".9375"/>
 <path d="m133.96 892.54h-20.929l-2.0914-29.911 63.831-18.346 16.744 41.519" fill="#fff" fill-rule="evenodd"/>
 <path d="m145.51 856.12c1.9801-6.8086 9.8802-10.86 17.5-8.972s12.26 9.0453 10.28 15.854" fill="#fff" fill-rule="evenodd"/>
 <path d="m145.51 856.12c1.9801-6.8086 9.8802-10.86 17.5-8.972s12.26 9.0453 10.28 15.854" fill="none" stroke="#c8c8c8" stroke-miterlimit="11.5" stroke-width=".9375"/>
 <path d="m472.02 749.74c6.8684-18.46 28.475-23.994 44.462-19.898 18.959 4.8601 30.286 23.075 25.089 40.351-0.40462 1.3445-0.90027 2.6461-1.4743 3.9047" fill="#fff" fill-rule="evenodd"/>
 <path d="m472.02 749.74c6.8684-18.46 28.475-23.994 44.462-19.898 18.959 4.8601 30.286 23.075 25.089 40.351-0.40462 1.3445-0.90027 2.6461-1.4743 3.9047" fill="none" stroke="#c8c8c8" stroke-miterlimit="14.3" stroke-width="2.8125"/>
 <path d="m324.81 764.37c-2.2583-5.3327-8.6183-8.095-14.093-6.1237-2.3948 0.86435-4.2485 2.4995-5.3864 4.5138l-0.99384-1.5442c-5.7051-5.5248-15.171-7.5592-23.824-4.4405-11.162 4.026-17.019 15.207-12.973 24.765" fill="#fff" fill-rule="evenodd"/>
 <path d="m324.81 764.37c-2.2583-5.3327-8.6183-8.095-14.093-6.1237-2.3948 0.86435-4.2485 2.4995-5.3864 4.5138l-0.99384-1.5442c-5.7051-5.5248-15.171-7.5592-23.824-4.4405-11.162 4.026-17.019 15.207-12.973 24.765" fill="none" stroke="#c8c8c8" stroke-miterlimit="14.3" stroke-width="2.8125"/>
 <path d="m231.65 811.93c-0.20484-14.52 10.348-28.119 26.33-32.223 5.8922-1.5113 11.875-1.5669 17.479-0.40943" fill="#fff" fill-rule="evenodd"/>
 <path d="m231.65 811.93c-0.20483-14.52 10.348-28.119 26.33-32.223 5.8922-1.5113 11.875-1.5669 17.479-0.40942" fill="none" stroke="#c8c8c8" stroke-miterlimit="14.3" stroke-width="2.8125"/>
 <path d="m189.99 856.92c-5.3662-3.8997-9.0912-9.6392-9.8676-16.263-1.5502-13.253 9.248-25.364 23.918-26.828 9.1696-0.91489 17.823 2.5324 23.405 8.4817" fill="#fff" fill-rule="evenodd"/>
 <path d="m189.99 856.92c-5.3662-3.8997-9.0912-9.6392-9.8676-16.263-1.5502-13.253 9.248-25.364 23.918-26.828 9.1696-0.91489 17.823 2.5324 23.405 8.4817" fill="none" stroke="#c8c8c8" stroke-miterlimit="14.3" stroke-width="2.8125"/>
 <path d="m189.21 878.66c-7.6725-0.44228-13.643-5.8862-13.228-12.06 0.41726-6.1743 7.0757-10.893 14.748-10.451" fill="#fff" fill-rule="evenodd"/>
 <path d="m189.21 878.66c-7.6725-0.44228-13.643-5.8862-13.228-12.06 0.41726-6.1743 7.0757-10.893 14.748-10.451" fill="none" stroke="#c8c8c8" stroke-miterlimit="14.3" stroke-width="2.8125"/>
 <path d="m390.38 852.35c-6.8127-0.4347-13.395-3.24-18.079-8.3124-9.3694-10.145-7.8369-25.766 3.3962-34.599 7.0201-5.5197 16.276-7.17 24.517-5.1532" fill="#fff" fill-rule="evenodd"/>
 <path d="m390.38 852.35c-6.8127-0.4347-13.395-3.24-18.079-8.3124-9.3694-10.145-7.8369-25.766 3.3962-34.599 7.0201-5.5197 16.276-7.17 24.517-5.1532" fill="none" stroke="#c8c8c8" stroke-miterlimit="14.3" stroke-width="2.8125"/>
 <path d="m391.12 848.51c-2.6224-2.1482-6.4031-3.144-10.184-2.3504-6.049 1.2687-9.9536 6.6646-8.6512 11.954 0.56899 2.3125 2.0484 4.2459 4.0386 5.5854l-1.8031 0.67733c-6.7672 4.3874-10.353 12.725-8.2921 21.086 2.6578 10.784 13.77 17.787 24.616 15.51" fill="#fff" fill-rule="evenodd"/>
 <path d="m391.12 848.51c-2.6224-2.1482-6.403-3.144-10.184-2.3504-6.049 1.2687-9.9536 6.6646-8.6512 11.954 0.56899 2.3125 2.0484 4.2459 4.0386 5.5854l-1.8031 0.67733c-6.7672 4.3874-10.353 12.725-8.2921 21.086 2.6578 10.784 13.77 17.787 24.616 15.51" fill="none" stroke="#c8c8c8" stroke-miterlimit="14.3" stroke-width="2.8125"/>
 <path d="m391.68 848.51c-2.6224-2.1482-6.403-3.144-10.184-2.3504-6.049 1.2687-9.9536 6.6646-8.6512 11.954 0.569 2.3125 2.0484 4.2459 4.0386 5.5854l-1.8031 0.67733c-6.7672 4.3874-10.353 12.725-8.2921 21.086 2.6578 10.784 13.77 17.787 24.616 15.51" fill="#fff" fill-rule="evenodd"/>
 <path d="m391.68 848.51c-2.6224-2.1482-6.403-3.144-10.184-2.3504-6.049 1.2687-9.9536 6.6646-8.6512 11.954 0.569 2.3125 2.0484 4.2459 4.0386 5.5854l-1.8031 0.67733c-6.7672 4.3874-10.353 12.725-8.2921 21.086 2.6578 10.784 13.77 17.787 24.616 15.51" fill="none" stroke="#c8c8c8" stroke-miterlimit="11.5" stroke-width=".9375"/>
 <path d="m472.89 748.98c7.7231-17.696 27.317-23.234 43.304-19.137 18.959 4.8575 30.286 23.075 25.089 40.349-0.40461 1.3445-0.90027 2.6486-1.4743 3.9047" fill="#fff" fill-rule="evenodd"/>
 <path d="m472.89 748.98c7.7231-17.696 27.317-23.234 43.304-19.137 18.959 4.8575 30.286 23.075 25.089 40.349-0.40462 1.3445-0.90028 2.6486-1.4743 3.9047" fill="none" stroke="#c8c8c8" stroke-miterlimit="11.5" stroke-width=".9375"/>
 <path d="m526.67 784.53c0-9.0453 7.9229-16.491 17.55-16.491 9.6248 0 17.548 7.4455 17.548 16.491" fill="#fff" fill-rule="evenodd"/>
 <path d="m526.67 784.53c0-9.0453 7.9229-16.491 17.55-16.491 9.6248 0 17.548 7.4455 17.548 16.491" fill="none" stroke="#c8c8c8" stroke-miterlimit="11.5" stroke-width=".9375"/>
 <path d="m484.96 826.52c-5.9049-7.2231-4.4407-17.57 3.242-22.92s18.865-3.8112 24.77 3.4119" fill="#fff" fill-rule="evenodd"/>
 <path d="m484.96 826.52c-5.9049-7.2231-4.4407-17.57 3.242-22.92s18.865-3.8112 24.77 3.4119" fill="none" stroke="#c8c8c8" stroke-miterlimit="11.5" stroke-width=".9375"/>
 <path d="m510.95 811.07c-1.0216-6.2324 0.51336-12.771 4.8605-18.093 8.6917-10.645 25.546-12.662 37.333-4.4658 7.3665 5.1204 11.124 13.099 10.783 20.962" fill="#fff" fill-rule="evenodd"/>
 <path d="m510.95 811.07c-1.0216-6.2324 0.51336-12.771 4.8605-18.093 8.6917-10.645 25.546-12.662 37.333-4.4658 7.3665 5.1204 11.124 13.099 10.783 20.962" fill="none" stroke="#c8c8c8" stroke-miterlimit="11.5" stroke-width=".9375"/>
 <path d="m495.97 826.97c-1.2872-8.9695 5.5053-17.31 15.044-18.477s18.453 5.2543 19.74 14.221" fill="#fff" fill-rule="evenodd"/>
 <path d="m495.97 826.97c-1.2872-8.9695 5.5053-17.31 15.044-18.477s18.453 5.2543 19.74 14.221" fill="none" stroke="#c8c8c8" stroke-miterlimit="11.5" stroke-width=".9375"/>
 <path d="m324.37 774.01c1.9143-2.7118 2.4201-6.3107 1.009-9.6418-2.2583-5.3327-8.6208-8.095-14.093-6.1237-2.3948 0.86435-4.2485 2.4995-5.3865 4.5138l-0.99384-1.5442c-5.7051-5.5248-15.173-7.5592-23.824-4.4405-11.165 4.026-17.019 15.207-12.973 24.765" fill="#fff" fill-rule="evenodd"/>
 <path d="m324.37 774.01c1.9143-2.7118 2.4201-6.3107 1.009-9.6418-2.2583-5.3327-8.6208-8.095-14.093-6.1237-2.3948 0.86435-4.2485 2.4995-5.3864 4.5138l-0.99384-1.5442c-5.7051-5.5248-15.173-7.5592-23.824-4.4405-11.165 4.026-17.019 15.207-12.973 24.765" fill="none" stroke="#c8c8c8" stroke-miterlimit="11.5" stroke-width=".9375"/>
 <path d="m232.21 811.93c-0.20737-14.52 10.346-28.119 26.33-32.223 18.956-4.8651 38.843 5.3453 44.05 22.617 0.40715 1.3445 0.71061 2.6967 0.92051 4.0463" fill="#fff" fill-rule="evenodd"/>
 <path d="m232.21 811.93c-0.20737-14.52 10.346-28.119 26.33-32.223 18.956-4.8651 38.843 5.3453 44.05 22.617 0.40715 1.3445 0.71061 2.6967 0.9205 4.0463" fill="none" stroke="#c8c8c8" stroke-miterlimit="11.5" stroke-width=".9375"/>
 <path d="m213.68 826.25c-1.2872-8.967 5.5053-17.31 15.047-18.475s18.453 5.2543 19.74 14.221" fill="#fff" fill-rule="evenodd"/>
 <path d="m213.68 826.25c-1.2872-8.967 5.5053-17.31 15.047-18.475s18.453 5.2543 19.74 14.221" fill="none" stroke="#c8c8c8" stroke-miterlimit="11.5" stroke-width=".9375"/>
 <path d="m189.78 878.66c-7.6725-0.44228-13.643-5.8862-13.228-12.06 0.41726-6.1743 7.0732-10.893 14.748-10.451" fill="#fff" fill-rule="evenodd"/>
 <path d="m189.78 878.66c-7.6725-0.44228-13.643-5.8862-13.228-12.06 0.41726-6.1743 7.0732-10.893 14.748-10.451" fill="none" stroke="#c8c8c8" stroke-miterlimit="11.5" stroke-width=".9375"/>
 <path d="m225.97 882.46c-0.20484-14.52 10.348-28.119 26.333-32.223 18.956-4.8651 38.843 5.3453 44.05 22.617 0.40462 1.3445 0.71061 2.6967 0.9205 4.0462" fill="#fff" fill-rule="evenodd"/>
 <path d="m225.97 882.46c-0.20483-14.52 10.348-28.119 26.333-32.223 18.956-4.8651 38.843 5.3453 44.05 22.617 0.40461 1.3445 0.71061 2.6967 0.9205 4.0462" fill="none" stroke="#c8c8c8" stroke-miterlimit="11.5" stroke-width=".9375"/>
 <path d="m442 796.59c1.9143-2.7118 2.4201-6.3108 1.009-9.6418-2.2583-5.3327-8.6208-8.095-14.093-6.1212-2.3948 0.86181-4.2485 2.4995-5.3864 4.5138l-0.99384-1.5467c-5.7051-5.5247-15.173-7.5592-23.824-4.4405-11.165 4.026-17.019 15.207-12.973 24.765" fill="#fff" fill-rule="evenodd"/>
 <path d="m442 796.59c1.9143-2.7118 2.4201-6.3108 1.009-9.6418-2.2583-5.3327-8.6208-8.095-14.093-6.1212-2.3948 0.86182-4.2485 2.4995-5.3864 4.5138l-0.99384-1.5467c-5.7051-5.5247-15.173-7.5592-23.824-4.4405-11.165 4.026-17.019 15.207-12.973 24.765" fill="none" stroke="#c8c8c8" stroke-miterlimit="11.5" stroke-width=".9375"/>
 <path d="m389.72 736.98c3.6643-2.5172 5.9302-6.6115 5.6292-11.1-0.48048-7.1852-7.3564-12.839-15.231-12.525-3.4443 0.13901-6.5472 1.3976-8.9091 3.3715l-0.57152-2.2064c-4.7947-8.6965-15.962-14.636-28.412-14.138-16.063 0.64194-28.573 11.772-27.714 24.654" fill="#fff" fill-rule="evenodd"/>
 <path d="m389.72 736.98c3.6643-2.5172 5.9302-6.6115 5.6292-11.1-0.48048-7.1852-7.3564-12.839-15.231-12.525-3.4443 0.13901-6.5472 1.3976-8.9091 3.3715l-0.57152-2.2064c-4.7947-8.6965-15.962-14.636-28.412-14.138-16.063 0.64194-28.573 11.772-27.714 24.654" fill="none" stroke="#c8c8c8" stroke-miterlimit="14.3" stroke-width="2.8125"/>
 <path d="m389.6 737.63c3.6618-2.5172 5.9276-6.6115 5.6267-11.103-0.47795-7.1827-7.3564-12.836-15.231-12.523-3.4443 0.139-6.5472 1.3976-8.9066 3.3715l-0.57405-2.2089c-4.7947-8.694-15.962-14.636-28.412-14.138-16.061 0.64194-28.573 11.772-27.711 24.654" fill="#fff" fill-rule="evenodd"/>
 <path d="m389.6 737.63c3.6618-2.5172 5.9276-6.6115 5.6267-11.103-0.47795-7.1827-7.3564-12.836-15.231-12.523-3.4443 0.139-6.5472 1.3976-8.9066 3.3715l-0.57405-2.2089c-4.7947-8.694-15.962-14.636-28.412-14.138-16.061 0.64194-28.573 11.772-27.711 24.654" fill="none" stroke="#c8c8c8" stroke-miterlimit="11.5" stroke-width=".9375"/>
 <path d="m464.68 767.98c4.7391-3.2577 7.67-8.555 7.2806-14.363-0.61957-9.2955-9.5135-16.61-19.702-16.203-4.4558 0.17944-8.4691 1.807-11.524 4.3622l-0.74095-2.8559c-6.2007-11.252-20.648-18.937-36.752-18.293-20.78 0.83149-36.964 15.232-35.852 31.897" fill="#fff" fill-rule="evenodd"/>
 <path d="m464.68 767.98c4.7391-3.2577 7.67-8.555 7.2806-14.363-0.61957-9.2955-9.5135-16.61-19.702-16.203-4.4558 0.17944-8.4691 1.807-11.524 4.3622l-0.74095-2.8559c-6.2007-11.252-20.648-18.937-36.752-18.293-20.78 0.83149-36.964 15.232-35.852 31.897" fill="none" stroke="#c8c8c8" stroke-miterlimit="14.3" stroke-width="2.8125"/>
 <path d="m464.52 768.81c4.7391-3.2552 7.67-8.5525 7.2806-14.363-0.61957-9.293-9.5161-16.607-19.702-16.2-4.4558 0.17692-8.4716 1.807-11.524 4.3596l-0.74096-2.8559c-6.2007-11.249-20.648-18.935-36.752-18.29-20.78 0.83149-36.964 15.232-35.852 31.897" fill="#fff" fill-rule="evenodd"/>
 <path d="m464.52 768.81c4.7391-3.2552 7.67-8.5525 7.2806-14.363-0.61957-9.293-9.5161-16.607-19.702-16.2-4.4558 0.17691-8.4716 1.807-11.524 4.3596l-0.74096-2.8559c-6.2007-11.249-20.648-18.935-36.752-18.29-20.78 0.83149-36.964 15.232-35.852 31.897" fill="none" stroke="#c8c8c8" stroke-miterlimit="11.5" stroke-width=".9375"/>
 <path d="m442 796.59c1.9143-2.7118 2.4201-6.3108 1.009-9.6418-2.2583-5.3327-8.6208-8.095-14.093-6.1212-2.3948 0.86181-4.2485 2.4995-5.3864 4.5138l-0.99384-1.5467c-5.7051-5.5247-15.173-7.5592-23.824-4.4405-11.165 4.026-17.019 15.207-12.973 24.765" fill="#fff" fill-rule="evenodd"/>
 <path d="m442 796.59c1.9143-2.7118 2.4201-6.3108 1.009-9.6418-2.2583-5.3327-8.6208-8.095-14.093-6.1212-2.3948 0.86182-4.2485 2.4995-5.3864 4.5138l-0.99384-1.5467c-5.7051-5.5247-15.173-7.5592-23.824-4.4405-11.165 4.026-17.019 15.207-12.973 24.765" fill="none" stroke="#c8c8c8" stroke-miterlimit="11.5" stroke-width=".9375"/>
 <path d="m267.87 830.58 20.299-215.22 23.789 2.0699 20.886 209.02" fill="#fff" fill-rule="evenodd"/>
 <path d="m267.87 830.58 20.299-215.22 23.789 2.0699 20.886 209.02" fill="none" stroke="#c8c8c8" stroke-miterlimit="14.3" stroke-width="2.8125"/>
 <path d="m404.78 828.51 20.299-215.22 23.791 2.0699 20.883 209.02" fill="#fff" fill-rule="evenodd"/>
 <path d="m404.78 828.51 20.299-215.22 23.791 2.0699 20.883 209.02" fill="none" stroke="#c8c8c8" stroke-miterlimit="14.3" stroke-width="2.8125"/>
 <path d="m468.32 772.44c-1.2872-8.9695 5.5053-17.31 15.044-18.477s18.453 5.2543 19.74 14.224" fill="#fff" fill-rule="evenodd"/>
 <path d="m468.32 772.44c-1.2872-8.9695 5.5053-17.31 15.044-18.477s18.453 5.2543 19.74 14.224" fill="none" stroke="#c8c8c8" stroke-miterlimit="11.5" stroke-width=".9375"/>
 <path d="m308.1 878.83c2.8702-9.8642 14.316-15.733 25.354-12.998s17.763 13.104 14.895 22.968" fill="#fff" fill-rule="evenodd"/>
 <path d="m308.1 878.83c2.8702-9.8642 14.316-15.733 25.354-12.998s17.763 13.104 14.895 22.968" fill="none" stroke="#c8c8c8" stroke-miterlimit="11.5" stroke-width=".9375"/>
 <path d="m284.74 876.57c1.9801-6.8086 9.8802-10.86 17.5-8.972s12.26 9.0453 10.277 15.854" fill="#fff" fill-rule="evenodd"/>
 <path d="m284.74 876.57c1.9801-6.8086 9.8802-10.86 17.5-8.972s12.26 9.0453 10.277 15.854" fill="none" stroke="#c8c8c8" stroke-miterlimit="11.5" stroke-width=".9375"/>
 <path d="m397.37 852.82c-15.444 0-19.816-3.7025-24.5-8.7749-9.3694-10.145-7.8369-25.766 3.3937-34.599 7.0201-5.5197 16.276-7.17 24.517-5.1532" fill="#fff" fill-rule="evenodd"/>
 <path d="m397.37 852.82c-15.444 0-19.816-3.7025-24.5-8.7749-9.3694-10.145-7.8369-25.766 3.3937-34.599 7.0201-5.5197 16.276-7.17 24.517-5.1532" fill="none" stroke="#c8c8c8" stroke-miterlimit="11.5" stroke-width=".9375"/>
 <path d="m685.04 873.82c4.2485-4.7691 6.3828-10.991 5.3637-17.499-2.0383-13.016-15.972-22.574-30.865-21.171-9.3062 0.87446-14.629 0.89467-18.539 7.673m-333.68-115.72 9.2834 117.96m111.38-126.24-4.6379 140.72m25.521-62.084 9.2834 72.431" fill="none" stroke="#c8c8c8" stroke-miterlimit="11.5" stroke-width=".9375"/>
 <path d="m113.29 922.41c-2.276-3.9603-2.8045-8.689-1.0318-13.213 3.5505-9.0504 15.057-14.09 25.491-11.166 6.5219 1.8298 11.18 6.3638 12.89 11.719" fill="#fff" fill-rule="evenodd"/>
 <path d="m113.29 922.41c-2.276-3.9603-2.8045-8.689-1.0318-13.213 3.5505-9.0504 15.057-14.09 25.491-11.166 6.5219 1.8298 11.18 6.3638 12.89 11.719" fill="none" stroke="#c8c8c8" stroke-miterlimit="14.3" stroke-width="2.8125"/>
 <path d="m116.27 921.39c0.51083-2.2721-0.22759-4.7539-2.2127-6.561-3.1788-2.8913-8.4337-3.0303-11.64-0.30833-1.401 1.1904-2.195 2.7447-2.3771 4.3571l-1.1582-0.74809c-5.6318-2.1154-12.824-0.96797-17.892 3.3361-6.5396 5.5526-7.23 14.388-1.53 19.574" fill="#fff" fill-rule="evenodd"/>
 <path d="m116.27 921.39c0.51083-2.2721-0.2276-4.7539-2.2127-6.561-3.1788-2.8913-8.4337-3.0303-11.64-0.30833-1.401 1.1904-2.195 2.7447-2.3771 4.3571l-1.1582-0.74809c-5.6318-2.1154-12.824-0.96797-17.892 3.3361-6.5396 5.5526-7.23 14.388-1.53 19.574" fill="none" stroke="#c8c8c8" stroke-miterlimit="14.3" stroke-width="2.8125"/>
 <path d="m116.48 921.71c0.5083-2.2721-0.2276-4.7539-2.2128-6.561-3.1788-2.8913-8.4337-3.0328-11.64-0.31086-1.4035 1.1929-2.195 2.7447-2.3771 4.3596l-1.1582-0.74809c-5.6318-2.1154-12.824-0.96796-17.892 3.3361-6.5396 5.5526-7.23 14.388-1.53 19.574" fill="#fff" fill-rule="evenodd"/>
 <path d="m116.48 921.71c0.5083-2.2721-0.22759-4.7539-2.2127-6.561-3.1788-2.8913-8.4337-3.0328-11.64-0.31086-1.4035 1.1929-2.195 2.7447-2.3771 4.3596l-1.1582-0.74809c-5.6318-2.1154-12.824-0.96796-17.892 3.3361-6.5396 5.5525-7.23 14.388-1.53 19.574" fill="none" stroke="#c8c8c8" stroke-miterlimit="11.5" stroke-width=".9375"/>
 <path d="m114.36 923.5c-2.2785-3.9603-3.6643-9.4573-1.8916-13.981 3.5505-9.0504 15.057-14.092 25.491-11.166 6.5219 1.8273 11.18 6.3638 12.89 11.719" fill="#fff" fill-rule="evenodd"/>
 <path d="m114.36 923.5c-2.2785-3.9603-3.6643-9.4573-1.8916-13.981 3.5505-9.0504 15.057-14.092 25.491-11.166 6.5219 1.8273 11.18 6.3638 12.89 11.719" fill="none" stroke="#c8c8c8" stroke-miterlimit="11.5" stroke-width=".9375"/>
 <path d="m382.63 317.16s-4.16-2.4616-3.7781-7.8499 2.7691-8.4666 8.0822-7.0058c5.3156 1.4583 7.3185 3.7657 7.3185 3.7657s-4.9313-6.8465-3.3178-14.312 8.3123-10.238 14.551-6.5483 7.0884 7.0007 7.0884 7.0007m41.992-6.2147s-12.472 7.7791-24.024 2.6284-24.654-19.074-11.418-37.629c13.236-18.553 34.961-4.0185 34.961-4.0185" fill="none" stroke="#000" stroke-miterlimit="14.3" stroke-width="1.125"/>
 <path d="m282.84 597.89s-3.6188 4.2105-4.7037 13.802 3.156 17.037 2.7034 26.057 5.8088-3.326 5.8088-3.326-2.4429 6.4978 2.1647 16.986c6.4966 14.792 4.6 28.564 4.6 28.564l2.9208-10.102s4.0917 2.6158 3.9678 17.077 0.56394 48.856 0.56394 48.856 7.5006-41.218 9.7892-50.749 4.9667-14.82 4.9667-14.82 1.0065 2.5197 2.7666 4.9612c2.2583 3.1263-0.78901-4.0816 3.6137-11.876 2.6502-4.6882 1.267-13.198 1.267-13.198l3.4898 2.5855s3.462-8.8684 2.5896-15.543 0.36162-7.2155 0.36162-7.2155l1.7753 0.69249s3.3431-6.4649 2.501-13.739c-0.84211-7.2762-3.4898-14.643-3.4898-14.643" fill="#fff" fill-rule="evenodd"/>
 <path d="m282.84 597.89s-3.6188 4.2105-4.7037 13.802 3.156 17.037 2.7033 26.057 5.8088-3.326 5.8088-3.326-2.4429 6.4978 2.1647 16.986c6.4966 14.792 4.6 28.564 4.6 28.564l2.9208-10.102s4.0917 2.6158 3.9678 17.077 0.56394 48.856 0.56394 48.856 7.5006-41.218 9.7892-50.749 4.9667-14.82 4.9667-14.82 1.0065 2.5198 2.7666 4.9612c2.2583 3.1263-0.789-4.0816 3.6137-11.876 2.6502-4.6882 1.267-13.198 1.267-13.198l3.4898 2.5855s3.462-8.8684 2.5896-15.543 0.36162-7.2155 0.36162-7.2155l1.7752 0.69249s3.3432-6.4649 2.501-13.739c-0.84211-7.2762-3.4898-14.643-3.4898-14.643" fill="none" stroke="#000" stroke-miterlimit="14.3" stroke-width="2.25"/>
 <path d="m322.25 602.38s1.9346 2.2089 2.0635 6.8541c0.12897 4.6427-2.807 7.9762-3.0245 12.313s-3.2926-1.9056-3.2926-1.9056 1.5628 4.1827-1.7576 8.9493c-4.6834 6.7227-3.3457 12.455-3.3457 12.455l-3.3153-6.2779s-1.8739 2.3302-2.582 9.25-2.1748 13.231-2.1748 13.231-3.0574-10.013-3.9096-14.694-1.0065-7.8726-1.0065-7.8726-1.8966 1.668-3.0827 2.7396c-1.5173 1.3749 0.69291-1.9081-1.5148-5.8735-1.3302-2.3858-0.04299-6.379-0.04299-6.379l-2.2254 1.0488s-1.5881-4.4279-0.70555-7.5719 0.17196-3.47 0.17196-3.47l-1.0975 0.23504s-1.6463-3.2704-0.75107-6.705 2.8778-6.8112 2.8778-6.8112" fill="#fff" fill-rule="evenodd"/>
 <path d="m322.25 602.38s1.9346 2.2089 2.0635 6.8541c0.12897 4.6427-2.807 7.9763-3.0245 12.313s-3.2926-1.9056-3.2926-1.9056 1.5628 4.1827-1.7576 8.9493c-4.6834 6.7227-3.3457 12.455-3.3457 12.455l-3.3153-6.2779s-1.8739 2.3302-2.582 9.25-2.1748 13.231-2.1748 13.231-3.0574-10.013-3.9096-14.694-1.0065-7.8726-1.0065-7.8726-1.8966 1.668-3.0827 2.7396c-1.5173 1.3749 0.69291-1.9081-1.5148-5.8735-1.3302-2.3858-0.04299-6.379-0.04299-6.379l-2.2254 1.0488s-1.5881-4.4279-0.70555-7.5719 0.17196-3.47 0.17196-3.47l-1.0975 0.23504s-1.6463-3.2704-0.75107-6.705 2.8778-6.8112 2.8778-6.8112" fill="none" stroke="#000" stroke-linecap="round" stroke-linejoin="round" stroke-miterlimit="14.3" stroke-width="2.25"/>
 <path d="m457.17 577.29s3.5606 4.2611 4.5089 13.867c0.95085 9.6039-3.3937 16.991-3.0675 26.016s-5.7632-3.4068-5.7632-3.4068 2.3518 6.5306-2.4024 16.956c-6.704 14.701-4.9995 28.496-4.9995 28.496l-2.7792-10.142s-4.1271 2.5602-4.208 17.022-1.2518 48.843-1.2518 48.843-6.9189-41.319-9.0735-50.88-4.7593-14.891-4.7593-14.891-1.0394 2.5071-2.8348 4.9232c-2.3012 3.096 0.84464-4.069-3.4468-11.924-2.582-4.7261-1.0798-13.215-1.0798-13.215l-3.5278 2.5374s-3.3356-8.9164-2.3721-15.578c0.96602-6.662-0.26047-7.2206-0.26047-7.2206l-1.7854 0.66722s-3.2496-6.5104-2.3063-13.774 3.6947-14.593 3.6947-14.593" fill="#fff" fill-rule="evenodd"/>
 <path d="m457.17 577.29s3.5606 4.2611 4.5089 13.867c0.95085 9.6039-3.3937 16.991-3.0675 26.016s-5.7632-3.4068-5.7632-3.4068 2.3518 6.5306-2.4024 16.956c-6.704 14.701-4.9995 28.496-4.9995 28.496l-2.7792-10.142s-4.1271 2.5602-4.208 17.022-1.2518 48.843-1.2518 48.843-6.9189-41.319-9.0735-50.88-4.7593-14.891-4.7593-14.891-1.0394 2.5071-2.8348 4.9232c-2.3013 3.096 0.84464-4.069-3.4468-11.924-2.582-4.7261-1.0798-13.215-1.0798-13.215l-3.5278 2.5374s-3.3356-8.9164-2.3721-15.578c0.96602-6.662-0.26048-7.2206-0.26048-7.2206l-1.7854 0.66722s-3.2496-6.5104-2.3063-13.774 3.6946-14.593 3.6946-14.593" fill="none" stroke="#000" stroke-miterlimit="14.3" stroke-width="2.25"/>
 <path d="m417.79 581.13s-1.9649 2.1811-2.1596 6.8238 2.6958 8.0142 2.8525 12.354 3.3179-1.8576 3.3179-1.8576-1.621 4.16 1.6336 8.972c4.5873 6.7859 3.1712 12.5 3.1712 12.5l3.4013-6.2324s1.841 2.358 2.453 9.2879 1.9877 13.258 1.9877 13.258 3.199-9.9703 4.117-14.638 1.1152-7.8575 1.1152-7.8575 1.8739 1.6933 3.0447 2.7826c1.4996 1.3951-0.66509-1.9182 1.5982-5.8508 1.363-2.3681 0.1315-6.379 0.1315-6.379l2.2102 1.0792s1.6513-4.4051 0.81429-7.5592c-0.83958-3.1566-0.12644-3.4726-0.12644-3.4726l1.095 0.25021s1.6918-3.2476 0.84464-6.6924c-0.8497-3.4473-2.7817-6.8541-2.7817-6.8541" fill="#fff" fill-rule="evenodd"/>
 <path d="m417.79 581.13s-1.9649 2.1811-2.1596 6.8238 2.6958 8.0142 2.8525 12.354 3.3178-1.8576 3.3178-1.8576-1.621 4.16 1.6336 8.972c4.5873 6.7859 3.1712 12.5 3.1712 12.5l3.4013-6.2324s1.841 2.358 2.453 9.2879 1.9877 13.258 1.9877 13.258 3.199-9.9703 4.117-14.638 1.1152-7.8575 1.1152-7.8575 1.8739 1.6933 3.0447 2.7826c1.4996 1.3951-0.66509-1.9182 1.5982-5.8508 1.363-2.3681 0.1315-6.379 0.1315-6.379l2.2102 1.0792s1.6513-4.4051 0.81429-7.5592c-0.83958-3.1566-0.12644-3.4726-0.12644-3.4726l1.095 0.25021s1.6918-3.2476 0.84464-6.6924c-0.8497-3.4473-2.7817-6.8541-2.7817-6.8541" fill="none" stroke="#000" stroke-linecap="round" stroke-linejoin="round" stroke-miterlimit="14.3" stroke-width="2.25"/>
 <path d="m415.82 518.27 14.483-274.27s0.28829-26.35-4.605-38.031-19.437-49.359-34.822-50.17l-2.1976-0.11626c-15.388-0.81127-33.818 35.125-39.913 46.227-6.0971 11.103-8.5854 37.336-8.5854 37.336l-14.483 274.27s-4.4154 24.417 43.415 26.939 46.708-22.185 46.708-22.185" fill="#fff" fill-rule="evenodd"/>
 <path d="m415.82 518.27 14.483-274.27s0.28829-26.35-4.605-38.031-19.437-49.359-34.822-50.17l-2.1976-0.11625c-15.388-0.81128-33.818 35.125-39.913 46.227-6.0971 11.103-8.5854 37.336-8.5854 37.336l-14.483 274.27s-4.4154 24.417 43.415 26.939 46.708-22.185 46.708-22.185z" fill="none" stroke="#000" stroke-miterlimit="14.3" stroke-width="2.25"/>
 <path d="m341.62 220.64s19.391-14.393 46.713-12.953c29.509 1.5568 41.812 17.621 41.812 17.621m-89.263 13.774s19.191-10.559 46.521-9.2222c29.517 1.4406 42.346 15.025 42.346 15.025m-92.667 61.338s19.159-8.6561 46.488-7.3217c29.517 1.4406 42.062 11.646 42.062 11.646" fill="none" stroke="#000" stroke-miterlimit="11.5" stroke-width="1.125"/>
 <path d="m425.26 240.34-4.0386 67.677m1.5755-68.87-3.7478 67.189m1.0166-68.147-3.7857 67.695m0.83452-69.176-3.7503 67.187m0.78141-68.415-3.8236 68.2m0.63727-69.954-3.6238 68.978m-3.1661-70.224-4.074 68.185m7.3337-67.444-3.8211 68.203m-2.716-70.778-3.7832 69.044m0.92303-68.769-4.2358 68.789m0.96096-68.948-4.0006 68.731m0.72831-68.89-4.2586 68.387m0.57152-69.016-4.3471 68.248m44.217-55.93-4.0411 66.83m-78.109-72.744-5.5609 67.591m8.1707-68.491-5.7784 67.073m8.6259-67.707-5.8164 67.578m8.9521-68.711-5.7784 67.073m8.8965-67.95-5.8518 68.086m9.2606-69.459-6.1603 68.834m13.069-69.292-5.5989 68.099m2.2608-67.738-5.8492 68.086m12.697-69.891-6.006 68.918m8.8055-68.314-5.523 68.713m8.7928-68.496-5.7481 68.63m9.0179-68.412-5.4446 68.319m9.1646-68.463-5.3359 68.192m-35.927-60.61-5.437 66.749" fill="none" stroke="#000" stroke-miterlimit="14.3" stroke-width=".5625"/>
 <path d="m332.72 382.63s18.787-2.9443 46.109-1.5038c29.509 1.5568 42.416 6.1743 42.416 6.1743" fill="none" stroke="#000" stroke-miterlimit="11.5" stroke-width="1.125"/>
 <path d="m390.53 148.2 0.41979-7.9383" fill="none" stroke="#000" stroke-linecap="round" stroke-linejoin="round" stroke-miterlimit="11.5" stroke-width="2.25"/>
 <path d="m387.1 147.99 6.6408 0.34877-0.33634 6.3537-6.6408-0.3513" fill="#fff" fill-rule="evenodd"/>
 <path d="m387.1 147.99 6.6408 0.34877-0.33634 6.3537-6.6408-0.3513 0.33634-6.3512z" fill="none" stroke="#000" stroke-linecap="round" stroke-linejoin="round" stroke-miterlimit="11.5" stroke-width="2.25"/>
 <path d="m414.19 518.21s-18.86 4.3066-46.184 2.866c-29.509-1.5568-42.346-7.534-42.346-7.534m67.189-355.63s3.8186 35.979 3.376 55.22c-0.44508 19.241-0.88004 27.475-0.88004 27.475l-14.781 279.93" fill="none" stroke="#000" stroke-miterlimit="11.5" stroke-width="1.125"/>
 <path d="m417.14 501.61 1.2417 4.8373-0.33128 15.801-1.8562 3.8491 1.5325 4.5618 0.0531 6.561-1.927 5.1532 0.60945 6.1035-0.92809 5.7446 2.2532 5.2012-8.5425 19.968s11.757-9.4548 29.876-8.1709 21.553 8.651 21.553 8.651l-5.8037-18.611 1.6488-5.5627-0.79406-6.4952 1.1329-5.9519-1.889-5.7244 0.4476-6.2981 2.0509-4.2004-2.2785-3.7278 1.3226-21.01s2.7716-3.2299 3.0523-7.1675-2.0281-4.8929-2.0281-4.8929l0.44508-6.2981 5.518-222.76-13.297-35.759s-1.1304-6.4093-4.2813-6.6342-5.3409 8.3276-5.3409 8.3276l-14.162 32.231-9.2784 242.27" fill="#fff" fill-rule="evenodd"/>
 <path d="m417.14 501.61 1.2417 4.8373-0.33128 15.801-1.8562 3.8491 1.5325 4.5618 0.0531 6.561-1.927 5.1532 0.60945 6.1035-0.92809 5.7446 2.2532 5.2012-8.5425 19.968s11.757-9.4547 29.876-8.1709 21.553 8.651 21.553 8.651l-5.8037-18.611 1.6488-5.5626-0.79406-6.4952 1.1329-5.9519-1.889-5.7244 0.4476-6.2981 2.0509-4.2004-2.2785-3.7278 1.3226-21.01s2.7716-3.2299 3.0523-7.1675-2.0281-4.8929-2.0281-4.8929l0.44508-6.2981 5.518-222.76-13.297-35.759s-1.1304-6.4093-4.2813-6.6342-5.3409 8.3276-5.3409 8.3276l-14.162 32.231-9.2784 242.27z" fill="none" stroke="#000" stroke-linecap="round" stroke-linejoin="round" stroke-miterlimit="11.5" stroke-width="2.25"/>
 <path d="m290.09 522.33 1.1152 4.8019-0.68532 15.599-1.9219 3.7581 1.4086 4.5416-0.09357 6.4801-2.0206 5.0471 0.46025 6.0403-1.0469 5.6511 2.1091 5.1886-8.8914 19.526s11.825-9.0681 29.691-7.3899c17.864 1.6807 21.091 9.0327 21.091 9.0327l-5.3106-18.513 1.755-5.4565-0.63474-6.4321 1.2543-5.8508-1.7348-5.6966 0.58416-6.2096 2.1217-4.1019-2.1672-3.7354 1.7828-20.717s2.8121-3.1288 3.1788-7.0108c0.36416-3.882-1.8916-4.8752-1.8916-4.8752l0.58416-6.2122 10.51-219.87-12.318-35.62s-0.96855-6.3562-4.0765-6.6469-5.4648 8.1001-5.4648 8.1001l-14.72 31.508-14.667 239.06" fill="#fff" fill-rule="evenodd"/>
 <path d="m290.09 522.33 1.1152 4.8019-0.68531 15.599-1.9219 3.7581 1.4086 4.5416-0.09357 6.4801-2.0206 5.0471 0.46025 6.0403-1.0469 5.6511 2.1091 5.1886-8.8914 19.526s11.825-9.0681 29.691-7.3899c17.864 1.6807 21.091 9.0327 21.091 9.0327l-5.3106-18.513 1.755-5.4565-0.63474-6.432 1.2543-5.8508-1.7348-5.6966 0.58416-6.2096 2.1217-4.1019-2.1672-3.7354 1.7828-20.717s2.8121-3.1288 3.1788-7.0108c0.36415-3.882-1.8916-4.8752-1.8916-4.8752l0.58416-6.2122 10.51-219.87-12.318-35.62s-0.96855-6.3562-4.0765-6.6469-5.4648 8.1001-5.4648 8.1001l-14.72 31.508-14.667 239.06z" fill="none" stroke="#000" stroke-linecap="round" stroke-linejoin="round" stroke-miterlimit="11.5" stroke-width="2.25"/>
 <path d="m305.38 278.41s8.0948-6.4523 18.536-5.5323c13.8 1.2207 17.414 6.6317 17.414 6.6317" fill="none" stroke="#000" stroke-miterlimit="14.3" stroke-width="1.125"/>
 <path d="m322.17 523.36-82.774-5.0749 4.208-25.817s2.9208-7.7058 8.8257-12.826c5.9074-5.1204 50.167-48.669 55.397-55.419s11.069-33.242 11.069-33.242l4.8503-90.655s2.9158-18.786 7.359-25.592 11.868-11.029 13.833-16.428c1.9674-5.4009 9.3871-20.701 16.534-20.984 7.1465-0.28559 13.962 15.232 16.387 25.69s7.8951 33.795 9.0229 40.205 15.181 87.329 20.868 96.435 51.955 37.71 56.234 44.345 9.8044 29.181 9.5818 32.33-83.26 35.246-83.26 35.246l-7.0226 20.868-55.42 11.105s-7.5436-5.2821-6.307-11.525c1.2341-6.2425 0.61451-8.6612 0.61451-8.6612" fill="#fff" fill-rule="evenodd"/>
 <path d="m322.17 523.36-82.774-5.0749 4.208-25.817s2.9208-7.7058 8.8257-12.826c5.9074-5.1204 50.167-48.669 55.397-55.419s11.069-33.242 11.069-33.242l4.8503-90.655s2.9158-18.786 7.359-25.592 11.868-11.029 13.833-16.428c1.9674-5.4009 9.3871-20.701 16.534-20.984 7.1465-0.28559 13.962 15.232 16.387 25.69s7.8951 33.795 9.0229 40.205 15.181 87.329 20.868 96.435 51.955 37.71 56.234 44.345 9.8044 29.181 9.5818 32.33-83.26 35.246-83.26 35.246l-7.0226 20.868-55.42 11.105s-7.5436-5.2821-6.307-11.525c1.2341-6.2425 0.61451-8.6612 0.61451-8.6612zm-5.7784-74.794 7.7813-151.2" fill="none" stroke="#000" stroke-linecap="round" stroke-linejoin="round" stroke-miterlimit="14.3" stroke-width="2.25"/>
 <path d="m289.48 580.48s7.9482-5.411 18.291-4.5239c13.668 1.1752 17.3 5.8154 17.3 5.8154m-35.333-13.574s7.9456-5.4085 18.289-4.5214c13.668 1.1727 17.3 5.8129 17.3 5.8129m-35.376-12.96s8.0645-5.4034 18.572-4.5037c13.883 1.1878 17.578 5.8356 17.578 5.8356m-35.326-12.96s8.0948-6.4523 18.536-5.5298c13.8 1.2182 17.414 6.6317 17.414 6.6317m-35.477-16.443s8.0948-6.4523 18.536-5.5298c13.8 1.2182 17.414 6.6317 17.414 6.6317m-37.46 28.849s8.0594-5.3226 18.567-4.4254c13.886 1.1853 17.583 5.775 17.583 5.775m-34.896-19.018s8.0949-6.4523 18.536-5.5323c13.8 1.2207 17.414 6.6317 17.414 6.6317m-37.46 28.852s8.1884-5.9468 18.81-5.0243c14.035 1.2182 17.745 6.2703 17.745 6.2703m90.581-14.297s8.3123-5.3857 19.161-4.4607c14.336 1.2207 18.16 5.8735 18.16 5.8735m-37.139-13.087s8.3149-5.3832 19.161-4.4607c14.336 1.2207 18.16 5.876 18.16 5.876m-36.494-13.041s8.4641-6.427 19.414-5.4691c14.473 1.2662 18.281 6.6924 18.281 6.6924m-37.253-16.567s8.4641-6.427 19.417-5.4692c14.473 1.2662 18.281 6.6924 18.281 6.6924m-39.179 28.731s8.2795-5.3074 19.088-4.39c14.283 1.2131 18.094 5.8103 18.094 5.8103m-35.927-19.091s8.4666-6.4245 19.417-5.4666c14.473 1.2662 18.281 6.6924 18.281 6.6924m-39.177 28.728s8.5652-5.919 19.705-4.9612c14.723 1.2687 18.628 6.3335 18.628 6.3335m-36.147-50.339s8.4641-6.427 19.417-5.4692c14.473 1.2662 18.281 6.6924 18.281 6.6924m-36.522-9.1363s8.4641-6.427 19.417-5.4691c14.473 1.2662 18.281 6.6949 18.281 6.6949m-35.161-88.99s8.4641-6.427 19.417-5.4691c14.473 1.2662 18.281 6.6924 18.281 6.6924m-36.534-34.968s8.4641-6.4245 19.417-5.4666c14.473 1.2662 18.281 6.6924 18.281 6.6924m-37.232-33.788s8.4641-6.4245 19.417-5.4666c14.473 1.2662 18.281 6.6924 18.281 6.6924m-35.791-36.76s8.4641-6.427 19.417-5.4691c14.473 1.2687 18.281 6.6949 18.281 6.6949m-37.801-34.442s8.4641-6.427 19.417-5.4691c14.473 1.2662 18.281 6.6924 18.281 6.6924m-37.098-27.012s8.4641-6.4245 19.417-5.4666c14.473 1.2662 18.281 6.6924 18.281 6.6924m-165.72 146.53s8.0948-6.4548 18.536-5.5323c1.3175 0.11626 2.5415 0.27042 3.6795 0.45492m-20.484-28.01s8.0948-6.4523 18.536-5.5323c1.3175 0.11625 2.5415 0.27295 3.6795 0.45744m-21.05-28.668s8.0923-6.4523 18.534-5.5323c1.3175 0.11626 2.544 0.27295 3.6795 0.45745m-20.57-26.79s8.0949-6.4523 18.536-5.5298c1.3175 0.11626 2.5415 0.27043 3.6795 0.45492" fill="none" stroke="#000" stroke-miterlimit="14.3" stroke-width="1.125"/>
 <path d="m304.5 468.92s-3.2319 10.842-3.5783 15.738l-0.56646 7.956-0.56394 7.956 3.022 9.4396 14.824-0.79359 5.8669 12.715" fill="none" stroke="#000" stroke-linecap="round" stroke-linejoin="round" stroke-miterlimit="14.3" stroke-width="2.25"/>
 <path d="m343.2 446.14-4.9742-9.3713-32.936 21.134 0.62463 25.875c1.8359 0.13142 24.798 6.0631 24.798 6.0631" fill="#fff" fill-rule="evenodd"/>
 <path d="m343.2 446.14-4.9742-9.3713-32.936 21.134 0.62462 25.875c1.836 0.13142 24.798 6.0631 24.798 6.0631" fill="none" stroke="#000" stroke-linecap="round" stroke-linejoin="round" stroke-miterlimit="14.3" stroke-width="2.25"/>
 <path d="m324.14 296.27s10.621-10.936 18.01-11.027 17.975-1.802 25.759 1.2106c7.7863 3.0126 10.586 6.9021 10.586 6.9021m-34.268-7.3899-5.2372 147.89m39.508-140.5-7.3615 147.08m-49.732-105.61s6.2842-10.756 20.504-11.464c20.377-1.016 30.088 0.90225 33.854 8.55m-55.258 41.595s6.2867-10.756 20.506-11.464c20.377-1.016 30.086 0.90226 33.851 8.55m-57.185 42.939s6.2842-10.759 20.506-11.479c20.38-1.0362 30.091 0.87446 33.854 8.5171m-55.521 36.702s6.3019-11.009 20.567-12.374c20.446-1.9536 30.189-0.49031 33.968 6.9577m12.786-145.66s2.587 15.558 1.9776 24.126-4.8073 93.754-4.8023 102.36-0.89775 38.681-0.02276 43.662c0.87751 4.9839 0.57404 9.2652 2.6325 14.947s3.4696 29.15 3.4696 29.15" fill="none" stroke="#000" stroke-linecap="round" stroke-linejoin="round" stroke-miterlimit="14.3" stroke-width="1.125"/>
 <path d="m370.94 248.08s-3.8919-1.5063-9.7538-1.3066-9.946 1.4482-9.946 1.4482 6.532-9.6873 11.102-9.058 8.5551 9.528 8.5981 8.9164" fill-rule="evenodd"/>
 <path d="m370.94 248.08s-3.8919-1.5063-9.7538-1.3066-9.946 1.4482-9.946 1.4482 6.532-9.6873 11.102-9.058 8.5551 9.528 8.5981 8.9164z" fill="none" stroke="#000" stroke-linecap="round" stroke-linejoin="round" stroke-miterlimit="14.3" stroke-width="1.125"/>
 <path d="m354.91 244.18s2.7994-0.41701 5.5761-0.52569 7.9583 0.56359 7.9583 0.56359-1.4667-5.3352-6.0794-5.3554c-4.6152-0.01769-7.1693 5.6461-7.4551 5.3175" fill="#fff" fill-rule="evenodd"/>
 <path d="m354.91 244.18s2.7994-0.41701 5.5761-0.52568 7.9583 0.56359 7.9583 0.56359-1.4667-5.3352-6.0794-5.3554c-4.6152-0.01769-7.1693 5.646-7.4551 5.3175zm-7.1668 9.9476s7.5866-2.8483 15.81-1.6503 11.481 2.9696 11.481 2.9696" fill="none" stroke="#000" stroke-linecap="round" stroke-linejoin="round" stroke-miterlimit="14.3" stroke-width="1.125"/>
 <path d="m341.56 267.52s5.9226-5.4236 13.795-3.6343 10.454 4.4304 10.454 4.4304l2.0787 1.0716s1.1607 5.3099-0.34898 4.8954-7.4576-3.2956-7.3488-4.8272-2.8222-3.5838-8.0266-3.9527-10.275 1.7338-10.603 2.0168" fill-rule="evenodd"/>
 <path d="m341.56 267.52s5.9226-5.4236 13.795-3.6343 10.454 4.4304 10.454 4.4304l2.0787 1.0716s1.1607 5.3099-0.34899 4.8954-7.4576-3.2956-7.3488-4.8272-2.8222-3.5838-8.0266-3.9528-10.275 1.7338-10.603 2.0168z" fill="none" stroke="#000" stroke-linecap="round" stroke-linejoin="round" stroke-miterlimit="14.3" stroke-width="1.125"/>
 <path d="m346.89 278.57 4.9591-0.50547-0.28324 3.978-4.9591 0.50547" fill-rule="evenodd"/>
 <path d="m346.89 278.57 4.9591-0.50547-0.28324 3.978-4.9591 0.50546 0.28323-3.978z" fill="none" stroke="#000" stroke-linecap="round" stroke-linejoin="round" stroke-miterlimit="14.3" stroke-width="1.125"/>
 <path d="m338.54 279.21 4.9591-0.50546-0.28323 3.978-4.9566 0.50546" fill-rule="evenodd"/>
 <path d="m338.54 279.21 4.9591-0.50547-0.28323 3.978-4.9566 0.50547 0.2807-3.978z" fill="none" stroke="#000" stroke-linecap="round" stroke-linejoin="round" stroke-miterlimit="14.3" stroke-width="1.125"/>
 <path d="m351.11 524.74s0.65244-7.6957 2.0382-12.04c1.3428-4.2156 6.4359-9.1262 6.4359-9.1262l3.988-0.139c3.0675-0.10615 4.9616 1.3622 4.9616 1.3622s2.8121 3.4144 4.5494 7.208c1.6614 3.6242 1.9927 13.127 1.9927 13.127" fill-rule="evenodd"/>
 <path d="m351.11 524.74s0.65244-7.6957 2.0382-12.04c1.3428-4.2156 6.4359-9.1262 6.4359-9.1262l3.988-0.139c3.0675-0.10615 4.9616 1.3622 4.9616 1.3622s2.8121 3.4144 4.5494 7.208c1.6614 3.6242 1.9927 13.127 1.9927 13.127" fill="none" stroke="#000" stroke-linecap="round" stroke-linejoin="round" stroke-miterlimit="14.3" stroke-width="1.125"/>
 <path d="m324.01 529.67s0.58164-7.1473 1.8284-11.181c1.2088-3.9148 5.8037-8.4691 5.8037-8.4691l3.6011-0.12637c2.7691-0.09603 4.4811 1.2712 4.4811 1.2712s2.5415 3.1718 4.1144 6.6974c1.5047 3.3689 1.8132 12.194 1.8132 12.194" fill-rule="evenodd"/>
 <path d="m324.01 529.67s0.58164-7.1473 1.8284-11.181c1.2088-3.9148 5.8037-8.4691 5.8037-8.4691l3.6011-0.12636c2.7691-0.09604 4.4811 1.2712 4.4811 1.2712s2.5415 3.1718 4.1144 6.6974c1.5047 3.3689 1.8132 12.194 1.8132 12.194" fill="none" stroke="#000" stroke-linecap="round" stroke-linejoin="round" stroke-miterlimit="14.3" stroke-width="1.125"/>
 <path d="m346.29 532.92c-0.35404 4.9839-5.8518 8.6586-12.273 8.2037s-11.347-4.8676-10.993-9.8515 5.8518-8.6561 12.273-8.2012 11.347 4.8676 10.993 9.849" fill="#fff" fill-rule="evenodd"/>
 <path d="m346.29 532.92c-0.35404 4.9839-5.8518 8.6586-12.273 8.2037s-11.347-4.8676-10.993-9.8515 5.8518-8.6561 12.273-8.2012 11.347 4.8676 10.993 9.849z" fill="none" stroke="#000" stroke-linecap="round" stroke-linejoin="round" stroke-miterlimit="14.3" stroke-width="1.125"/>
 <path d="m376.24 527.05c-0.35404 4.9814-6.264 8.6283-13.193 8.138s-12.262-4.9334-11.911-9.9172 6.264-8.6283 13.193-8.138 12.265 4.9334 11.911 9.9172" fill="#fff" fill-rule="evenodd"/>
 <path d="m376.24 527.05c-0.35404 4.9814-6.264 8.6283-13.193 8.138s-12.262-4.9334-11.911-9.9172 6.264-8.6283 13.193-8.138 12.265 4.9334 11.911 9.9172z" fill="none" stroke="#000" stroke-linecap="round" stroke-linejoin="round" stroke-miterlimit="14.3" stroke-width="1.125"/>
 <path d="m326.25 505.06s1.4617-7.5845 3.2976-11.76c1.7778-4.0513 7.364-8.3958 7.364-8.3958l3.9779 0.28053c3.0624 0.21735 4.7896 1.8778 4.7896 1.8778s2.4378 3.6924 3.7655 7.6477c1.2695 3.7809 0.59681 13.266 0.59681 13.266" fill-rule="evenodd"/>
 <path d="m326.25 505.06s1.4617-7.5845 3.2976-11.76c1.7778-4.0513 7.364-8.3958 7.364-8.3958l3.9779 0.28054c3.0624 0.21735 4.7896 1.8778 4.7896 1.8778s2.4378 3.6924 3.7655 7.6477c1.2695 3.7809 0.59681 13.266 0.59681 13.266" fill="none" stroke="#000" stroke-linecap="round" stroke-linejoin="round" stroke-miterlimit="14.3" stroke-width="1.125"/>
 <path d="m350.13 509.21c-0.3414 4.8146-6.0364 8.3377-12.71 7.8651-6.6762-0.47262-11.815-4.764-11.473-9.5786s6.0338-8.3377 12.71-7.865c6.6736 0.47261 11.815 4.764 11.473 9.5786" fill="#fff" fill-rule="evenodd"/>
 <path d="m350.13 509.21c-0.3414 4.8146-6.0364 8.3377-12.71 7.865-6.6762-0.47261-11.815-4.764-11.473-9.5786s6.0338-8.3377 12.71-7.8651c6.6736 0.47261 11.815 4.764 11.473 9.5786z" fill="none" stroke="#000" stroke-linecap="round" stroke-linejoin="round" stroke-miterlimit="14.3" stroke-width="1.125"/>
 <path d="m318.35 507.88-0.41979-11.408 7.2553-6.8668-19.659-4.7741-2.1698-8.459-2.6629 7.1928-0.27565 16.895 4.0487 7.9737 13.883-0.55349" fill-rule="evenodd"/>
 <path d="m318.35 507.88-0.41979-11.408 7.2553-6.8668-19.659-4.7741-2.1698-8.459-2.6629 7.1928-0.27564 16.895 4.0487 7.9737 13.883-0.55349z" fill="none" stroke="#000" stroke-linecap="round" stroke-linejoin="round" stroke-miterlimit="14.3" stroke-width="1.125"/>
 <path d="m341.17 481.21s8.4211 2.7497 9.2075 4.6503 2.7185 9.4168 2.7185 9.4168l1.009 7.4531s5.0046-5.4868 11.916-3.1516c6.9088 2.3327 8.2896 8.8912 8.2896 8.8912l2.6477 1.7236 7.1718-1.337-11.511-19.883 0.08092-9.8364s-4.5722-4.9359-14.761-4.4279-16.769 6.5003-16.769 6.5003" fill-rule="evenodd"/>
 <path d="m341.17 481.21s8.4211 2.7497 9.2075 4.6503 2.7185 9.4168 2.7185 9.4168l1.009 7.4531s5.0046-5.4868 11.916-3.1516c6.9088 2.3327 8.2896 8.8911 8.2896 8.8911l2.6477 1.7236 7.1718-1.337-11.511-19.883 0.08092-9.8364s-4.5722-4.9359-14.761-4.4279-16.769 6.5003-16.769 6.5003z" fill="none" stroke="#000" stroke-linecap="round" stroke-linejoin="round" stroke-miterlimit="14.3" stroke-width="1.125"/>
 <path d="m330.22 488.12-18.648-8.5474-0.23013-7.2433c0.91797 0.06571 27.64 0.72787 27.64 0.72787l-0.46025-2.1836-26.75-0.84666 0.36668-11.924 23.789-15.705-2.5592-2.9494-27.413 17.737 1.6084 25.023 22.656 5.9114" fill-rule="evenodd"/>
 <path d="m330.22 488.12-18.648-8.5474-0.23012-7.2433c0.91797 0.06571 27.64 0.72787 27.64 0.72787l-0.46025-2.1836-26.75-0.84665 0.36669-11.924 23.789-15.705-2.5592-2.9494-27.413 17.737 1.6084 25.023 22.656 5.9114zm10.383-7.5668s0.36668-13.812 1.4768-20.808c1.1127-6.9931 2.1369-12.763 2.1369-12.763s0.89522-3.9351 2.5112-5.0496c6.9265-2.6284 7.1212-1.9031 16.051-0.70765 0 0 6.0566 1.3521 10.958 6.0049s4.6 17.547 4.9742 20.957-1.5603 26.335-1.5603 26.335" fill="none" stroke="#000" stroke-linecap="round" stroke-linejoin="round" stroke-miterlimit="14.3" stroke-width="1.125"/>
 <path d="m347.3 537.91s1.7247-2.6436 1.573-4.8095c-0.15426-2.1634-2.0206-14.906-2.0206-14.906l1.8815-0.48019s-0.91291 12.851 1.3833 15.169 6.8254 3.5585 6.8254 3.5585-10.212 0.8138-9.6425 1.4684" fill-rule="evenodd"/>
 <path d="m347.3 537.91s1.7247-2.6436 1.573-4.8095c-0.15426-2.1634-2.0206-14.906-2.0206-14.906l1.8815-0.48019s-0.91291 12.851 1.3833 15.169 6.8254 3.5585 6.8254 3.5585-10.212 0.8138-9.6425 1.4684z" fill="none" stroke="#000" stroke-linecap="round" stroke-linejoin="round" stroke-miterlimit="14.3" stroke-width="1.125"/>
 <path d="m299.17 504.98-19.219 2.0219 0.00506 12.917-3.6947 0.04549 0.51842-11.651c-0.9382 0.24262-35.508 1.7894-35.508 1.7894l1.3276-10.054 56.869-7.9636-0.60692 8.5676 0.30852 4.3268" fill-rule="evenodd"/>
 <path d="m299.17 504.98-19.219 2.0219 0.00505 12.917-3.6946 0.04549 0.51842-11.651c-0.93821 0.24263-35.508 1.7894-35.508 1.7894l1.3276-10.054 56.869-7.9636-0.60692 8.5676 0.30852 4.3268z" fill="none" stroke="#000" stroke-linecap="round" stroke-linejoin="round" stroke-miterlimit="14.3" stroke-width="1.125"/>
 <path d="m382.87 478.93 86.517-18.161 3.3937 8.5449-39.245 11.057 1.5603 12.718-1.9245 1.0943-3.1105-12.52-43.903 11.648s-0.57152-4.9612-1.0318-7.1473c-0.46025-2.1836-2.2557-7.2332-2.2557-7.2332" fill-rule="evenodd"/>
 <path d="m382.87 478.93 86.517-18.161 3.3937 8.5449-39.245 11.057 1.5603 12.718-1.9245 1.0943-3.1105-12.52-43.903 11.648s-0.57152-4.9612-1.0318-7.1473c-0.46025-2.1836-2.2557-7.2332-2.2557-7.2332z" fill="none" stroke="#000" stroke-linecap="round" stroke-linejoin="round" stroke-miterlimit="14.3" stroke-width="1.125"/>
 <path d="m472.8 473.32-9.5869-20.977s-0.70049-3.1238-2.4302-4.7842-7.3059-5.4388-7.3059-5.4388l-47.489-33.194s-5.4901-5.0016-6.9796-10.028c-1.4895-5.0243-13.575-77.531-13.575-77.531s1.1354-7.3015 0.91544-8.5449c-0.22001-1.246 0.36921-5.2038 0.36921-5.2038s16.946 86.382 21.212 91.297 53.308 42.219 56.153 45.494 8.717 28.91 8.717 28.91" fill-rule="evenodd"/>
 <path d="m472.8 473.32-9.5869-20.977s-0.70049-3.1238-2.4302-4.7842-7.3059-5.4388-7.3059-5.4388l-47.489-33.194s-5.4901-5.0016-6.9796-10.028c-1.4895-5.0243-13.575-77.531-13.575-77.531s1.1354-7.3015 0.91544-8.5449c-0.22001-1.246 0.36921-5.2038 0.36921-5.2038s16.946 86.382 21.212 91.297 53.308 42.219 56.153 45.494 8.717 28.91 8.717 28.91z" fill="none" stroke="#000" stroke-linecap="round" stroke-linejoin="round" stroke-miterlimit="14.3" stroke-width="1.125"/>
 <path d="m400.51242,450.12285 1.45156-.20472-.00759,6.16922c0,1.08169-.11633,1.93593-.34898,2.60315s-.64486,1.23333-1.25178,1.71858-1.38834.79105-2.37459.93006c-.95844.13647-1.72468.07582-2.33413-.18702s-1.0343-.68997-1.29225-1.31169-.38691-1.48101-.38438-2.62084l.00759-6.17174 1.45156-.20472-.00759,6.18944c0,.93764.07587,1.60232.23265,2.02439s.42485.71776.81177.90478c.38438.18703.84463.23757 1.40098.15922 .9559-.13394 1.62099-.4625 2.02814-.99576 .40714-.5358.60692-1.45827.60945-2.81292l.00759-6.18943" fill-rule="evenodd"/>
 <path d="m405.79772,456.61808 1.45156-.20471c.05816.53074.18966.9427.40461,1.25861s.53612.54338.98373.69502 .94073.18449 1.50213.10362c.49819-.07077.92809-.20977 1.30995-.42459 .37933-.21735.6575-.47261.84463-.78095s.27818-.62678.28071-.96544c0-.34624-.08093-.62678-.24277-.86182-.16438-.23251-.44508-.40184-.85223-.5181-.263-.07835-.82946-.16933-1.7272-.28306s-1.53501-.24515-1.9371-.40185c-.51842-.19713-.89521-.47261-1.15063-.83907-.25288-.36646-.37933-.786-.3768-1.28389 0-.54843.14668-1.06653.44508-1.58716s.72072-.93006 1.29224-1.25861 1.19362-.53579 1.89158-.63436c.77383-.10868 1.43639-.07582 2.02561.09857s1.02925.48272 1.34535.94016 .48048.99072.50324,1.62255l-1.45409.20471c-.06575-.64699-.28323-1.09939-.66761-1.37992s-.94073-.36646-1.69686-.26031c-.78142.1112-1.34029.34624-1.69939.71776s-.53359.77083-.53359,1.22323c0,.3892.12392.68743.3768.90225 .24783.21735.8851.38163 1.9371.49789s1.77273.24009 2.19504.3791c.61199.20218 1.05201.49788 1.34535.90225s.43244.88204.43244,1.46333c0,.5737-.15679,1.12719-.47543,1.68067s-.76371,1.00335-1.35799,1.36982-1.24925.59645-1.99526.70259c-.94074.13395-1.71204.1011-2.34931-.10109-.63474-.20219-1.12281-.55854-1.48696-1.08928s-.54623-1.15246-.56393-1.88792" fill-rule="evenodd"/>
 <path d="m418.54 457.9 4.2409-11.211 1.6336-0.22999 4.2156 10.013-1.5375 0.21735-1.1961-3.0378-4.6177 0.65457-1.2037 3.3765-1.535 0.21735zm3.204-4.8954 3.6921-0.52063-1.0722-2.7219-0.76877-1.9536c-0.21748 0.61919-0.44761 1.2687-0.70049 1.9764l-1.1506 3.2198" fill-rule="evenodd"/>
 <path d="m273.2 478.53 19.692-4.0639-0.85728 12.06-19.692 4.0639" fill-rule="evenodd"/>
 <path d="m273.2 478.53 19.692-4.064-0.85728 12.06-19.692 4.064 0.85728-12.06z" fill="none" stroke="#000" stroke-linecap="round" stroke-linejoin="round" stroke-miterlimit="14.3" stroke-width="1.125"/>
</svg>
