<?xml version="1.0" encoding="UTF-8"?>
<svg width="586.26" height="433.62" enable-background="new 0 0 586.257 433.619" viewBox="0 0 586.257 433.619" xmlns="http://www.w3.org/2000/svg">
 <path d="m452.26,299.37c-.097.552-.626.922-1.177.824l-5.003-.882c-.553-.097-.923-.622-.824-1.176s.622-.922 1.175-.827l5.005.883c.55.11.92.63.82,1.19z" fill="#fff" stroke="#292526" stroke-width="1.016"/>
 <path d="m450.74,297.44c-.096.553-.623.92-1.175.824l-5.005-.881c-.552-.098-.92-.625-.823-1.178s.624-.921 1.177-.823l5.004.881c.55.1.92.62.82,1.18z" fill="#fff" stroke="#292526" stroke-width="1.016"/>
 <path d="m481.06,11.771-84.12,12.598 .6-4.877 83.72-13.005z" fill="#d0d2d4" stroke="#292526" stroke-width=".3387"/>
 <path d="m479.89,163.94 6.342-76.094-5.834-.253s.253-9.384.507-13.442c.06-.959 1.489-2.029 3.296-2.029 1.776,0 11.415-.508 11.415-.508l2.987-70.416-104.2,16.903-8.117,11.921-12.989,122.37 7.155,12.062 11.922-.254 .76,1.521 86.75-1.78z" fill="none" stroke="#292526" stroke-width="2.032"/>
 <path d="m474.86,36.967 .32-.036 4.86-.574-.2,7.722-3.76.507-.1.915 3.86-.507-.3,1.93-4.88.61z" fill="#d0d2d4" stroke="#292526" stroke-width=".3387"/>
 <path d="m478.11,59.421-80.26,9.143 .81-10.159 79.86-9.551z" fill="#d0d2d4" stroke="#292526" stroke-width=".3387"/>
 <path d="m477.5,71.613-80.67,8.33 .82-10.159 80.26-8.738z" fill="#d0d2d4" stroke="#292526" stroke-width=".3387"/>
 <path d="m476.69,83.602-80.67,7.924 .81-10.16 80.27-8.333z" fill="#d0d2d4" stroke="#292526" stroke-width=".3387"/>
 <path d="m476.08,95.793-81.28,6.907 .81-10.158 80.88-7.316z" fill="#d0d2d4" stroke="#292526" stroke-width=".3387"/>
 <path d="m474.86 107.78-81.48 6.5 1.42-10.36 80.67-6.704z" fill="#d0d2d4" stroke="#292526" stroke-width=".3387"/>
 <path d="m474.25 120.18-81.89 5.69 1.42-10.37 81.08-5.89z" fill="#d0d2d4" stroke="#292526" stroke-width=".3387"/>
 <path d="m473.84 132.77-82.5 4.68 1.43-10.36 81.68-4.88z" fill="#d0d2d4" stroke="#292526" stroke-width=".3387"/>
 <path d="m472.83 144.97-82.7 4.06 1.42-10.36 81.89-4.27z" fill="#d0d2d4" stroke="#292526" stroke-width=".3387"/>
 <path d="m472.63,151.67-82.91,3.73 .41-5.15 82.7-3.86z" fill="#d0d2d4" stroke="#292526" stroke-width=".3387"/>
 <path d="m473.24,48.245-73.97,8.942 .81-10.162 73.56-9.347z" fill="#d0d2d4" stroke="#292526" stroke-width=".3387"/>
 <path d="m479.54,35.241-79.05,10.77 .81-10.16 78.64-11.176z" fill="#d0d2d4" stroke="#292526" stroke-width=".3387"/>
 <path d="m480.24 23.556-78.84 11.176 1.02-10.16 78.44-11.581z" fill="#d0d2d4" stroke="#292526" stroke-width=".3387"/>
 <path d="m478.52,91.729h4.47l-4.88,68.271h-1.22l-.4-5.28-1.63-.81z" fill="#d0d2d4" stroke="#292526" stroke-width=".3387"/>
 <path d="m424.82,171.98h44.5l-1.08,10.42-79.48-1.44 .96-8.98h2.91l-.14,4.56 4.14.14 .56-4.98 1.65.14-.13,4.84 6.35.14 .69-4.98h4.98l-.14,4.84h6.36l.55-4.84 3.46.14-.42,4.7 3.87.14z" fill="#d0d2d4" stroke="#292526" stroke-width=".3387"/>
 <path d="m467.27,195.11-79.34-3.37 .37-9.59 80.06,1.16z" fill="#d0d2d4" stroke="#292526" stroke-width=".3387"/>
 <path d="m466.28,205.7-79.04-4.56 .78-8.35 78.96,4.34z" fill="#d0d2d4" stroke="#292526" stroke-width=".3387"/>
 <path d="m464.62,216.06-77.94-6.08 .56-7.74 78.49,5.12z" fill="#d0d2d4" stroke="#292526" stroke-width=".3387"/>
 <path d="m463.24,225.74-77.52-6.36 .55-8.43 77.94,6.63z" fill="#d0d2d4" stroke="#292526" stroke-width=".3387"/>
 <path d="m462.14,235.82-77.25-7.32 .83-8.02 77.52,7.05z" fill="#d0d2d4" stroke="#292526" stroke-width=".3387"/>
 <path d="m460.9,245.5-76.98-7.88 .83-8.02 77.25,7.6z" fill="#d0d2d4" stroke="#292526" stroke-width=".3387"/>
 <path d="m459.51,256.97-76.14-10.23 .83-8.01 76.83,8.42z" fill="#d0d2d4" stroke="#292526" stroke-width=".3387"/>
 <path d="m458.41,265.81-75.73-10.78 .55-7.18 76.01,10.5z" fill="#d0d2d4" stroke="#292526" stroke-width=".3387"/>
 <path d="m457.44,276.04-75.73-11.75 .41-8.15 76.01,11.46z" fill="#d0d2d4" stroke="#292526" stroke-width=".3387"/>
 <path d="m456.75,285.44-75.97-11.88 .65-8.03 76.01,11.47z" fill="#d0d2d4" stroke="#292526" stroke-width=".3387"/>
 <path d="m478.88,169.02-102.22.5-.51-.76-3.04-.25-9.13,114.14 2.53.25 1.52-.51 95.12,16.49 1.52-1.02 15.73-128.08z" fill="none" stroke="#292526" stroke-width="2.032"/>
 <path d="m413.65,288.49 42.54,7.03 .7-8.43-76.29-12.3-.41,8.16 3.27.54 .18-4.41 3.6.69v4.29l1.24.27 .14-4.42 6.77.97v4.42l4.84.83v-4.56l6.7,1.28-.07,4.38 3.18.55-.28-4.42 4.01.7z" fill="none" stroke="#292526" stroke-width=".3387"/>
 <path d="m406.85,291.44c-.097.554-.624.922-1.175.825l-5.005-.882c-.553-.099-.922-.623-.824-1.176 .096-.555.625-.923 1.176-.826l5.005.881c.54.11.91.64.81,1.19z" fill="#fff" stroke="#292526" stroke-width="1.016"/>
 <path d="m405.33,289.51c-.099.553-.626.922-1.177.824l-5.005-.882c-.553-.097-.921-.622-.824-1.175s.625-.923 1.177-.824l5.005.88c.56.09.92.62.83,1.17z" fill="#fff" stroke="#292526" stroke-width="1.016"/>
 <path d="m394.76,289.73c-.098.552-.625.921-1.177.824l-5.004-.882c-.553-.097-.922-.623-.824-1.176s.624-.923 1.177-.825l5.005.882c.55.11.91.64.82,1.19z" fill="#fff" stroke="#292526" stroke-width="1.016"/>
 <path d="m393.24,287.8c-.098.553-.625.922-1.176.824l-5.005-.881c-.551-.099-.921-.625-.822-1.177s.622-.921 1.175-.823l5.004.881c.54.1.91.63.82,1.18z" fill="#fff" stroke="#292526" stroke-width="1.016"/>
 <path d="m405.72,168.28c0,.562-.453,1.017-1.015,1.017h-5.081c-.562,0-1.017-.455-1.017-1.017s.455-1.017 1.017-1.017h5.081c.57.01 1.02.46 1.02,1.02z" fill="#fff" stroke="#292526" stroke-width="1.016"/>
 <path d="m419.74,167.98c0,.561-.455,1.016-1.017,1.016h-5.08c-.562,0-1.017-.455-1.017-1.016s.455-1.016 1.017-1.016h5.08c.57,0 1.02.46 1.02,1.02z" fill="#fff" stroke="#292526" stroke-width="1.016"/>
 <path d="m464.67,303.44-93.34-16.48-8.88,6.34-11.66,97.4 6.59,13.19 106.78,28.66 1.27-.51 4.57-58.08-14.97-3.81 .26-12.93 6.34,1.52z" fill="none" stroke="#292526" stroke-width="2.032"/>
 <path d="m483.4,313.83c-.407,2.234-.609,3.454-1.017,4.268s-1.624,1.828-1.624,1.828l-6.097.609s-1.625-.813-2.438-.609-.61,1.017-2.846,0c-2.235-1.016-2.845-1.422-2.845-1.422s3.659-13.819 3.862-15.85 .812-1.423-.204-3.454-1.83-2.642-1.422-3.252 .404-.609.608-1.22-.407-2.031-.407-2.031l-18.49-5.283s0,2.845-.201,4.876-1.018,3.049-1.018,3.049l-.407,2.642-3.251-1.625s-1.219-.407-3.049.812-10.361,3.657-10.361,3.657l-10.16-3.251-1.22-8.534 12.599-6.097-13.208-2.642s.204-2.642.609-5.486-.001-14.833-.204-23.571-1.013-26.009-1.421-28.447-2.236-13.614-3.455-15.443-1.828-3.251-1.828-3.251l.203-1.219s1.015-1.626 2.844-2.846 2.645-1.827 3.456-3.25 1.626-2.643 4.267-3.861 3.048-1.627 4.673-3.251c1.625-1.626 3.656-3.657 4.674-4.268s3.25-2.438 4.268-3.454-.404-1.829 2.236-1.829 2.642,0 5.486-2.438 1.827-.203 4.876-1.422 5.486-2.236 7.518-2.438 3.86-.609 7.315-1.626c3.454-1.016.203-.609 5.69-1.422s6.502-.812 8.127-2.846 1.423-2.641 4.065-3.048 3.454-.61 6.908-2.032 5.282-1.422 7.518-2.234 2.846-.813 5.283-.204 11.785,2.032 14.833,2.438 7.316,1.22 8.333,2.235c1.015,1.017.608,1.626 1.828,2.033s3.658,2.438 9.145,3.047 5.894.204 9.144,1.017 6.5,1.016 8.736,1.828 4.268,2.032 4.268,2.032 1.829-.609 3.455-1.423 1.014-.405 3.251-1.218c2.235-.813 4.876-2.236 4.876-2.236l5.69,3.658s2.235,3.455-.406,5.08-6.098,2.234-6.504,3.048 .204,3.86.204,6.096c0,2.234 1.83,3.253.813,5.486s-2.031,3.658-2.031,3.658-.812,8.737-.407,10.972c.407,2.236 1.827,16.461 2.031,17.882s.813,12.599 1.423,16.053c.608,3.455 3.859,18.288 5.283,21.946s3.048,4.673 5.079,6.501 2.845,2.034 2.845,2.034l-.203,3.858s-3.655,1.626-5.079,1.829-4.471-.404-6.097-.811c-1.624-.408-4.063-1.829-4.063-1.829l-6.502,1.218s.608,5.284-1.221,7.926-3.451,5.282-5.688,6.503c-2.235,1.218-5.894,4.672-8.332,5.892s-3.252,3.862-12.192,3.454-10.158-1.015-13.613-3.048-6.299-3.656-9.754-3.86-2.234.608-6.096,1.015-3.05,1.22-4.675.203c-1.625-1.014-3.047-1.827-3.047-1.827l-.61,1.827 1.017,7.52-7.518,7.517-6.301-.404-1.82,4.23z" fill="#fff" stroke="#292526" stroke-width="2.032"/>
 <path d="m434.43 282.74 15.85 4.26" fill="none" stroke="#292526" stroke-width="1.016"/>
 <path d="m421.83,289.04 9.348,2.032s1.421-.408 2.845-1.221 1.625-.812 3.861-1.421c2.234-.608 5.08-2.236 6.705-2.236" fill="none" stroke="#292526" stroke-width=".6773"/>
 <path d="m447.02,287c.609,1.015 1.625,1.624 1.625,2.843s-.812,1.222-.202,2.236m-2.23-3.65c-.609.812-.812,1.421-1.016,2.032m2.04-1.02c-.813,1.017-1.222,2.844-1.627,3.454s-.812,0-.812,0 .609.205.609,1.626 2.235-1.017 2.235-1.017m-3.87-4.46c-1.221-.204-2.438-1.423-2.236-.407s1.627,1.422.406,1.83-1.623.001-3.858-.203-3.253.203-2.237.812 .609,1.625 2.439,2.032 2.641.405 3.656,1.017 1.626-.611 1.83,0 2.032,1.422-.407,1.015-2.031.203-3.86.203 .812.202-1.828,0-1.625-.405-2.641-.203m.01-1.02c1.42,0-.812-.408 1.828,0s-2.438-.812-3.253.202c-.813,1.016-1.421,2.642-1.421,2.642m3.65-.61c-.811.203-1.827-.205-2.641,1.421m3.05-.4c1.625-.204.609-.001 1.625-.204 1.015-.203.608-.203 1.625-.203s-.405.204 1.018,0" fill="none" stroke="#292526" stroke-width=".3387"/>
 <path d="m431.17,291.47s.812,1.627.406,3.454 .205,2.643.407,4.269l.203,1.625" fill="none" stroke="#292526" stroke-width=".6773"/>
 <path d="m426.09,295.74c1.829-2.236 1.421-4.877 2.438-3.861s1.22.812 1.625,2.236m-6.91,1.01c1.017-1.626 1.423-2.642 2.236-3.251m-2.85,1.42c.812-.814 2.439-2.032 1.422-1.831-1.015.203-1.827,0-1.827,0m2.44-1.01-1.017.406m3.26,6.9c.813-1.014 1.627-4.267 2.033-2.845s.812,2.643 1.421,3.253" fill="none" stroke="#292526" stroke-width=".3387"/>
 <path d="m498.64,292.29c.405-1.626 0-3.859.202-6.298s-1.219-7.519-1.422-10.16-2.234-8.535-2.845-11.988c-.609-3.455-1.221-3.658-6.3-4.674-5.08-1.015-6.908-.813-10.769-1.626s-3.657,1.017-3.657,2.438-.813,2.235-.813,2.235l-1.22-.61s-.812-.61-1.421,2.641-.407,6.3-1.221,9.349-1.015,6.095-1.218,8.94c-.204,2.845-.611,2.439.202,5.081s1.22,3.859 1.016,4.47" fill="none" stroke="#292526" stroke-width="1.3547"/>
 <path d="m468.16,284.56 18.695,2.235s2.032.406 1.828,2.031 .203,2.44 1.422,3.049 4.471-.608 3.861,1.22 .203,3.659-.611,5.08-.405,2.234-.811,2.844 1.422.813-.407.61-2.438-.204-2.438-.204 .811,1.83 1.014,3.455 1.017,2.641.61,3.86" fill="none" stroke="#292526" stroke-width="1.016"/>
 <path d="m471.41,303.06 6.096-2.643m-6.92,4.87 7.519-2.642 .204-4.064-6.705,2.235m.42,7.72s3.251,1.624 2.643,4.064-2.033,6.298-2.033,6.298m2.84,1.02c.204-.609-.204-2.233.609-4.672s3.455-7.724 3.455-7.724l-2.642-1.828-1.219.813v-1.22m4.87,2.44 3.86,1.22 5.488.405" fill="none" stroke="#292526" stroke-width=".6773"/>
 <path d="m493.56,262.82c-1.422,1.016-1.421,1.219-2.438,3.453s-.001,3.861-2.235,5.08m-13.61-12.59s3.658,6.098 4.879,8.331m1.01-.61c.814-2.642-.202-2.846 2.44-4.065s2.234-2.032 3.859-2.438m1.02,11.58-1.016-1.625c-1.014-1.625-2.235-2.033-3.251-3.454 0,0-1.828.203-1.016,2.641s1.219,1.421 1.828,3.048m-.81,5.28c.609-.813 1.016-.814.812-1.829s-1.625-1.22-4.266-3.048-3.048,1.219-4.472,2.031-1.422,2.234-2.234,4.064-.61,1.828-1.829,4.062c0,0 1.627-.406 2.438,1.22s-1.425,2.234 1.421,1.017 6.707-.609 9.349-.407 4.267-.813 4.673-.609c1.287.644-3.658,0-7.112-.813s-4.471-2.234-5.485-3.86m14.63,4.47c1.422-.203-.98-1.333.609-3.454 .608-.813 2.439-1.826 3.049-.405s1.626,2.235.204,3.047-3.455.813-3.253,1.83c.204,1.015-.202,1.421-.813,1.625l-2.641-.813-1.829.813m1.42,1.21 1.827-.204 .814.813m5.49-4.26c-1.218.813-.812,1.422-1.827,2.438-1.017,1.016.405,2.437 0,3.453m-21.54-25.61c-.203.813.611,4.676.407,7.113s-1.22,0-1.424,3.454-.204,5.894-.609,6.503m-.41-17.26c-.407,1.422-1.219,4.673-.813,6.501s1.423,3.657.61,5.284-.406,3.048-1.016,4.877-1.425,2.642-1.425,2.642m-.19.62c1.218-1.017 1.626-1.22 2.642-1.22m-1.63,13.61s.203-1.829.812-1.829 1.22.609 1.627,1.625-.002,1.221 2.031,1.221 4.469-.408 4.267.404m-8.13.22 4.672.204" fill="none" stroke="#292526" stroke-width=".3387"/>
 <path d="m479.33,297.98 3.047-1.016c2.438-.406 4.471.203 5.283,2.031s2.033,2.438 2.033,2.438" fill="none" stroke="#292526" stroke-width=".6773"/>
 <path d="m475.68,286.8c1.829,3.251 1.626,3.659 3.658,5.893s3.251,3.658 3.251,3.658m4.87-5.89c.812,1.827 2.032,3.047 3.454,3.251s2.032.203 1.627,1.625-.611,3.048-1.017,3.861m-10.76.61c2.438,2.845 2.438,3.454 2.438,4.673m-50.6-22.76c3.859-1.628 14.223-6.301 18.084-7.112s7.927-3.049 11.177-4.674l7.314-3.658m-.2,6.09c-3.859,2.032-12.8,6.3-12.8,6.3s-11.786,2.642-15.036,3.656m10.97-.81 12.394-1.626 2.642-.812m-16.04,5.48c4.472-1.626 14.224-3.659 15.849-3.251m-9.15-.4c2.234-.61 7.723-3.252 8.941-3.861m-10.16,8.53c3.861-1.421 2.845-2.438 6.706-2.234m-1.22,2.03c.812,0 4.471.406 5.08.406m-6.1,2.23c1.424,0 2.235.609 4.877.609" fill="none" stroke="#292526" stroke-width=".3387"/>
 <path d="m414.92,203.29c1.626.406 2.438.406 5.08-.204s4.063-.405 5.284,0 3.251.406 4.875.406c1.627,0 5.285-.406 6.098.407s3.859,1.423 5.281,1.423 1.832-.814 3.861-.406 3.251.812 4.471,1.219 4.267.609 6.096.609 3.861.406 6.3,1.017 2.234-.407 4.672.609 4.065,2.438 7.316,2.642 6.706.203 9.145.608c2.438.408 5.079,0 6.3.61s3.047.406 3.047.406l.407,1.22s-.408,2.438.608,6.096 2.643,7.113 2.237,9.956c-.408,2.846.201,9.552.201,9.552s.203,12.395.203,17.679 1.424,7.314 2.438,10.566l8.739,6.096" fill="none" stroke="#292526" stroke-linecap="round" stroke-width="1.016"/>
 <path d="m498.84,267.7-1.625,1.829m-.62-8.74-1.626,1.421m4.07,9.96c1.829,1.627 6.502,5.285 7.111,5.895s1.22,1.42.609,2.233-.405,1.018-2.438.204-4.877-3.455-4.877-3.455m9.56,3.26c0,2.032.406,2.642-1.016,3.862s-7.315,8.533-7.315,8.533m6.1-3.65c.61,1.016 3.456,3.657 4.472,3.454 1.015-.204 7.924-2.844 7.924-2.844m-2.84-7.93c1.423,2.438 2.846,4.671 4.066,5.688s.811,3.049.811,3.049 4.268,3.047 6.096,3.251m.4,1.22c.405,1.22 1.219,2.846 2.844,3.862m-24.78-9.55c-1.627,1.221-2.439.814-1.829,2.235s.812,1.016.406,2.032" fill="none" stroke="#292526" stroke-width=".3387"/>
 <path d="m493.02,212.22s-.173-.914 2.875-1.727 3.756-.7 5.789-2.122 3.454-1.83 5.487-2.438 2.843-1.016 6.096-3.048 6.705-3.455 7.924-4.063 2.439-1.018 4.877-1.221 2.032-.812 6.3-2.234 5.69-1.22 8.129-2.033 8.941-3.453 12.191-4.672 5.485-1.424 3.25-2.032c-2.233-.609-1.016,1.015-2.233-.609-1.221-1.626-4.268-3.252 0-4.064s5.487-.813 8.128-.406 8.126.406 8.126.406" fill="none" stroke="#292526" stroke-width="1.016"/>
 <path d="m546.79,191.1c3.456,1.016 6.298,1.626 7.925,2.844s4.877,4.269 6.909,4.269 2.845-.407 2.845-.407 1.424,0 .406,1.422-1.829,3.251-1.017,5.282 .204,3.049.204,3.049m-2.44-8.53c-.609,2.031-1.219,1.626.204,3.658s1.828,2.032 1.624,3.657m-5.89-18.29c-1.219,2.642-2.643,6.503 2.844,9.145m-.19-9.56c2.438-1.83 2.844-2.439 4.267-2.236m-8.95-2.43c3.861-.204 11.786-1.017 10.363,2.642m3.05,1.22-4.675,4.674s5.08-1.625 6.299-.812m-5.68,1.22 3.251,4.673m-1.83.2s1.626,10.565 1.626,11.582m-35.56-13 20.32,11.785m-4.47-5.28s8.13,4.064 11.178,5.081 6.908,3.048 6.908,3.048m-2.04,3.86-9.754-5.486m11.78,2.44c-1.22,1.017-4.064,2.845-1.016,5.893m1.43-4.67s3.453,22.555 3.25,28.854-.405,10.971.814,13.004 2.234,2.032 2.234.204m-32.3-58.71 21.134,10.159m-29.06-8.13c.201.61 7.518,6.503 7.518,6.503m7.93,2.44-5.282,3.86s-3.455,7.518-2.642,11.786m9.14-14.63c-.204,1.626-1.017,10.362-1.221,11.379m8.13,7.92c-1.627-3.454-2.235-5.894-1.221-6.097 1.017-.203 2.643,3.049 3.658,5.486m-3.26-6.5c1.828-.813 1.828-1.626 3.454-1.626m-.6-4.46c1.627,1.625 5.689,5.893 5.689,5.893m-5.08.2c2.032,0 7.315-.205 5.689,2.641m-39.42-24.38 7.316,62.993m-11.59-61.16s.202,6.097.202,6.908 1.83,1.018 3.048,4.675m5.69-1.64c3.861,1.423 4.876,1.626 5.893,3.861m21.74,16.87-21.743,24.993m32.11-19.7-24.791,18.287m21.54-27.85s-14.834,20.929-19.71,24.181m-62.39-83.51 9.754,3.047m1.63-.61s4.875-2.032 5.892-2.642 1.422-.61 4.878-.61 21.134.408 21.134.408m-18.08-3.87c2.642,1.626 3.657,2.236 5.079,2.236m30.48,15.85c-2.844,1.015-1.423.608-2.642-.407s-7.315-1.829-8.94-3.86c-1.626-2.032-3.251-1.829-7.112-4.268s-2.642-4.673-4.875-4.673c-2.236,0-11.787-.408-16.055-.204s-5.079,2.032-8.533,4.064c-3.455,2.032-1.627,1.828-2.235,4.876 0,0 2.031-.812 5.282-1.219s3.861,1.827 4.674-1.016c.812-2.846 1.219-4.47 1.829-4.674s7.112-.812 7.112-.812l9.346,1.017m35.76,5.48c-3.048.812-4.673.406-6.096,1.423s-4.268,2.846-5.081,3.251m1.42.41c2.234-1.22 3.452-2.846 5.079-3.252s5.079-1.016 5.079-1.016" fill="none" stroke="#292526" stroke-width=".3387"/>
 <path d="m544.56,180.32s4.269-.203 6.908-1.016 8.333-.204 10.364-.204m5.41-4.08c-1.424.812-3.375.628-3.375.628l1.829,1.422m1.91-3.27c-2.438,1.222-4.754,1.24-4.754,1.24m3.72,2.18c-2.644.811-2.502.466-2.502.466l-2.234-1.422-3.049,1.422m5.28-.01c.203,1.22-.204,2.032-.204,2.032s-3.454.61-4.267,1.016" fill="none" stroke="#292526" stroke-linecap="round" stroke-width=".3387"/>
 <path d="m519.97,169.56s-3.454,2.845-2.844,5.486 2.438,5.893 4.672,7.722c2.236,1.829 3.252,3.048 3.252,3.048m-5.48-8.75c1.422.61 2.233,2.438 5.282,2.236s3.252,2.642 4.064,4.47m-1.83-7.52c.812-.204 2.846,2.438 2.44,4.268s3.451,5.281 3.25,6.704m-19.71-1.42c3.25,1.422 8.534,1.626 10.973,2.235s3.658,1.219 1.626,2.032-8.128,2.643-9.55,3.25-5.69,1.626-5.69,1.626l-3.454-1.828m-24.39-7.31c.609,0 4.876,1.422 4.876,1.422l7.112,3.252s-4.471-.406-5.893.406-3.455,1.626-3.455,1.626m.41.2s1.22,1.016 4.673-.408 7.722-.812 7.722-.812l10.363,3.454m-8.32-16.05 11.582-4.064m1.83-3.25s.611,6.096 4.471,9.754 4.673,3.86 4.673,3.86m-4.87,1.22c.813-.609 5.894-1.422 5.894-1.422" fill="none" stroke="#292526" stroke-width=".3387"/>
 <path d="m475.69,216.57c.986.083 4.107.164 6.08.985s3.86,2.873 4.108,3.696 0,.902-.33,2.382 0,3.533-.657,4.272-1.231,2.136-2.793,2.301c-1.562.163-6.736.163-6.736.163" fill="#fff" stroke="#292526" stroke-linecap="round" stroke-width="1.3547"/>
 <path d="m474.05,236.61s3.202-.164 4.106-.164 2.628.247 3.122.987 .657.655 1.396,1.888 1.396,2.054 1.396,2.054 .904,2.136 0,3.942-.656,2.466-1.396,2.63c-.739.165-7.476,2.629-7.476,2.629" fill="#fff" stroke="#292526" stroke-linecap="round" stroke-width="1.3547"/>
 <path d="m482.59,243.68 2.71-2.8 12.65,1.15 .74,10.27-3.21,2.14-12.32-2.14z" fill="#fff" stroke="#292526" stroke-width="1.016"/>
 <path d="m482.59 243.68 11.99 1.15" fill="none" stroke="#292526" stroke-width=".3387"/>
 <path d="m493.84,241.29 5.18-3.53 1.48.41 .49.66 1.15,11.99-5.18,3.86-1.48-.24z" fill="#fff" stroke="#292526" stroke-width="1.016"/>
 <path d="m500.5 238.17-5.34 3.62 1.56 12.56" fill="#fff" stroke="#292526" stroke-width=".6773"/>
 <path d="m501.81,247.45 3.29-2.13 .24,2.71-3.2,2.79z" fill="#fff" stroke="#292526" stroke-width="1.016"/>
 <path d="m505.18,244.99-1.07-.16-2.38,1.55" fill="#fff" stroke="#292526" stroke-width=".6773"/>
 <path d="m482.03,224.8c-.848,3.722-4.608,6.121-8.402,5.363-3.799-.764-6.187-4.396-5.338-8.117s4.605-6.121 8.4-5.363c3.79.77 6.18,4.4 5.34,8.12z" fill="#fff" stroke="#292526" stroke-width="1.3547"/>
 <path transform="matrix(.978,.2087,-.2087,.978,57.064,-94)" d="m477.66 223.43a3.655 3.821 0 1 0 -7.31 0 3.655 3.821 0 1 0 7.31 0" fill="#8a8f9d" stroke="#292526" stroke-width=".3387"/>
 <path d="m493.76,241.46 1.56.41" fill="#fff" stroke="#292526" stroke-width=".3387"/>
 <path d="m462.38,223.38s-3.04-2.381-3.697-2.71-2.136-.904-3.039-2.054-1.891-2.053-2.137-1.725-.328,5.503-.821,4.024-.575-5.338-.575-5.338l-7.063-2.876c-2.236-.1-5.916,4.041-6.836,6.341s-2.761,5.521-2.987,6.439 1.608,3.219 2.527,3.451m29.9-6.2s-3.86.41-4.188.41l1.971-2.545" fill="none" stroke="#292526" stroke-width=".3387"/>
 <path d="m465.5,247.45c-1.396.823-1.068.741-3.203,1.07-2.137.328-3.205.328-4.026,1.396s-1.478,1.726-1.889,1.972m-2.21-6.16c1.972-.246 2.218-.163 3.777.331s3.286.737 4.108.902c.82.162 2.793-.165 3.203-.74l.412-.576m-.83-.81c-1.396.902-1.807,1.479-3.122,1.067s-1.643-.411-1.643-.411 .163-.576-.739-1.068-1.971-2.791-2.136-3.367m-.73-8.79c1.23,1.067 1.23,1.396 1.806,1.807s2.219,1.727 3.531,3.613c1.316,1.891.658,1.809 1.726,1.891m.81,1.15c-1.231.164-1.644-.084-.738,1.067 .902,1.149 1.56,1.15 1.56,1.725m-7.88-9.04c1.149.984.74.492 1.313,2.055s.082,1.232 1.069,2.053c.985.821 1.149.657 1.478,1.89s.986,2.464.986,2.464m-8.38-11.18c1.396,1.232 2.877,2.794 2.958,4.355s.492,3.367 1.643,4.601 1.97,2.466 2.792,3.121c.821.656 1.891,1.724 2.054.491m-9.86-11.66c.574.986.986.577 1.066,2.22s.412,2.217.987,2.711m-8.46-8.38c1.314-.165 2.219-.575 3.041.163s1.56,1.644 2.053,1.644 1.067-.657.985-1.231m2.46.5c.165.739.986,1.562 1.561,1.643m-3.53-1.56c-.901,1.232-.739,1.479-1.972,1.644s-2.548-.084-2.876.327m3.95.33c-.332,1.233-.166,1.726-.577,2.63s-.246,1.067 0,2.301 .082,1.479.082,1.479m-.66-4.77c-1.313,1.069-1.643,2.221-1.231,2.877m-2.54-4.44c-.576.246.491,1.231.902,2.301s.41,2.053.41,2.053m-2.88-3.28 2.054,3.121m-10.18-6c1.232.245 1.89.984 3.123.081m1.07-.49c.985-.738 1.396-.985 2.219-.492s.738.165 1.56.081 1.396.74 2.136,1.151m-.74.58c-1.396-.493-2.627-.739-2.873-.247" fill="none" stroke="#292526" stroke-linecap="square" stroke-width=".3387"/>
 <path d="m432.39,232.34s.204-.61 2.033.608 12.802,6.705 13.816,7.519c1.017.814 2.438,1.425 2.845,4.065s1.219,4.674 1.219,6.704-1.016,5.082-3.25,7.316" fill="none" stroke="#292526" stroke-width=".3387"/>
 <path d="m426.16 216.24" fill="none" stroke="#292526" stroke-linecap="round" stroke-width="1.016"/>
 <path d="m420.24,227.99 8.955,1.478s4.929.926 6.9.82c3.12-.164 7.557-2.052 9.445-2.544 1.756-.459 5.377-.352 9.035,1.477s6.142,3.675 7.969,5.504 2.79,4.586 3.367,7.641c.575,3.038.572,7.751.246,10.843-.163,1.562-2.052,5.584-5.257,7.312-3.76,2.025-4.125,1.9-6.157,2.511s-3.042.938-4.684,1.186c-1.422.212-9.12,2.137-9.12,2.137" fill="none" stroke="#292526" stroke-linecap="square" stroke-width="1.3547"/>
 <path d="m462.22,235.38s.082.74-.084,1.643c-.163.904-.246,2.136.248,1.315s.903-1.562.903-1.562" fill="none" stroke="#292526" stroke-linecap="square" stroke-width=".3387"/>
 <path d="m440.37,266.35 .16,3.78-2.71,2.54-23.08-5.5-4.36-38.61 2.22-1.81 7.06,1.07" fill="#fff" stroke="#292526" stroke-linecap="square" stroke-width="1.3547"/>
 <path d="m410.63 228.56 21.27 3.62" fill="none" stroke="#292526" stroke-linecap="square" stroke-width=".6773"/>
 <path d="m437.82,272.67-.58-8.38" fill="none" stroke="#292526" stroke-linecap="square" stroke-width=".3387"/>
 <path d="m428.74,239.25 3.657-6.908 3.251-1.424s14.021,7.723 15.241,8.536 1.743,1.884 2.234,3.656c1.016,3.658.609,3.048 1.423,6.502 .466,1.979 0,4.472-1.625,5.69-2.541,1.904-12.193,10.973-12.193,10.973l-5.892-4.267-6.097-22.353v-.41z" fill="none" stroke="#292526" stroke-width="1.3547"/>
 <path d="m447.45,246.98c1.384,5.466-1.052,10.664-5.442,11.616s-9.071-2.712-10.455-8.175c-1.388-5.467 1.049-10.667 5.438-11.618 4.38-.95 9.07,2.72 10.45,8.18z" fill="none" stroke="#292526" stroke-width="1.016"/>
 <path d="m445.99,247.25c1.127,4.629-.857,9.035-4.441,9.841-3.575.804-7.395-2.301-8.523-6.928s.855-9.04 4.435-9.846c3.58-.8 7.4,2.3 8.53,6.94z" fill="none" stroke="#292526" stroke-width=".3387"/>
 <path d="m445.76,247.02c1.025,4.251-.779,8.303-4.041,9.044-3.254.737-6.73-2.112-7.759-6.367s.778-8.309 4.037-9.046c3.25-.73 6.73,2.12 7.76,6.38z" fill="#292526" stroke="#292526" stroke-width=".3387"/>
 <path d="m440.48,257.05c-2.715-.676-5.172-3.331-6.039-6.888-.988-4.052.407-7.933 3.169-9.379" fill="none" stroke="#292526" stroke-width=".3387"/>
 <path d="m480.48,245.13c-.89,3.825-4.839,6.29-8.82,5.511-3.987-.782-6.494-4.516-5.604-8.338 .89-3.825 4.835-6.29 8.819-5.511s6.49,4.52 5.6,8.34z" fill="#fff" stroke="#292526" stroke-width="1.3547"/>
 <path transform="matrix(.978,.2086,-.2086,.978,61.272,-93.133)" d="m475.78 243.88a3.656 3.821 0 1 0 -7.312 0 3.656 3.821 0 1 0 7.312 0" fill="#8a8f9d" stroke="#292526" stroke-width=".3387"/>
 <path d="m567.91 176.36" fill="none" stroke="#292526" stroke-width=".3387"/>
 <path d="m570.65,186.42-4.754-4.451 1.096-2.561s.306-6.54 5.244-7.741c2.255-.548 4.473,1.108 5.059,1.646 .733.671 2.073,1.828 2.073,1.828l-8.72,11.27z" fill="#fff" stroke="#292526" stroke-width="1.016"/>
 <path d="m573.16,178.39c.102-.603.365-1.23.796-1.82 1.252-1.719 3.448-2.469 4.902-1.677 .729.397 1.133,1.105 1.197,1.929l-1.603,7.16-4.938.487c-.548.061-1.707.671-2.012.977-.307.304-.731.976-.731.976l2.38-8.04z" fill="#fff" stroke="#292526" stroke-width="1.016"/>
 <path d="m577.78,83.5-32.512,3.759-.508,7.824 16.344-2.002c-.019.044-.025.071-.025.071l7.498,67.057c.183,2.071 1.463,12.129 1.523,12.984 .061.854.061,1.097.671,1.769s2.012.548 2.743.182c.73-.364 1.524-.12 1.279-2.316-.243-2.194-1.646-13.35-1.646-13.35s-7.356-65.309-7.356-66.528c0-.163-.018-.306-.04-.438l9.691-1.188 2.35-7.816z" fill="#fff" stroke="#292526" stroke-width="1.3547"/>
 <path d="m562.64,91.831c.913-.304 2.234-.101 2.846,0m-18.8-.508c3.149-1.219 6.503-1.422 8.433-1.727 1.932-.305 2.642-.305 3.861-.813m.82,1.117c1.624-1.626 2.233-2.642 3.962-2.845s2.642-.406 3.557-1.219m-6.2,3.861c2.134-1.321 2.438-1.727 3.658-1.931s3.858-2.235 4.571-2.844m-22.56,5.182c2.946-1.829 5.894-2.337 8.128-2.946 2.236-.61 3.252-.305 4.472-.915m-13.92,2.744c2.134-1.016 4.064-2.033 5.386-2.236m26.31-2.235c-1.829.407-2.134-.406-3.252,0s-.102.203-2.539,1.524-4.979,2.337-6.909,3.251m-12.29,4.369c2.032-.914 2.335-1.117 4.673-1.321s3.151.102 5.689-1.219 4.064-2.438 6.402-2.946m7.32-2.439c-1.422-.204-2.844-.304-2.234.204s2.032.609.914,1.219m-1.32,0c-1.421.406-3.86,1.625-2.641,1.93m3.75.508c-1.118.305-1.827.407-2.539.407m.01-.814c-.916.203-3.048.102-2.134.508s2.742.813 1.524.915-2.236.103-2.846.203-.407.305-1.626.407m-2.94,1.219c-.915.406-1.321.305-2.136,0m1.73.812 1.729,15.037m-3.46-14.732 2.643,13.919m-1.11-.41c.915,1.118 2.134,1.829 1.423,2.337s-1.015.915-1.015.915m1.94-.81s1.015,13.411 1.524,15.037 .812,2.235.812,5.486 .305,10.77.712,12.904 1.525,3.555 1.117,5.283 1.117,5.994 1.828,7.925m-2.34-5.38c-.305,1.93-.607,3.354-.101,4.369 .506,1.016 1.625,2.54 1.625,5.181s-.102,10.567.305,12.191m.1-11.18c.104.305 1.525,4.877 1.932,6.198m-2.13-9.55c.916,2.336 1.728,3.758 2.032,5.486m.1,5.08c-.814.813-1.624.913-1.219,1.93 .404,1.016.915,2.134.915,2.642m-7.61-60.35s.304,9.551.405,11.583 .608,2.235.915,3.048c.304.813.405,4.572.405,7.519s.609,8.228.914,9.347c.305,1.118-.406,2.946.203,3.962s.812,2.134.407,3.353-.407,3.454-.103,4.369c.307.914 1.016,4.368.712,6.502-.306,2.134.608,3.454.812,4.572s.406,5.994.915,6.604 1.017.813 1.422.712m-8.43-62.98c.609-.712 1.016-.712 1.016-1.22s.001,2.032-.507,2.845m1.52-5.48c.507.813.608,1.219.404,1.93s.204.508.61,1.829m-.4,2.33c.812,1.117.305,2.133.712,3.149s.71,1.829 1.015,3.658m-4.17-12.19c-.304.813-.711.915-.609,1.626" fill="none" stroke="#292526" stroke-width=".3387"/>
 <path d="m535.62,53.935 3.96-.813 1.63.813 18.08-1.118 .2-1.016 1.73-.305 16.56,31.699-32.81,3.963z" fill="#fff" stroke="#292526" stroke-width="1.3547"/>
 <path d="m559.8,51.902 16.662,31.292m-3.35-4.571 2.233,4.268m-12.29-22.861 8.865,16.444m-1.35,2.454 2.031,4.267m-11.38-23.266 7.953,16.185m-2.06,3.322 1.83,4.166m-10.66-23.572 7.445,16.354m-2.16,3.154 2.032,4.673m-10.57-24.079 7.218,16.453m-1.93,3.358 1.93,4.572m-10.47-24.282 7.205,16.723m-2.13,3.293 1.931,4.572m-10.26-24.588 7.084,16.975m-2.1,3.446 1.981,4.624m-10.26-24.587 7.025,16.831m-10.57-17.338 9.7,25.45m-12.75-32.054 10.719,32.46m7.26-32.766 1.575,3.2m-4.93-2.996 1.575,3.2m-4.88-2.946 1.575,3.2m-4.93-3.098 1.574,3.2m-5.02-3.098 1.575,3.2m-4.93-3.708 1.319,3.453m.05.456 19.963-.558m-1.78-3.81 1.575,3.2m-19.1,3.963 21.031-.609m9.02,16.712 .627-.05m-23.62,1.878 22.993-1.829m-21.62,4.522 23.671-2.134" fill="none" stroke="#292526" stroke-width=".3387"/>
 <path transform="matrix(.9982,-.0594,.0594,.9982,-4.4291,30.903)" d="m544.84 89.952a27.255 54.615 0 1 0 -54.51 0 27.255 54.615 0 1 0 54.51 0" fill="#fff" stroke="#292526" stroke-width="2.032"/>
 <path d="m541.75,88.333c1.795,30.11-11.904,56.02-21.726,56.02-14.582,0-27.855-22.672-29.648-52.782s10.008-56.138 22.804-56.138c11.92.003 26.79,22.794 28.58,52.903z" fill="none" stroke="#292526" stroke-width=".6773"/>
 <path d="m510.8,87.509 15.773-27.38 4.465-7.738m-30.36,37.202 13.69-16.964v-4.167l3.868-5.953 7.44-8.034 2.977-4.464m-2.98,4.464 3.869-1.787m-15.18,19.941 11.011-12.202m8.04-1.191-.298,2.977-2.976,1.189-2.381,5.656-1.786.893v1.488l-5.06,8.928-8.035,4.764m17.27-13.097 .893-2.084 4.464-5.06m-.89,26.191 3.571-2.678 1.786-3.869v-3.571l-4.465,7.44-2.679,2.38m5.36-19.047-6.547.595s-5.655,5.061-6.846,5.952l7.737-2.082 6.251-3.274-.893,3.573s-5.952,4.463-9.227,6.249c-3.274,1.786-13.393,5.06-14.583,4.762s-3.274,0-3.274,0l-8.63,3.273-.297,1.191 2.083,1.489 10.416.893 9.821,13.986 14.285,2.977m-9.23,15.47-18.75-16.369-10.415-14.879 .298-4.167 1.487,1.786 2.381,3.274 3.869,1.19 1.784,2.975m20.25,23.22 .893-3.573 5.06-4.165 2.381-2.978m-2.68,8.34-3.274,3.869-3.868,2.679-2.679.894-2.976,2.974-2.977,3.87 .298,2.083 1.786-.893 4.166.594m4.76-17.25 1.191,4.167 1.784,2.083-4.464,7.142-.595,3.274m-15.48-87.197 4.166-7.738 .595-3.274m-13.69,41.369 5.951-7.441 3.869-16.071 5.059-6.845 1.191-9.822m-22.91,53.273-1.787,5.952s4.465,8.333 4.167,12.499 0,5.358 0,5.358l5.059,8.036m4.16,8.92s2.084,5.656 2.977,6.845l6.25.299 7.143-1.191 .893.594m-12.2.6-3.274-7.144s4.464,2.084 6.548,4.167m-.9,5.05s-.298-1.19 2.977-.893 5.06.297 5.06.297m-27.98-25.3 3.274-.298m-1.48,3.87 7.143,5.951 2.975,5.954-1.784-6.548-.298-2.678-2.679-4.167s-1.19-3.273-1.19-4.166m7.14,13.11c2.977.298 8.929.893 10.119,1.488l2.381.892-2.083-2.082-7.44-5.357m-21.73-40.77c1.488,5.358 4.464,6.845 6.549,9.523h1.189l.892,7.143 3.572,12.499 3.571,8.631 2.975,9.227 3.869,4.166 7.738,6.25m-30.35-49.118c1.488,5.06 2.976,6.547 4.464,8.334 0,0-.298,5.655-.596,7.738m8.64-62.791-1.19,13.392-3.57,14.285v7.44m8.63-38.391 .892,11.309-3.869,8.334-.894,11.903-2.679,5.061-1.784,5.951 .893,5.655c.892-1.785 13.392-44.344 13.392-44.344" fill="none" stroke="#292526" stroke-width=".3387"/>
 <path d="m493.84,82.748s3.871,6.845 4.465,7.738v.296s1.487-.892-.893-7.142-3.274-19.642-2.679-25.595" fill="none" stroke="#292526" stroke-width=".3387"/>
 <path d="m490.81,63.485-9.17.811 2.08-51.785 9.23-1.489z" fill="#d0d2d4" stroke="#292526" stroke-width=".3387"/>
 <path d="m386.7,65.188 2.38-29.463 7.14-9.227 4.17-.595-3.87,38.095z" fill="#d0d2d4" stroke="#292526" stroke-width=".3387"/>
 <path d="m385.8,71.14 10.72-1.488-4.17,38.388-10.41.9z" fill="#d0d2d4" stroke="#292526" stroke-width=".3387"/>
 <path d="m381.94,116.38 9.22-1.19-3.57,38.69-5.36-.3-3.87-6.25z" fill="#d0d2d4" stroke="#292526" stroke-width=".3387"/>
 <path d="m380.75,114.29 11.21-1.025-4.365,45.071s-6.1.14-6.25,0c-.687-.643-4.465-8.035-4.465-8.035l3.87-36.01z" fill="none" stroke="#292526" stroke-width=".3387"/>
 <path d="m399.79,109.53 3.57-.3-.89,9.23-3.57.3z" fill="#fff" stroke="#292526" stroke-width=".3387"/>
 <path d="m404.56,58.045 4.16-.892-1.19,9.82-4.17.596z" fill="#fff" stroke="#292526" stroke-width=".3387"/>
 <path d="m475.39,38.701 2.97-.595-.04,4.348-3.26.305z" fill="#fff" stroke="#292526" stroke-width=".3387"/>
 <path d="m470.06,122.65h2.77l-.08,3.99h-2.64z" fill="#fff" stroke="#292526" stroke-width=".3387"/>
 <path d="m459.82,10.958 1.63-.305-.1,2.336-1.63.204z" fill="#fff" stroke="#292526" stroke-width=".3387"/>
 <path d="m466.73,155.23 5.688-.203-.304,5.588s-5.688.304-5.588,0c.1-.31.2-5.39.2-5.39zm-77.52,3.05s3.861-.304 4.878-.304 1.626.102 2.032-.914 .305-1.322 1.523-1.422l13.615-.508c2.134.508 2.337.406 2.438,1.117s.203.712 1.32.712 8.536.202 9.652.102 2.539-.814 2.946-1.728c.405-.915.914-1.524 2.642-1.727s6.808-.406 7.721-.306 1.729.915 2.032,1.118c.306.204 0,.812 1.016-.102s1.727-1.218 3.354-1.118 28.346-1.016 28.346-1.016" fill="none" stroke="#292526" stroke-width=".3387"/>
 <path d="m460.03,165.69c0,.561-.453,1.016-1.014,1.016h-5.083c-.56,0-1.014-.455-1.014-1.016s.454-1.016 1.014-1.016h5.083c.55.01 1.01.46 1.01,1.02z" fill="#fff" stroke="#292526" stroke-width="1.016"/>
 <path d="m415.94,166.4c0,.561-.456,1.017-1.017,1.017h-5.081c-.561,0-1.016-.456-1.016-1.017s.455-1.016 1.016-1.016h5.081c.56.01 1.02.46 1.02,1.02z" fill="#fff" stroke="#292526" stroke-width="1.016"/>
 <path d="m401.91,166.51c0,.561-.453,1.016-1.014,1.016h-5.082c-.562,0-1.016-.455-1.016-1.016s.454-1.016 1.016-1.016h5.082c.56,0 1.01.45 1.01,1.02z" fill="#fff" stroke="#292526" stroke-width="1.016"/>
 <path d="m462.87,167.83c0,.505-.408.914-.913.914h-4.573c-.504,0-.913-.409-.913-.914s.409-.916.913-.916h4.573c.5,0 .91.41.91.92z" fill="#fff" stroke="#292526" stroke-width="1.016"/>
 <path d="m384.64,71.002c0-1.219.407-1.828 1.628-1.828s10.362-1.016 10.362-1.016l-4.471,43.484-11.989,1.016 4.47-41.658zm11.99-4.266s-9.146.812-10.161,1.016c-1.016.203-2.234,1.219-2.234,1.219s2.843-29.057 3.047-31.496 1.22-4.876 2.438-6.705 3.252-4.877 3.861-5.689 .812-1.422 1.422-1.219 1.219,0 1.219,0-.204.813 0,1.422 .609,0 1.423,0 3.658-.406 3.658-.406l-4.68,41.858z" fill="none" stroke="#292526" stroke-width=".3387"/>
 <path d="m456.89,313.07-78.08-15.47 .41-3.6 77.8,15.06z" fill="#d0d2d4" stroke="#292526" stroke-width=".3387"/>
 <path d="m456.34,322.47-78.5-16.17 .83-7.6 78.22,15.75z" fill="#d0d2d4" stroke="#292526" stroke-width=".3387"/>
 <path d="m455.37,331.73-78.77-16.45 .83-7.6 78.49,16.03z" fill="#d0d2d4" stroke="#292526" stroke-width=".3387"/>
 <path d="m454.68,340.99-79.05-16.45 .83-7.6 78.77,16.03z" fill="#d0d2d4" stroke="#292526" stroke-width=".3387"/>
 <path d="m453.99,351.21-79.47-17.41 .83-8.15 79.19,16.99z" fill="#d0d2d4" stroke="#292526" stroke-width=".3387"/>
 <path d="m452.98,360.84-79.46-18.08 .83-8.16 79.18,17.67z" fill="#d0d2d4" stroke="#292526" stroke-width=".3387"/>
 <path d="m452.31,370.58-79.69-18.42 .83-8.15 79.41,18.01z" fill="#d0d2d4" stroke="#292526" stroke-width=".3387"/>
 <path d="m451.41,380.32-79.91-18.86 .83-8.16 79.63,18.46z" fill="#d0d2d4" stroke="#292526" stroke-width=".3387"/>
 <path d="m444.24,399.25-74.98-18.65 .94-8.48 74.71,18.22z" fill="#d0d2d4" stroke="#292526" stroke-width=".3387"/>
 <path d="m449.17,411.12-80.76-21.04 .9-8.56 80.53,20.36z" fill="#d0d2d4" stroke="#292526" stroke-width=".3387"/>
 <path d="m448.28,421.64-80.99-21.82 .9-8.56 80.75,21.14z" fill="#d0d2d4" stroke="#292526" stroke-width=".3387"/>
 <path d="m448.13,427.37-87.11-23.18 .45-5.04 86.91,23.44z" fill="#d0d2d4" stroke="#292526" stroke-width=".3387"/>
 <path d="m450.63,390.4-80.25-19.2 .83-8.49 79.97,18.79z" fill="#d0d2d4" stroke="#292526" stroke-width=".3387"/>
 <path d="m378.95,282.4-4.423-.827v-3.595l4.696.69-.28,3.73zm-3.05-113.32-.553.829-9.258,112.49" fill="none" stroke="#292526" stroke-width=".3387"/>
 <path d="m377.56,178.2 5.39.28 3.59,6.35-1.1,19.21-1.66,1.66-7.88-.28z" fill="#d0d2d4" stroke="#292526" stroke-width=".3387"/>
 <path d="m375.35 210.26 9.26 1.1-2.63 31.37-9.25-1.1z" fill="#d0d2d4" stroke="#292526" stroke-width=".3387"/>
 <path d="m372.31,245.5 9.12.96-2.9,29.16-8.98-.96z" fill="#d0d2d4" stroke="#292526" stroke-width=".3387"/>
 <path d="m386.19,283.91-1.93-.41 .08-2.21 1.93.41z" fill="#fff" stroke="#292526" stroke-width=".3387"/>
 <path d="m412.8,288.34-1.93-.42-.14-2.35 1.93.42z" fill="#fff" stroke="#292526" stroke-width=".3387"/>
 <path d="m393.46,286.82-3.6-.56v-3.45l3.6.55z" fill="#fff" stroke="#292526" stroke-width=".3387"/>
 <path d="m405.27,288.47-3.59-.55 .07-3.32 3.59.56z" fill="#fff" stroke="#292526" stroke-width=".3387"/>
 <path d="m365.68 294.69 6.49-4.69 6.64 1.1-4.7 34.96-12.02-2.9z" fill="none" stroke="#292526" stroke-width=".3387"/>
 <path d="m366.51 298.01 4.97-5.11 6.36 1.24-4.28 30.68-10.09-2.49z" fill="#d0d2d4" stroke="#292526" stroke-width=".3387"/>
 <path d="m458.54,309.06 .14-1.65 2.77.41 .27-3.73 1.52.28-3.18,51.54-4.56-1.24z" fill="#d0d2d4" stroke="#292526" stroke-width=".3387"/>
 <path d="m453.84,330.62-2.2-.41 .13-2.49 2.21.42z" fill="#fff" stroke="#292526" stroke-width=".3387"/>
 <path d="m385.02,331.04-4.28-.97 .69-7.6 4.29.97z" fill="#fff" stroke="#292526" stroke-width=".3387"/>
 <path d="m380.21,373.37-4.28-.97 .69-8.27 4.28.97z" fill="#fff" stroke="#292526" stroke-width=".3387"/>
 <path d="m372.82,407.3-2.04-.63 .13-4.69 2.04.63z" fill="#fff" stroke="#292526" stroke-width=".3387"/>
 <path d="m401.04,414.58-2.05-.64 .13-4.69 2.05.64z" fill="#fff" stroke="#292526" stroke-width=".3387"/>
 <path d="m428.14,422.08-2.05-.64 .13-4.68 2.05.63z" fill="#fff" stroke="#292526" stroke-width=".3387"/>
 <path d="m450.31,400.58-4.84-.97 .69-8.83 4.84.96z" fill="#fff" stroke="#292526" stroke-width=".3387"/>
 <path d="m393.38,251.16-5.39-.83 .21-6.97 5.4.83z" fill="#fff" stroke="#292526" stroke-width=".3387"/>
 <path d="m396.36,210.54-4.84-.42 .42-7.6 4.83.42z" fill="#fff" stroke="#292526" stroke-width=".3387"/>
 <path d="m392.4,249.63-3.28-.5 .14-4.09 3.29.51z" fill="#fff" stroke="#292526" stroke-width=".3387"/>
 <path d="m416.4,173.5h-3.73v-3.041h3.729v3.04zm-12.86,0h-3.729l-.001-3.041h3.729v3.04zm19.62.69h-1.656l.137-2.071h1.657l-.14,2.07zm27.09.14h-1.657l.138-2.073h1.657l-.14,2.07zm10.37-1.25h-3.732l.278-3.179h3.868l-.42,3.18zm-65.09,1.11h-1.658l.139-2.071h1.655l-.13,2.07zm-7.6,1.66h-4.699l.277-4.146h4.975l-.55,4.15zm55-14.93-7.601.138 .415-4.422 7.601-.137-.41,4.42zm9.12-.27-7.6.139 .415-4.422 7.6-.138-.41,4.42zm9.89-2.04 .195-1.83h-4.146l-.204,1.905-1.593.029-.416,3.87 7.601-.141 .416-3.868-1.86.04zm-100.36,165.63 11.98,3.023-4.031,35.496-12.095-3.245 4.14-35.28z" fill="none" stroke="#292526" stroke-width=".3387"/>
 <path d="m363.03 327.6 9.85 2.24-3.69 31.35-9.85-2.8z" fill="#d0d2d4" stroke="#292526" stroke-width=".3387"/>
 <path d="m356.65,360.18c.225.671 1.346,1.23 2.577,1.454 1.231.226 10.302,2.465 10.302,2.465l-3.248,34.937s-3.694-1.009-4.59-1.121-1.121-.001-1.345.673l-.336,1.008s-.334-.111-1.455-.56-1.457-1.343-2.016-2.351-3.023-6.271-3.023-6.943-.224-3.137.226-6.159c.46-3.03 2.92-23.41 2.92-23.41z" fill="none" stroke="#292526" stroke-width=".3387"/>
 <path d="m358.78 363.43 10.19 2.02-2.91 32.25-5.6-1.24-4.82-7.61z" fill="#d0d2d4" stroke="#292526" stroke-width=".3387"/>
 <path d="m454.85 377.43 10.08 2.24-3.36 45.8-10.3-2.58z" fill="#d0d2d4" stroke="#292526" stroke-width=".3387"/>
 <path d="m454.41,370.6-.112,2.465 6.267,1.454-.332,1.009-6.158-1.344-4.368,53.413m83.96-167.14c3.909-2.76 23.23-8.739 25.529-8.739m-23.93,10.81s7.59-4.369 13.109-3.91 7.821.231 7.821.231l10.121-4.141m3.23,1.38s-10.121,8.049-14.95,8.74m8.28,2.07-8.279,2.99-2.99,1.841s-1.38,4.83.23,6.209 2.3,1.841 2.3,1.841l.46,9.89m24.38-19.09-10.579-7.82s3.681,4.602 6.9,8.741m-8.28-7.13s5.061,8.049 5.979,9.198 .229,2.761.229,2.761m5.98.69 .689-2.529 4.139-1.381m-65.33,1.61 4.371-3.681s7.36,4.6 9.201,8.281 2.298,5.979 2.069,6.669m3.45-17.48c3.451,4.372 5.52,4.372 8.741,8.281s2.527,8.968 1.838,9.658m-5.06-5.29s-.919,9.661 0,10.582 1.841,5.75 1.841,5.75l-.689.919m-34.5-24.61 11.272,3.679s9.888,11.959 9.888,12.88m-29.67-29.44c1.379-1.609 15.41-16.562 15.41-16.562s5.749,2.532 7.13,8.053m1.62-17.02 1.609,13.802m-109.26-40.71s7.819,3.449 8.511,3.22 6.209-1.61 8.742-2.07m-10.35,5.98s10.912,5.207 11.603,5.437m-17.35-4.52 10.579,4.83m20.7-3.91-13.812,8.604m14.5-4.46m-.92-1.15s-6.67,6.213-8.51,6.442m11.73-4.14-5.058,2.989m4.37-17.25s3.91,4.599 5.751,5.519 10.81,3.45 10.81,3.45m-10.58-8.51s3.682,3.449 4.371,4.14 6.21,1.15 6.21,1.15l3.91-.459 7.589-.921s8.052,3.222 8.741,3.681 3.451,3.907 1.61,5.979" fill="none" stroke="#292526" stroke-width=".3387"/>
 <path d="m414.62,238.93-1.84-.31-1.12-8.22 1.84.31z" fill="#fff" stroke="#292526" stroke-linecap="square" stroke-width=".3387"/>
 <path d="m417.61,239.35-1.84-.32-1.12-8.22 1.84.32z" fill="#fff" stroke="#292526" stroke-linecap="square" stroke-width=".3387"/>
 <path d="m420.6,239.56-1.84-.32-1.12-8.22 1.84.32z" fill="#fff" stroke="#292526" stroke-linecap="square" stroke-width=".3387"/>
 <path d="m422.9,240.38-1.84-.31-1.12-8.22 1.84.31z" fill="#fff" stroke="#292526" stroke-linecap="square" stroke-width=".3387"/>
 <path d="m425.89,240.8-1.84-.32-1.11-8.22 1.83.32z" fill="#fff" stroke="#292526" stroke-linecap="square" stroke-width=".3387"/>
 <path d="m428.42,241.21-1.84-.31-1.12-8.22 1.84.31z" fill="#fff" stroke="#292526" stroke-linecap="square" stroke-width=".3387"/>
 <path d="m416,248.46-1.84-.32-1.12-8.22 1.84.31z" fill="#fff" stroke="#292526" stroke-linecap="square" stroke-width=".3387"/>
 <path d="m418.99,248.87-1.84-.31-1.11-8.23 1.83.32z" fill="#fff" stroke="#292526" stroke-linecap="square" stroke-width=".3387"/>
 <path d="m421.98,249.08-1.84-.32-1.12-8.22 1.84.32z" fill="#fff" stroke="#292526" stroke-linecap="square" stroke-width=".3387"/>
 <path d="m424.28,249.91-1.84-.32-1.12-8.22 1.84.31z" fill="#fff" stroke="#292526" stroke-linecap="square" stroke-width=".3387"/>
 <path d="m427.27,250.32-1.83-.32-1.12-8.22 1.83.32z" fill="#fff" stroke="#292526" stroke-linecap="square" stroke-width=".3387"/>
 <path d="m429.8,250.73-1.84-.31-1.11-8.22 1.83.31z" fill="#fff" stroke="#292526" stroke-linecap="square" stroke-width=".3387"/>
 <path d="m417.84,258.25-1.84-.31-1.12-8.22 1.84.31z" fill="#fff" stroke="#292526" stroke-linecap="square" stroke-width=".3387"/>
 <path d="m420.83,258.67-1.84-.32-1.11-8.22 1.83.32z" fill="#fff" stroke="#292526" stroke-linecap="square" stroke-width=".3387"/>
 <path d="m423.82,258.88-1.84-.32-1.12-8.22 1.84.32z" fill="#fff" stroke="#292526" stroke-linecap="square" stroke-width=".3387"/>
 <path d="m426.12,259.7-1.84-.31-1.12-8.22 1.84.31z" fill="#fff" stroke="#292526" stroke-linecap="square" stroke-width=".3387"/>
 <path d="m429.11,260.12-1.84-.32-1.11-8.22 1.83.32z" fill="#fff" stroke="#292526" stroke-linecap="square" stroke-width=".3387"/>
 <path d="m431.64,260.53-1.84-.31-1.11-8.22 1.83.31z" fill="#fff" stroke="#292526" stroke-linecap="square" stroke-width=".3387"/>
 <path d="m419.22,266.97-1.84-.31-1.12-8.22 1.84.31z" fill="#fff" stroke="#292526" stroke-linecap="square" stroke-width=".3387"/>
 <path d="m422.21,267.38-1.84-.31-1.11-8.22 1.83.31z" fill="#fff" stroke="#292526" stroke-linecap="square" stroke-width=".3387"/>
 <path d="m424.97,268.05-1.84-.31-1.11-8.22 1.83.31z" fill="#fff" stroke="#292526" stroke-linecap="square" stroke-width=".3387"/>
 <path d="m427.5,268.65-1.84-.31-1.12-8.22 1.84.31z" fill="#fff" stroke="#292526" stroke-linecap="square" stroke-width=".3387"/>
 <path d="m430.02,269.3-1.83-.32-1.11-8.22 1.83.32z" fill="#fff" stroke="#292526" stroke-linecap="square" stroke-width=".3387"/>
 <path d="m432.79,269.94-1.84-.32-1.11-8.22 1.83.32z" fill="#fff" stroke="#292526" stroke-linecap="square" stroke-width=".3387"/>
 <path d="m435.78,270.85-1.84-.31-1.11-8.22 1.83.32z" fill="#fff" stroke="#292526" stroke-linecap="square" stroke-width=".3387"/>
 <path d="m455.92,175.12s8.051,1.608 8.74,1.839-3.22,3.22-3.911,2.99m9.2-3.45c.459-.689 4.37-4.6 4.37-4.6l2.99.919-1.382,1.61 9.201,3.222m-2.75-6.67 5.519,7.591m-63.72,17.48s17.019-8.739 18.86-10.809m-8.97,2.3 15.641-9.199 8.279-2.072m1.38,3.68-3.909,1.381v3.681l-11.73,3.909-13.342,7.361m14.72-6.67-8.279,7.591m17.25-11.27s-6.669,9.66-10.12,11.73m15.64-11.5-11.041,9.889 8.052-10.809 1.149-2.071 2.3-1.839m.69,3.91 .921.229-.229,2.3-2.3,2.072c3.219-.231 2.76-.691 8.278,2.068s3.912,6.671 16.103,7.591l12.188.92m-41.63-9.2-2.99,7.589m-28.52-.69c3.911-.919 3.22-2.53 6.438-.23s2.993,1.841 8.513,2.531 8.511.229 10.12-.23m5.98-1.38c2.99.921 14.49,6.671 15.871,8.28m-10.12-8.74 10.121,8.513m-7.36-7.82c2.071,1.611 5.291,5.521 8.512,7.133s3.679,2.069 4.368,2.301m-11.04-9.43c4.14.463 4.139.232 7.819,1.611s9.201,3.451 10.352,4.142 2.988,2.299.919,3.22-2.761,2.299-4.14,1.84m-7.82-31.05c1.839.231 4.599,1.15 5.29,2.761m-6.67-1.61 3.681,1.611-2.3,4.6m4.14-3.68 4.601,2.07m-6.44,7.82c4.14,2.301 6.439,5.29 17.94,4.831s20.24-1.149 23,.459m-13.57,3.22c3.681-.919 10.119-4.369 13.111-3.45m-11.96,4.83s-2.53,4.141-2.761,3.449-12.882-4.14-17.479-4.601m.7,2.53s9.43,1.378 11.729,3.679m12.41,3.22c2.53,2.53 5.059,9.201 2.067,12.421m-2.99,4.14s-2.761,3.22 3.222,5.979 8.509,3.452 8.28,5.29-1.149-.46 2.299-4.139 4.601-6.672 4.601-6.672m-77.16,34.7c2.795-1.979 4.425-3.377 6.986-3.609s5.241.352 7.336-.814m-5.6-3.85s5.24-.697 7.22-1.397 2.331-.117 2.562.116m-8.38,4.54c3.026-1.397 3.843-2.444 4.89-2.328m-11.99,8.73c3.027-1.979 5.24-2.561 6.985-2.91" fill="none" stroke="#292526" stroke-width=".3387"/>
 <path d="m499.86,294.38 .29,5-.35.14 .35,2.75h1.69l2.61.99 2.53-.84v-1.13l2.47-.71-.42-5.71" fill="none" stroke="#292526" stroke-width="1.3547"/>
 <path d="m508.09,297.84c-.209,1.05-.936,1.79-1.623,1.652s-1.074-1.099-.865-2.146 .934-1.791 1.623-1.653c.69.13 1.08,1.1.87,2.15zm-4.8-.1c.231,1.045-.132,2.014-.816,2.168s-1.429-.574-1.659-1.616 .128-2.015.814-2.169 1.44.57 1.67,1.62zm.94-1.95v3.029l.354,1.408 .141,2.68" fill="none" stroke="#292526" stroke-width=".3387"/>
 <path d="m64.843,349.68c-.05.159.041.332.201.382l32.25,10.101c.159.05.33-.037.38-.197s-.04-.334-.2-.384l-32.252-10.1c-.16-.05-.33.04-.379.2z" fill="#fff" stroke="#292526" stroke-width=".3387"/>
 <path d="m97.583,359.84c.024-.168-.09-.319-.259-.344l-31.273-5.119c-.166-.024-.319.092-.344.258-.026.167.089.322.257.345l31.272,5.115c.166.02.324-.09.347-.26z" fill="#fff" stroke="#292526" stroke-width=".3387"/>
 <path d="m127.29,350.69c.026-.167-.086-.321-.254-.349l-39.94-6.42c-.164-.026-.319.085-.348.251s.089.321.256.349l39.93,6.425c.16.03.32-.08.35-.25z" fill="#fff" stroke="#292526" stroke-width=".3387"/>
 <path d="m127.33,350.85c.146-.093.188-.276.098-.422l-10.124-15.719c-.088-.14-.275-.186-.417-.096s-.187.277-.096.421l10.122,15.718c.09.15.28.19.42.1z" fill="#fff" stroke="#292526" stroke-width=".3387"/>
 <path d="m155.37,342.27c.029-.166-.077-.322-.244-.356l-37.976-7.133c-.164-.032-.325.075-.356.24-.033.168.077.327.243.357l37.975,7.131c.17.03.33-.08.37-.24z" fill="#fff" stroke="#292526" stroke-width=".3387"/>
 <path d="m155.3,342.37c.053-.162-.031-.333-.192-.389l-27.97-9.948c-.158-.054-.331.03-.385.19-.056.16.03.334.191.387l27.968,9.947c.15.05.33-.03.38-.19z" fill="#fff" stroke="#292526" stroke-width=".3387"/>
 <path d="m155.29,342.67c.143-.092.185-.278.094-.421l-9.659-15.782c-.089-.139-.276-.182-.418-.089s-.184.276-.091.419l9.656,15.779c.09.14.28.19.42.09z" fill="#fff" stroke="#292526" stroke-width=".3387"/>
 <path d="m181.26,334.46c.034-.165-.069-.325-.236-.361l-35.102-7.714c-.163-.035-.325.07-.359.235-.037.162.069.327.236.359l35.098,7.714c.16.04.32-.07.36-.23z" fill="#fff" stroke="#292526" stroke-width=".3387"/>
 <path d="m181.42,334.45c.061-.16-.017-.333-.175-.396l-25.951-10.243c-.154-.06-.331.016-.392.173s.018.335.176.395l25.947,10.244c.15.06.33-.01.39-.17z" fill="#fff" stroke="#292526" stroke-width=".3387"/>
 <path d="m208.71,310.31c-.111-.131-.301-.147-.432-.04l-27.481,23.654c-.128.106-.147.298-.041.426s.3.149.428.042l27.48-23.651c.12-.1.14-.3.04-.43z" fill="#fff" stroke="#292526" stroke-width=".3387"/>
 <path d="m205.81,326.38c.04-.165-.06-.328-.225-.368l-33.458-8.31c-.161-.041-.326.059-.366.223-.041.165.061.33.225.368l33.455,8.31c.16.05.33-.05.37-.22z" fill="#fff" stroke="#292526" stroke-width=".3387"/>
 <path d="m205.9,326.73c.061-.159-.017-.333-.175-.395l-22.7-8.873c-.154-.059-.331.017-.392.174s.018.335.176.395l22.696,8.871c.15.05.33-.02.39-.18z" fill="#fff" stroke="#292526" stroke-width=".3387"/>
 <path d="m197.1,309.64c-.143-.095-.328-.057-.425.086l-16.035,23.558c-.09.138-.056.326.086.42 .141.095.329.057.422-.087l16.034-23.554c.09-.14.06-.33-.08-.43z" fill="#fff" stroke="#292526" stroke-width=".3387"/>
 <path d="m208.48,310.73c-.032-.167-.188-.276-.355-.244l-36.053,6.942c-.163.028-.273.186-.243.353s.189.276.355.244l36.048-6.942c.17-.02.28-.18.25-.35z" fill="#fff" stroke="#292526" stroke-width=".3387"/>
 <path d="m229.06,319.11c.044-.165-.054-.329-.217-.374l-31.661-8.877c-.162-.044-.329.052-.37.215s.05.331.214.373l31.66,8.875c.17.05.34-.05.38-.21z" fill="#fff" stroke="#292526" stroke-width=".3387"/>
 <path d="m232.7,303.83c-.111-.131-.301-.147-.431-.04l-26.868,22.452c-.127.107-.145.298-.038.429s.301.147.43.037l26.865-22.45c.13-.11.15-.3.04-.43z" fill="#fff" stroke="#292526" stroke-width=".3387"/>
 <path d="m205.3,326.61c.145.087.329.041.42-.103l15.064-23.933c.088-.143.042-.329-.102-.419s-.33-.04-.417.104l-15.065,23.932c-.09.14-.05.33.1.42z" fill="#fff" stroke="#292526" stroke-width=".3387"/>
 <path d="m229.22,319.39c.066-.157-.002-.334-.16-.401l-20.567-8.742c-.152-.062-.331.004-.399.157-.067.157.004.337.161.402l20.566,8.74c.15.06.33-.01.4-.16z" fill="#fff" stroke="#292526" stroke-width=".3387"/>
 <path d="m243.52,295.79c-.145-.089-.33-.047-.422.096l-14.553,23.014c-.088.142-.046.329.095.42s.332.049.422-.097l14.551-23.013c.09-.14.05-.33-.09-.42z" fill="#fff" stroke="#292526" stroke-width=".3387"/>
 <path d="m255.49,298.05c-.106-.132-.295-.154-.429-.05l-26.198,20.805c-.13.104-.152.295-.05.427s.297.154.429.05l26.196-20.805c.13-.1.15-.29.05-.43z" fill="#fff" stroke="#292526" stroke-width=".3387"/>
 <path d="m251.13,312.45c.071-.154.002-.333-.152-.405l-18.433-8.428c-.151-.069-.332-.001-.402.15s-.002.335.154.402l18.43,8.43c.15.08.33.02.4-.14z" fill="#fff" stroke="#292526" stroke-width=".3387"/>
 <path d="m229.06,319.6c.155-.076.214-.257.138-.409l-8.403-16.631c-.075-.149-.257-.211-.406-.137-.152.076-.215.26-.137.409l8.403,16.63c.08.15.26.21.41.14z" fill="#fff" stroke="#292526" stroke-width=".3387"/>
 <path d="m250.05,312.05c.061-.158-.016-.332-.174-.394l-29.305-9.178c-.154-.061-.33.016-.392.174s.017.335.175.394l29.302,9.176c.15.06.33-.01.39-.17z" fill="#fff" stroke="#292526" stroke-width=".3387"/>
 <path d="m232.46,304.1c.016-.171-.103-.317-.272-.338l-11.717-1.311c-.166-.017-.316.104-.335.271s.105.318.273.336l11.716,1.31c.16.02.32-.1.33-.27z" fill="#fff" stroke="#292526" stroke-width=".3387"/>
 <path d="m272.02,306.31c.074-.152.013-.334-.139-.409l-13.19-6.405c-.149-.072-.331-.013-.405.14-.076.151-.012.334.142.406l13.187,6.404c.15.07.34.01.41-.14z" fill="#fff" stroke="#292526" stroke-width=".3387"/>
 <path d="m250.78,312.32c.103.138.292.163.428.059l26.465-19.56c.132-.1.159-.29.059-.425s-.294-.162-.426-.06l-26.466,19.56c-.13.1-.16.29-.06.42z" fill="#fff" stroke="#292526" stroke-width=".3387"/>
 <path d="m277.68,292.75c.062-.158-.016-.333-.175-.396l-11.917-3.118c-.155-.061-.33.016-.391.174s.016.336.175.394l11.914,3.118c.17.07.35,0 .41-.16z" fill="#fff" stroke="#292526" stroke-width=".3387"/>
 <path d="m291.71,300.3c.066-.157-.005-.333-.16-.402l-26.084-10.567c-.151-.066-.332.005-.398.16-.066.154.005.335.162.4l26.079,10.565c.16.06.34-.01.4-.16z" fill="#fff" stroke="#292526" stroke-width=".3387"/>
 <path d="m291.77,300.41c.084-.149.032-.332-.116-.416l-14.08-7.646c-.146-.085-.33-.032-.414.114s-.031.334.117.415l14.079,7.645c.14.1.33.06.41-.09z" fill="#fff" stroke="#292526" stroke-width=".3387"/>
 <path d="m286.02,283.7c-.12-.118-.311-.113-.43.009l-8.282,8.644c-.113.118-.112.309.008.428s.314.114.43-.009l8.281-8.641c.12-.12.12-.31-.01-.43z" fill="#fff" stroke="#292526" stroke-width=".3387"/>
 <path d="m286.15,283.7c-.137-.102-.325-.072-.425.065l-7.689,10.461c-.097.136-.067.326.067.425 .135.1.329.07.426-.068l7.687-10.46c.1-.12.07-.31-.07-.41z" fill="#fff" stroke="#292526" stroke-width=".3387"/>
 <path d="m311.18,295.14c.087-.145.046-.331-.101-.422l-12.318-7.183c-.143-.086-.33-.044-.42.1s-.044.331.1.421l12.319,7.18c.14.08.33.04.42-.1z" fill="#fff" stroke="#292526" stroke-width=".3387"/>
 <path d="m311.16,295.12c.072-.155.009-.334-.145-.405l-12.75-6.065c-.151-.07-.331-.007-.403.146s-.009.335.146.406l12.746,6.061c.13.06.32-.01.39-.16z" fill="#fff" stroke="#292526" stroke-width=".3387"/>
 <path d="m298.72,288.23c.138.102.325.075.43-.06l7.168-9.204c.1-.132.073-.325-.06-.424-.134-.105-.326-.079-.426.057l-7.168,9.203c-.1.13-.07.32.06.42z" fill="#fff" stroke="#292526" stroke-width=".3387"/>
 <path d="m298.12,287.84c.128.111.318.097.43-.031l7.728-9.134c.108-.128.099-.318-.03-.429s-.319-.099-.429.03l-7.727,9.135c-.11.11-.1.31.03.42z" fill="#fff" stroke="#292526" stroke-width=".3387"/>
 <path d="m318.59,283.55c-.001-.171-.136-.306-.306-.306l-32.27.36c-.167-.001-.303.134-.303.303s.136.304.304.304l32.269-.359c.17.01.31-.12.31-.29z" fill="#fff" stroke="#292526" stroke-width=".3387"/>
 <path d="m311.07,295.27c.165-.048.251-.219.204-.379l-4.831-16.405c-.049-.158-.217-.249-.38-.201s-.252.218-.201.38l4.832,16.402c.05.16.22.26.38.21z" fill="#fff" stroke="#292526" stroke-width=".3387"/>
 <path d="m317.94,284.14c.071-.156.008-.334-.148-.407l-11.53-5.136c-.152-.068-.332-.004-.403.146s-.006.337.149.405l11.527,5.136c.15.07.33.01.4-.14z" fill="#fff" stroke="#292526" stroke-width=".3387"/>
 <path d="m328.89,289.65c.072-.152.007-.332-.146-.406l-10.522-5.184c-.15-.069-.331-.006-.402.146s-.009.334.145.406l10.518,5.183c.15.07.33,0 .41-.15z" fill="#fff" stroke="#292526" stroke-width=".3387"/>
 <path d="m337.19,279.21c-.087-.146-.272-.194-.421-.11l-25.547,14.905c-.143.085-.194.271-.109.414 .082.147.271.196.417.11l25.547-14.905c.14-.08.19-.27.11-.41z" fill="#fff" stroke="#292526" stroke-width=".3387"/>
 <path d="m328.7,289.81c.165-.038.266-.199.228-.365l-3.739-16.419c-.036-.16-.197-.265-.361-.228-.166.036-.268.201-.229.365l3.74,16.414c.03.18.19.28.36.24z" fill="#fff" stroke="#292526" stroke-width=".3387"/>
 <path d="m343.6,267.83c-.148-.083-.334-.031-.416.117l-6.369,11.333c-.081.143-.029.329.117.412s.332.03.416-.117l6.365-11.332c.08-.14.03-.33-.12-.41z" fill="#fff" stroke="#292526" stroke-width=".3387"/>
 <path d="m337.13,279.1c-.133-.107-.321-.089-.431.044l-8.153,10.194c-.104.13-.088.319.043.427s.323.088.429-.045l8.153-10.192c.11-.13.09-.32-.04-.43z" fill="#fff" stroke="#292526" stroke-width=".3387"/>
 <path d="m355.41,275c-.083-.149-.265-.205-.414-.124l-26.352,14.049c-.146.078-.202.262-.123.411s.267.204.412.124l26.351-14.049c.14-.08.2-.27.12-.41z" fill="#fff" stroke="#292526" stroke-width=".3387"/>
 <path d="m346.64,284.4c.077-.152.021-.333-.129-.414l-9.382-4.828c-.147-.077-.331-.021-.41.127s-.021.335.13.412l9.379,4.828c.14.07.33.02.41-.13z" fill="#fff" stroke="#292526" stroke-width=".3387"/>
 <path d="m365.05,275c-.074-.153-.254-.216-.408-.142l-18.234,8.847c-.15.073-.213.254-.14.404s.255.219.408.14l18.232-8.846c.15-.07.22-.25.14-.4z" fill="#fff" stroke="#292526" stroke-width=".3387"/>
 <path d="m405.86,265.02c.04-.167-.057-.329-.222-.372l-26.771-6.468c-.161-.041-.327.057-.367.218-.042.167.058.332.22.373l26.77,6.467c.16.04.33-.06.37-.22z" fill="#fff" stroke="#292526" stroke-width=".3387"/>
 <path d="m436.39,255.23c.119-.12.119-.312-.002-.431l-9.314-9.485c-.117-.114-.309-.116-.428,0s-.119.317.002.434l9.312,9.481c.12.12.31.12.43,0z" fill="#fff" stroke="#292526" stroke-width=".3387"/>
 <path d="m445.93,252.98c.062-.161-.016-.334-.174-.396l-18.891-7.348c-.153-.059-.331.017-.39.173s.016.336.175.396l18.887,7.347c.14.06.32-.02.38-.17z" fill="#fff" stroke="#292526" stroke-width=".3387"/>
 <path d="m426.46,245.33c-.128.109-.145.302-.034.431l9.234,10.83c.107.128.302.143.428.036s.146-.304.037-.431l-9.236-10.83c-.11-.13-.31-.15-.43-.04z" fill="#fff" stroke="#292526" stroke-width=".3387"/>
 <path d="m426.27,245.42c-.163-.041-.327.06-.367.225l-3.458,13.854c-.041.161.059.326.221.366 .165.041.33-.059.369-.225l3.46-13.853c.04-.17-.05-.33-.22-.37z" fill="#fff" stroke="#292526" stroke-width=".3387"/>
 <path d="m394.94,253.8c-.043.162.056.328.219.372l26.775,6.826c.162.044.327-.055.37-.217 .045-.165-.054-.331-.218-.372l-26.776-6.826c-.17-.05-.33.05-.37.22z" fill="#fff" stroke="#292526" stroke-width=".3387"/>
 <path d="m392.84,268.32c.098-.137.062-.327-.074-.423l-13.699-9.519c-.135-.097-.327-.065-.422.073-.101.133-.066.325.073.425l13.696,9.518c.13.09.32.06.42-.08z" fill="#fff" stroke="#292526" stroke-width=".3387"/>
 <path d="m395.04,253.72c-.157-.062-.332.019-.394.176l-5.422,14.256c-.059.155.02.333.176.392s.336-.019.396-.176l5.42-14.255c.04-.16-.04-.34-.19-.4z" fill="#fff" stroke="#292526" stroke-width=".3387"/>
 <path d="m395.35,253.93c-.167-.016-.316.106-.333.275l-1.37,13.533c-.019.164.104.314.27.331s.318-.104.337-.272l1.368-13.534c.01-.16-.11-.31-.28-.33z" fill="#fff" stroke="#292526" stroke-width=".3387"/>
 <path d="m372.83,271.39c-.101-.136-.291-.159-.429-.058l-9.958,7.114c-.132.102-.159.292-.057.427 .101.134.294.162.428.06l9.958-7.117c.13-.09.16-.28.06-.42z" fill="#fff" stroke="#292526" stroke-width=".3387"/>
 <path d="m378.68,258.31c-.153-.073-.333-.005-.404.149l-5.667,12.634c-.07.149-.006.332.145.402 .155.073.338.006.408-.149l5.667-12.632c.06-.15 0-.33-.16-.4z" fill="#fff" stroke="#292526" stroke-width=".3387"/>
 <path d="m378.5,258.24c-.131-.104-.322-.083-.429.05l-16.048,19.745c-.104.13-.085.321.047.425 .132.108.326.084.431-.048l16.049-19.746c.11-.12.09-.31-.05-.42z" fill="#fff" stroke="#292526" stroke-width=".3387"/>
 <path d="m389.63,268.44c.031-.167-.078-.322-.245-.355l-28.131-5.084c-.162-.03-.323.08-.354.245-.03.166.08.326.246.355l28.129,5.084c.16.03.32-.08.35-.24z" fill="#fff" stroke="#292526" stroke-width=".3387"/>
 <path d="m378.56,258.49c-.167-.002-.306.131-.31.299l-.382,14.018c-.003.164.131.305.299.308 .168.005.309-.13.311-.298l.381-14.016c.01-.17-.13-.31-.3-.31z" fill="#fff" stroke="#292526" stroke-width=".3387"/>
 <path d="m360.75,263.14c-.086.145-.038.329.106.418l16.965,10.012c.143.084.33.038.415-.104 .089-.146.041-.335-.104-.421l-16.965-10.013c-.16-.1-.35-.05-.43.1z" fill="#fff" stroke="#292526" stroke-width=".3387"/>
 <path d="m360.88,263.5c-.095.141-.058.33.082.425l11.73,7.799c.137.094.326.057.421-.08 .097-.141.058-.333-.081-.426l-11.73-7.8c-.14-.09-.33-.05-.42.09z" fill="#fff" stroke="#292526" stroke-width=".3387"/>
 <path d="m373.14,271.47c.016-.166-.107-.313-.275-.331l-29.319-3.054c-.167-.017-.315.105-.333.272s.106.317.277.335l29.32,3.053c.17.01.31-.11.33-.28z" fill="#fff" stroke="#292526" stroke-width=".3387"/>
 <path d="m361.18,263.2c-.168.014-.292.159-.281.329l1.115,15.448c.014.166.158.295.325.28s.295-.158.283-.327l-1.115-15.449c0-.16-.15-.29-.32-.28z" fill="#fff" stroke="#292526" stroke-width=".3387"/>
 <path d="m360.92,263.04c-.155-.066-.333.007-.399.159l-5.358,11.624c-.066.151.004.331.157.397 .155.068.336-.002.402-.159l5.358-11.621c.06-.15-.01-.33-.16-.4z" fill="#fff" stroke="#292526" stroke-width=".3387"/>
 <path d="m360.72,263.12c-.139-.095-.329-.06-.425.079l-14.23,20.444c-.095.137-.06.325.075.422s.333.062.428-.076l14.229-20.447c.09-.12.06-.31-.08-.41z" fill="#fff" stroke="#292526" stroke-width=".3387"/>
 <path d="m355.74,274.94c-.119-.12-.311-.118-.43.002l-9.036,8.92c-.117.117-.116.312.003.43s.312.117.431-.004l9.038-8.92c.12-.12.12-.32 0-.43z" fill="#fff" stroke="#292526" stroke-width=".3387"/>
 <path d="m355.72,275.1c.009-.169-.123-.312-.291-.317l-30.309-1.987c-.167-.008-.31.121-.316.288s.127.314.296.32l30.303,1.988c.18,0 .32-.12.32-.29z" fill="#fff" stroke="#292526" stroke-width=".3387"/>
 <path d="m324.68,273.09c-.141-.094-.328-.056-.422.086l-13.676,21.035c-.09.138-.053.328.087.418 .14.096.332.056.423-.083l13.676-21.037c.09-.15.05-.34-.09-.43z" fill="#fff" stroke="#292526" stroke-width=".3387"/>
 <path d="m318.46,283.48c-.143-.089-.329-.046-.419.097l-7.276,11.144c-.088.14-.046.326.095.417s.333.047.422-.096l7.276-11.142c.09-.14.05-.33-.1-.42z" fill="#fff" stroke="#292526" stroke-width=".3387"/>
 <path d="m318.35,283.45c-.09-.143-.278-.187-.422-.096l-26.426,16.54c-.14.087-.186.275-.097.416 .088.146.278.189.421.1l26.425-16.541c.15-.09.2-.28.11-.42z" fill="#fff" stroke="#292526" stroke-width=".3387"/>
 <path d="m298.56,287.81c-.093-.141-.283-.179-.422-.086l-26.557,17.648c-.139.092-.179.28-.086.421s.283.181.422.087l26.555-17.648c.15-.09.2-.28.1-.42z" fill="#fff" stroke="#292526" stroke-width=".3387"/>
 <path d="m298.56,287.57c-.146-.086-.332-.035-.415.112l-6.8,12.319c-.084.145-.033.33.112.413 .145.089.332.036.417-.108l6.799-12.32c.08-.14.03-.33-.11-.41z" fill="#fff" stroke="#292526" stroke-width=".3387"/>
 <path d="m285.94,283.81c-.16.052-.245.226-.19.386l5.501,16.012c.052.158.225.242.384.191s.243-.229.191-.389l-5.5-16.01c-.05-.16-.22-.24-.38-.19z" fill="#fff" stroke="#292526" stroke-width=".3387"/>
 <path d="m62.56,391.25c5.466-1.4 7.023-15.673 3.771-31.826s-10.083-28.104-15.748-27.079l-3.033.446c-5.244,1.405-7.14,16.128-3.887,32.276 3.254,16.157 10.142,28.111 15.382,26.701l3.515-.52z" fill="#fff" stroke="#292526" stroke-linecap="round" stroke-width="2.032"/>
 <path d="m62.852 359.91c3.25 16.153 1.499 30.703-3.806 31.854-5.74 1.249-12.128-10.544-15.382-26.701-3.253-16.148-1.357-30.826 3.887-32.23 5.24-1.41 12.045 10.93 15.301 27.08z" fill="none" stroke="#292526" stroke-width=".6773"/>
 <path d="m4.899,379.26c1.983,2.303 1.854,2.494 3.071,3.264s3.327,1.727 3.327,1.727l19.963.064 6.717-2.561s5.12-2.687 6.72-3.967 6.397-7.038 7.549-10.812 3.712-13.821 3.008-19.898" fill="#fff" stroke="#292526" stroke-width="1.016"/>
 <path d="m52.212 339.9c6.514 6.612 2.34 19.843-11.222 31.069s-30.444 14.032-36.958 7.418c-6.512-6.616-2.346-19.867 11.216-31.097 13.565-11.23 30.451-14 36.964-7.39z" fill="#fff" stroke="#292526" stroke-width="2.032"/>
 <path d="m116.77,292.14-2.46-3.65 1.23-.78 2.45,3.64z" fill="#fff" stroke="#292526" stroke-linejoin="round" stroke-width=".6773"/>
 <path d="m117.79,290.57-2.46-3.65 .21.79 2.45,3.64z" fill="#fff" stroke="#292526" stroke-linejoin="round" stroke-width=".6773"/>
 <path d="m114.29,288.48-.32-.64 1.22-.79 .32.64z" fill="none" stroke="#292526" stroke-linejoin="round" stroke-width=".6773"/>
 <path d="m116.34 293.02c6.506 8.849 1.337 24.184-15.191 36.318-16.529 12.137-37.904 15.995-47.014 4.283" fill="#fff" stroke="#292526" stroke-width="2.032"/>
 <path d="m45.675 343.9c4.959 4.866 1.948 14.862-8.069 23.425s-22.497 10.59-27.459 5.726c-4.958-4.866-2.079-14.599 7.938-23.165 10.017-8.56 22.629-10.84 27.59-5.98z" fill="#fff" stroke="#292526" stroke-width=".6773"/>
 <path d="m46.39,347.22c-5.987-5.985-16.149-3.409-25.637,3.515s-14.174,17.452-9.239,22.645c.104.108.212.217.323.32" fill="#fff" stroke="#292526" stroke-width=".6773"/>
 <path d="m47.581,348.8c-.316-.574-.713-1.106-1.191-1.585" fill="#fff" stroke="#292526" stroke-width=".3387"/>
 <path d="m11.837,373.7c.274.258.567.498.878.718" fill="none" stroke="#292526" stroke-width=".3387"/>
 <path d="m11.709,373.57c-3.583-4.123.389-14.937 9.5-21.994 9.239-7.156 21.533-8.418 25.115-4.294" fill="#fff" stroke="#292526" stroke-width=".3387"/>
 <path transform="matrix(.6322,.7748,-.7748,.6322,291.07,109.99)" d="m32.79 361.6a3.123 4.945 0 1 0 -6.246 0 3.123 4.945 0 1 0 6.246 0" fill="#fff" stroke="#292526" stroke-width=".3387"/>
 <path d="m31.276,363.31c-1.595,1.335-3.605,1.645-4.492.702-.887-.949-.315-2.799 1.279-4.132 1.595-1.336 3.605-1.648 4.492-.701s.313,2.8-1.279,4.13z" fill="none" stroke="#292526" stroke-width=".3387"/>
 <path d="m24.973,361.78c-.197.144-.432.158-.525.041s-.01-.334.187-.475 .431-.158.524-.037 .01.34-.186.48z" fill="none" stroke="#292526" stroke-width=".1355"/>
 <path d="m29.327,357.78c-.196.143-.431.161-.524.044s-.011-.334.184-.477 .431-.16.525-.039c.093.13.011.34-.185.48z" fill="#fff" stroke="#292526" stroke-width=".1355"/>
 <path d="m31.346,360.16c-.196.144-.431.162-.524.044-.095-.119-.012-.334.185-.478 .194-.141.429-.159.524-.038 .093.13.01.34-.185.48zm-3.352,2.37c-.196.144-.431.16-.526.042-.092-.118-.011-.332.186-.475s.431-.162.524-.041c.093.11.011.33-.184.47zm1.343-1.73c-.273.197-.603.222-.734.058s-.014-.455.259-.65c.275-.194.603-.221.735-.056 .129.16.014.45-.26.65zm.523,1.56c.132.161.46.138.735-.058 .274-.193.389-.486.259-.651l-1.276-1.484c-.134-.164-.46-.138-.735.055-.275.198-.389.489-.259.652l1.276,1.49z" fill="none" stroke="#292526" stroke-width=".1355"/>
 <path d="m34.019,357.55c-.217.106-.451.084-.524-.05s.046-.328.263-.434 .452-.086.524.05c.072.12-.045.32-.263.43z" fill="#fff" stroke="#292526" stroke-width=".1355"/>
 <path d="m34.745,361.18c-.218.107-.451.087-.525-.048-.071-.133.046-.327.264-.434s.451-.087.522.049c.073.13-.044.32-.261.43zm-4.236,4.39c-.217.109-.45.086-.522-.048s.045-.328.263-.436 .451-.084.522.05c.072.14-.045.34-.263.44zm-5,.09c-.219.108-.45.085-.523-.046-.073-.136.045-.332.261-.438s.452-.084.524.049-.046.33-.262.44z" fill="none" stroke="#292526" stroke-width=".1355"/>
 <path d="m49.514,341.8 7.271-6.15 2.275.8v1.29l-5.533,5.09-2.408.8z" fill="#fff" stroke="#292526" stroke-width="1.016"/>
 <path d="m58.558 336.69-7.439 6.72" fill="#fff" stroke="#292526" stroke-width=".3387"/>
 <path d="m51.485,329.68-.902-2.64-10.259,9.63 1.314.96 .157.11 2.99-1.25 7.092-5.66z" fill="#fff" stroke="#292526" stroke-width="1.016"/>
 <path d="m41.795 337.61 9.446-8.24" fill="#fff" stroke="#292526" stroke-width=".3387"/>
 <path d="m55.191,353.28c-.895,4.414-3.11,7.539-4.351,9.343-.703,1.022-4.542,6.143-12.413,10.558m14.718-10.49-6.656,7.166-3.071,3.392-.447-.191v-.769m5.374-3.85c.256.768.96,1.343 1.6,1.407m-2.24,0c.256.768.128,1.023.768,1.087m-1.663.19c.064.512.127.768.703,1.151m-1.088-.32c-.127.896-.256,1.024-.768,2.176v1.151m-3.199-3.9c-.128.895-2.558,2.879-2.558,2.879l-1.665-.384m.96,1.08-7.039,3.134 .064.255-2.751,1.858m6.463-3.33 .768.129s-2.495,1.534-3.007,1.727-1.088.129-1.088.129-1.024.769-2.176,1.536m11.966-5 .384-.96-.129-.32-3.454,1.983m1.599.83-1.217.384 .897.127s.767.448.959.705 1.536-.896 1.536-.896m2.687-1.78-2.111,1.915m-14.461,3.26-1.28.703-4.286,1.474-1.344.895m2.752.02 4.031-2.176m-.192.64-1.6,1.471m3.007-1.28 .831.449 5.568-2.623m-4.16-.26c.192-.063 1.216-.639 1.216-.639s2.815.002 3.007.127l1.215-1.791 1.024-.191m-2.878,4.28 1.407-1.728 .578-.449 .83.449 1.024-.768m-30.904,2.76c.832.574 2.495,1.087 3.839.896s2.944-.256 2.944-.256l5.822-.64 .832.767m.256-1.35 1.088.576m5.693,2.49-2.751,2.24m6.335-2.88-4.799,3.646-6.847-2.943" fill="none" stroke="#292526" stroke-width=".3387"/>
 <path d="m19.743,384.76 5.887,2.24 3.584,1.92s1.278-.255 1.919-1.344 .896-1.918 1.727-2.624c.832-.704 1.791-1.345 1.791-1.345l.897-.448 .895.705 5.887-4.223c1.343-.961 5.248-4.097 5.248-4.097l2.047-2.239 1.536-.959 2.366-2.366 2.303-1.984 .129-.833 1.855-1.598s1.331.406 1.728,1.598c.448,1.345-.063,2.368-.063,2.368l-4.863,3.839-4.99,4.606-4.032,3.968-1.983.704-2.624,1.472-2.559,2.56" fill="#fff" stroke="#292526" stroke-width=".6773"/>
 <path d="m33.501,385.46c-.705.448-.96.896-1.601,2.177s-1.983,2.301-2.559,2.622-.895.64-.895.64m-9.79-6.01 .768,1.536 .896-.577 1.28,1.344 1.982-.063 2.176,1.215 .832.895 1.6-.126 .832.384-1.153.833m-10.494-5.88s.578.576 1.025,1.472c.448.894.256,1.216.256,1.216m-2.623-2.82c.704.769 1.215,1.152 1.472,1.792s.319.768.319.768m-11.773-6.78c.959.64 2.624,1.728 2.624,1.728m2.878,2.56 18.428,7.229 2.432-1.343h.704" fill="none" stroke="#292526" stroke-width=".3387"/>
 <path d="m4.606,379.36 1.635,1.56 1.09,1.6-1.025,1.22 16.189,6.72 3.839.7 1.278-.7 2.368,1.15 2.624-1.28 2.752-1.47 2.559-1.67 3.327-.83 9.471-.96" fill="none" stroke="#292526" stroke-linecap="round" stroke-linejoin="round" stroke-width="2.032"/>
 <path d="m58.518,367.04-2.239,1.472 .063.449-2.432,1.854m-1.407.39c.704.125 2.112,1.341 1.729,2.173m1.727-6.21c1.343.513 2.624,1.919 2.367,2.881m-4.415-.12c1.024.257 1.857,1.344 1.792,1.984m-6.847,2.62c1.024-.318 2.303,1.022 1.983,1.92m-2.814-1.34c1.087-.257 2.432,1.278 2.048,2.175m-1.6-1.74-2.75,3.968s-4.736,3.199-5.376,4.735m7.295-8.37-2.753,3.326s-3.583,1.92-5.758,3.265m-5.374,2.88 2.304-1.535" fill="none" stroke="#292526" stroke-width=".3387"/>
 <path d="m113.86 289.49c8.396 7.895 1.801 24.129-14.73 36.267s-36.73 15.575-45.126 7.682c-8.395-7.893-1.799-24.131 14.728-36.268 16.527-12.13 36.728-15.57 45.128-7.68z" fill="#fff" stroke="#292526" stroke-width="1.016"/>
 <path d="m40.986,384.12 2.483-.34 5.639-.92" fill="#fff" stroke="#292526" stroke-width=".6773"/>
 <path d="m64.349 349.95" fill="#fff" stroke="#292526" stroke-width=".6773"/>
 <path d="m344.212,268.32a.782,.782 0 1,0 -1.564,0 .782,.782 0 1,0 1.564,0" fill="#fff" stroke="#292526" stroke-width=".3387"/>
 <path d="m347.122,284.23a.782,.782 0 1,0 -1.564,0 .782,.782 0 1,0 1.564,0" fill="#fff" stroke="#292526" stroke-width=".3387"/>
 <path d="m96.109,339.31c-.168.01-.296.154-.287.322l1.089,20.238c.008.167.151.296.319.287s.297-.152.289-.32l-1.089-20.238c-.009-.17-.152-.3-.321-.29z" fill="#fff" stroke="#292526" stroke-width=".3387"/>
 <path d="m117.24,334.2c-.155-.065-.335.006-.401.16l-19.926,25.423c-.066.154.004.333.157.399 .156.069.336-.003.402-.158l19.926-25.424c.06-.16-.01-.34-.16-.4z" fill="#fff" stroke="#292526" stroke-width=".3387"/>
 <path d="m87.138,343.7c-.151.074-.213.257-.142.408l10.037,15.774c.072.15.254.216.405.144s.215-.255.145-.406l-10.036-15.774c-.074-.15-.256-.21-.409-.14z" fill="#fff" stroke="#292526" stroke-width=".3387"/>
 <path d="m87.539,343.39-19.608,22.05c-.111.126-.102.317.025.43s.317.102.431-.025l19.609-22.047c.111-.126.099-.316-.026-.43-.127-.1-.319-.09-.431.03z" fill="#fff" stroke="#292526" stroke-width=".3387"/>
 <path d="m95.939,339.5-27.937,27.275c-.111.128-.1.319.025.43s.318.103.431-.025l27.938-27.275c.111-.124.101-.316-.026-.431s-.318-.1-.431.03z" fill="#fff" stroke="#292526" stroke-width=".3387"/>
 <path d="m126.94,331.14c-.155-.067-.335.005-.401.158l-29.562,28.425c-.066.152.004.332.157.398s.336-.003.402-.158l29.562-28.424c.07-.15 0-.33-.16-.4z" fill="#fff" stroke="#292526" stroke-width=".3387"/>
 <path d="m126.99,331.19c-.155-.067-.335.004-.403.158l.315,19.468c-.067.151.005.331.158.399 .156.068.334-.005.402-.159l-.316-19.467c.08-.15.01-.33-.15-.4z" fill="#fff" stroke="#292526" stroke-width=".3387"/>
 <path d="m155.37,323.69c-.152-.065-.333.006-.399.161l-28.013,26.969c-.066.153.004.332.159.399 .154.069.334-.003.401-.159l28.014-26.97c.06-.16-.01-.34-.16-.4z" fill="#fff" stroke="#292526" stroke-width=".3387"/>
 <path d="m171.98,317.78c-.154-.066-.334.006-.401.16l-16.246,5.617c-.067.154.004.333.157.4 .156.068.336-.002.402-.158l16.247-5.618c.06-.16-.01-.34-.16-.4z" fill="#fff" stroke="#292526" stroke-width=".3387"/>
 <path d="m183.29,317.27c-.041-.163-.206-.262-.37-.223l-27.484,6.41c-.162.04-.262.204-.224.367 .04.165.207.265.371.225l27.483-6.41c.16-.05.26-.21.22-.38z" fill="#fff" stroke="#292526" stroke-width=".3387"/>
 <path d="m183.39,317.34c-.004-.169-.144-.3-.313-.299l-11.014.464c-.167.003-.3.143-.296.31s.144.304.312.3l11.015-.464c.16-.01.3-.15.29-.31z" fill="#fff" stroke="#292526" stroke-width=".3387"/>
 <path d="m171.85,317.69c-.146.084-.196.271-.111.419l9.132,16.379c.083.144.27.194.414.11 .148-.083.197-.272.111-.416l-9.131-16.382c-.08-.14-.27-.19-.41-.11z" fill="#fff" stroke="#292526" stroke-width=".3387"/>
 <path d="m183.24,316.99c-.167-.019-.318.101-.34.268l-2.13,17.017c-.021.167.097.318.264.339s.321-.099.341-.266l2.131-17.017c.02-.16-.1-.31-.26-.34z" fill="#fff" stroke="#292526" stroke-width=".3387"/>
 <path d="m197.5,309.96c-.08-.146-.266-.202-.415-.123l-13.775,7.094c-.146.078-.202.264-.123.413s.267.202.414.123l13.777-7.096c.15-.06.21-.25.13-.4z" fill="#fff" stroke="#292526" stroke-width=".3387"/>
 <path d="m208.77,310.42c.004-.168-.13-.308-.299-.312l-11.258-.403c-.165-.003-.305.129-.309.297-.006.17.13.31.298.312l11.257.403c.16.01.3-.13.31-.3z" fill="#fff" stroke="#292526" stroke-width=".3387"/>
 <path d="m196.94,309.77c-.149.079-.205.265-.125.414l8.395,16.566c.079.145.264.202.412.122s.205-.264.125-.412l-8.395-16.564c-.08-.15-.27-.21-.42-.13z" fill="#fff" stroke="#292526" stroke-width=".3387"/>
 <path d="m208.56,310.12c-.164-.03-.324.081-.355.245l-2.917,16.2c-.031.165.079.325.244.355 .166.03.324-.079.355-.246l2.918-16.199c.04-.16-.07-.32-.24-.35z" fill="#fff" stroke="#292526" stroke-width=".3387"/>
 <path d="m232.52,304.14c-.025-.166-.183-.281-.348-.256l-35.147,5.758c-.164.026-.279.184-.253.349 .025.166.182.281.349.257l35.145-5.761c.18-.03.29-.19.26-.35z" fill="#fff" stroke="#292526" stroke-width=".3387"/>
 <path d="m255.51,298.19c-.021-.167-.173-.284-.341-.265l-34.739,4.374c-.164.019-.284.17-.263.337s.173.287.34.267l34.739-4.374c.17-.03.28-.18.26-.34z" fill="#fff" stroke="#292526" stroke-width=".3387"/>
 <path d="m243.35,295.82c-.153.067-.221.252-.15.404l7.377,16.218c.071.151.25.22.403.151s.222-.251.151-.404l-7.377-16.22c-.07-.15-.25-.21-.4-.15z" fill="#fff" stroke="#292526" stroke-width=".3387"/>
 <path d="m255.59,297.85c-.158-.051-.333.034-.386.195l-4.603,14.179c-.051.155.034.331.192.387 .16.052.333-.035.386-.192l4.603-14.182c.06-.17-.03-.34-.19-.39z" fill="#fff" stroke="#292526" stroke-width=".3387"/>
 <path d="m255.64,298.08c.026-.164-.086-.321-.252-.349l-11.805-1.938c-.166-.028-.322.084-.35.249-.03.168.084.324.249.354l11.808,1.935c.17.04.33-.07.35-.24z" fill="#fff" stroke="#292526" stroke-width=".3387"/>
 <path d="m265.71,289.35c-.114-.123-.307-.133-.433-.019l-9.718,8.451c-.124.112-.133.304-.02.427 .113.127.306.137.432.021l9.719-8.449c.12-.12.13-.31.02-.43z" fill="#fff" stroke="#292526" stroke-width=".3387"/>
 <path d="m265.58,289.32c-.143-.088-.331-.045-.42.098l-14.563,22.535c-.087.14-.045.329.096.417s.333.049.421-.095l14.562-22.534c.08-.15.04-.34-.1-.43z" fill="#fff" stroke="#292526" stroke-width=".3387"/>
 <path d="m265.33,289.26c-.157.061-.236.236-.177.395l6.316,16.531c.056.156.233.235.391.176s.237-.235.175-.393l-6.312-16.532c-.07-.17-.25-.24-.4-.19z" fill="#fff" stroke="#292526" stroke-width=".3387"/>
 <path d="m277.52,292.74c-.017-.166-.165-.289-.335-.272l-33.73,3.23c-.164.018-.287.167-.271.33 .015.173.166.294.333.277l33.729-3.23c.18-.03.3-.18.28-.34z" fill="#fff" stroke="#292526" stroke-width=".3387"/>
 <path d="m277.63,292.46c-.153-.067-.333.003-.4.158l-5.981,13.365c-.068.151.003.331.157.398 .155.069.335-.004.401-.159l5.982-13.363c.07-.16 0-.34-.16-.4z" fill="#fff" stroke="#292526" stroke-width=".3387"/>
 <path d="m298.59,287.94c-.002-.168-.143-.302-.312-.3l-32.854,1.456c-.166.002-.301.141-.299.308s.141.304.308.302l32.858-1.455c.16-.02.29-.16.29-.32z" fill="#fff" stroke="#292526" stroke-width=".3387"/>
 <path d="m298.57,288.01c.052-.159-.034-.332-.197-.387l-12.259-3.964c-.159-.053-.331.031-.385.191-.057.16.031.332.19.386l12.262,3.963c.17.05.34-.03.4-.19z" fill="#fff" stroke="#292526" stroke-width=".3387"/>
 <path d="m337.24,279.5c.009-.169-.122-.311-.29-.32l-30.454-.701c-.167-.009-.311.121-.317.289s.121.311.29.319l30.451.701c.17.01.32-.12.32-.29z" fill="#fff" stroke="#292526" stroke-width=".3387"/>
 <path d="m378.49,258.46c-.109.131-.094.321.035.432l10.684,9.438c.123.11.317.096.425-.03s.098-.324-.029-.435l-10.684-9.436c-.12-.1-.31-.09-.42.04z" fill="#fff" stroke="#292526" stroke-width=".3387"/>
 <path d="m394.79,253.8c-.127-.114-.319-.104-.43.021l-16.357,18.253c-.113.123-.104.316.019.429 .126.116.32.104.434-.02l16.356-18.256c.11-.11.11-.31-.02-.42z" fill="#fff" stroke="#292526" stroke-width=".3387"/>
 <path d="m395.14,253.78c-.119.117-.12.31-.005.432l10.111,10.468c.119.119.311.125.43.009s.128-.314.008-.436l-10.114-10.468c-.13-.12-.32-.12-.44,0z" fill="#fff" stroke="#292526" stroke-width=".3387"/>
 <path d="m411.3,249.39c-.123-.114-.313-.104-.431.021l-17.105,18.201c-.116.123-.109.314.014.428 .123.117.316.109.43-.014l17.11-18.205c.12-.12.12-.32-.01-.43z" fill="#fff" stroke="#292526" stroke-width=".3387"/>
 <path d="m411.66,249.37c-.155-.063-.334.009-.399.163l-6.14,14.668c-.064.155.008.333.162.398 .155.067.335-.007.4-.163l6.139-14.667c.06-.16-.01-.34-.16-.4z" fill="#fff" stroke="#292526" stroke-width=".3387"/>
 <path d="m395.08,253.82c-.103.136-.074.326.061.428l13.42,10.058c.132.101.322.074.424-.06s.076-.326-.059-.429l-13.42-10.05c-.13-.11-.32-.08-.42.05z" fill="#fff" stroke="#292526" stroke-width=".3387"/>
 <path d="m411.51,249.43c-.168-.03-.324.08-.356.248l-2.464,14.164c-.029.164.079.321.244.353 .166.028.327-.081.355-.248l2.466-14.166c.03-.16-.08-.32-.24-.34z" fill="#fff" stroke="#292526" stroke-width=".3387"/>
 <path d="m411.2,249.35c-.124.113-.134.304-.018.43l10.078,11.082c.11.124.304.133.43.021s.133-.307.02-.431l-10.081-11.082c-.11-.13-.3-.14-.43-.02z" fill="#fff" stroke="#292526" stroke-width=".3387"/>
 <path d="m411.41,249.27c-.111.128-.099.318.029.432l11.026,9.766c.125.111.317.098.428-.027s.1-.32-.025-.431l-11.029-9.767c-.14-.11-.33-.1-.44.03z" fill="#fff" stroke="#292526" stroke-width=".3387"/>
 <path d="m425.95,245.26c-.124-.112-.317-.102-.431.022l-16.389,17.878c-.112.124-.104.316.021.429 .124.115.319.104.432-.02l16.388-17.879c.12-.12.11-.31-.02-.43z" fill="#fff" stroke="#292526" stroke-width=".3387"/>
 <path d="m411.9,249.26c-.051.157.033.331.193.385l22.53,7.285c.158.053.329-.031.384-.19 .056-.161-.033-.335-.189-.388l-22.531-7.284c-.15-.04-.32.04-.38.2z" fill="#fff" stroke="#292526" stroke-width=".3387"/>
 <path d="m426.88,245.51c-.162-.048-.33.045-.378.206l-3.942,13.536c-.046.157.045.328.206.377s.331-.047.379-.209l3.94-13.535c.05-.17-.05-.34-.21-.39z" fill="#fff" stroke="#292526" stroke-width=".3387"/>
 <path d="m440.85,241.82c-.155-.062-.333.017-.396.173l-4.676,13.024c-.062.153.014.331.168.394 .158.064.336-.013.398-.172l4.675-13.022c.06-.15-.02-.33-.17-.39z" fill="#fff" stroke="#292526" stroke-width=".3387"/>
 <path d="m440.51,241.67c-.117-.12-.311-.123-.431-.006l-17.594,17.509c-.121.116-.122.309-.005.43s.312.121.431.004l17.595-17.508c.13-.11.13-.3.01-.42z" fill="#fff" stroke="#292526" stroke-width=".3387"/>
 <path d="m445,247.84c.141-.099.173-.288.075-.426l-3.993-5.714c-.097-.136-.286-.171-.424-.073s-.172.287-.074.424l3.994,5.712c.09.14.28.18.41.08z" fill="#fff" stroke="#292526" stroke-width=".3387"/>
 <path d="m445.23,254.38c-.002-.172-.138-.305-.308-.304l-8.571.168c-.165.001-.302.138-.301.307s.139.304.309.301l8.566-.168c.17,0 .3-.14.3-.31z" fill="#fff" stroke="#292526" stroke-width=".3387"/>
 <path d="m362.03,278.4c.08-.151.025-.334-.121-.415l-17.772-9.745c-.147-.08-.332-.026-.411.12s-.027.335.122.414l17.767,9.744c.14.09.33.04.41-.11z" fill="#fff" stroke="#292526" stroke-width=".3387"/>
 <path d="m343.45,267.92c-.168.027-.276.182-.249.35l2.838,15.889c.026.161.181.273.348.245s.28-.183.25-.349l-2.838-15.883c-.03-.16-.18-.28-.35-.25z" fill="#fff" stroke="#292526" stroke-width=".3387"/>
 <path d="m343,267.83c-.145-.089-.329-.046-.421.1l-14.237,20.915c-.087.14-.045.327.1.416 .142.089.332.045.42-.101l14.235-20.91c.08-.14.04-.33-.1-.42z" fill="#fff" stroke="#292526" stroke-width=".3387"/>
 <path d="m337.36,279.53c.078-.154.018-.334-.135-.414l-12.229-6.303c-.148-.076-.33-.019-.408.132s-.019.334.132.41l12.23,6.304c.16.08.34.02.42-.13z" fill="#fff" stroke="#292526" stroke-width=".3387"/>
 <path d="m318.68,283.59c.066-.155-.002-.331-.16-.399l-12.157-4.897c-.152-.066-.331.005-.396.157-.069.157.004.337.157.402l12.157,4.896c.15.07.33,0 .4-.16z" fill="#fff" stroke="#292526" stroke-width=".3387"/>
 <path d="m298.11,288.43c.067-.154-.002-.332-.157-.401l-11.826-4.286c-.152-.067-.332.002-.4.156s.003.335.158.401l11.821,4.284c.16.07.34.01.41-.15z" fill="#fff" stroke="#292526" stroke-width=".3387"/>
 <path d="m271.83,306.18c.057-.162-.027-.332-.186-.391l-28.18-10.019c-.156-.056-.33.024-.388.184s.027.334.188.39l28.175,10.018c.16.06.34-.02.39-.18z" fill="#fff" stroke="#292526" stroke-width=".3387"/>
 <path d="m232.54,303.93c-.165-.036-.326.067-.366.23l-3.559,15.031c-.038.161.065.326.229.364s.329-.067.365-.231l3.56-15.027c.05-.16-.06-.32-.22-.36z" fill="#fff" stroke="#292526" stroke-width=".3387"/>
 <path d="m243.52,295.75c-.095-.141-.282-.175-.424-.08l-10.776,7.974c-.138.095-.177.282-.08.422 .094.14.284.176.422.08l10.776-7.973c.14-.09.18-.28.08-.42z" fill="#fff" stroke="#292526" stroke-width=".3387"/>
 <path d="m221.12,302.52c-.09-.146-.274-.189-.419-.102l-12.28,7.668c-.143.085-.19.271-.103.417 .086.143.274.189.419.102l12.277-7.667c.14-.09.18-.28.1-.42z" fill="#fff" stroke="#292526" stroke-width=".3387"/>
 <path d="m155.12,342.52c.17.001.306-.132.309-.303l.253-18.336c.002-.165-.13-.305-.299-.306s-.308.133-.308.302l-.253,18.332c0,.18.13.32.3.32z" fill="#fff" stroke="#292526" stroke-width=".3387"/>
 <path d="m171.7,317.86c-.14-.098-.328-.064-.426.074l-16.478,23.492c-.095.138-.062.326.074.424s.33.062.424-.077l16.477-23.489c.11-.13.07-.32-.06-.41z" fill="#fff" stroke="#292526" stroke-width=".3387"/>
 <path d="m183.29,317.27c-.114-.125-.303-.138-.432-.025l-27.82,24.36c-.125.11-.138.302-.026.429s.303.139.429.023l27.822-24.349c.13-.1.14-.3.03-.43z" fill="#fff" stroke="#292526" stroke-width=".3387"/>
 <path d="m127.04,349.61c.136.102.325.075.427-.061l17.546-22.882c.1-.134.075-.323-.061-.427-.134-.1-.327-.074-.427.062l-17.544,22.881c-.1.14-.08.33.05.43z" fill="#fff" stroke="#292526" stroke-width=".3387"/>
 <path d="m127.27,350.92c.053-.161-.031-.334-.193-.387l-30.785-10.396c-.158-.053-.331.032-.384.191-.056.159.033.333.192.386l30.784,10.394c.15.07.33-.02.38-.18z" fill="#fff" stroke="#292526" stroke-width=".3387"/>
 <path d="m440.4,241.3-14.099,3.507-14.873,4.119-105.68,28.498-20.051,5.793-20.411,5.483-22.104,6.175c-.799.229-19.484,5.655-22.66,6.714-2.738.913-14.238,4.701-16.25,5.166l-3.321.983-4.217,1.226c-2.507.547-12.269,3.579-14.089,4.209l-4.635,1.354-5.505,1.62c-1.108.396-7,2.226-12.697,3.995l-11.299,3.548c-2.508.861-19.253,5.898-24.497,7.301l-12.062,3.553-7.291,2.161-6.657,2.086c-4.235,1.371-9.033,2.928-11.618,3.551-4.386,1.058-21.88,6.356-22.056,6.41-.321.099-.504.438-.407.76s.439.505.762.408c.174-.055 17.634-5.343 21.987-6.392 2.631-.637 7.454-2.199 11.707-3.577l6.593-2.066 7.333-2.174 12.024-3.541c5.257-1.407 22.058-6.463 24.578-7.327l11.264-3.537c5.708-1.771 11.611-3.604 12.744-4.009l5.422-1.597 4.707-1.374c2.083-.722 11.593-3.655 13.954-4.171l4.328-1.255 3.221-.957c2.059-.476 13.614-4.28 16.363-5.197 3.153-1.051 22.414-6.642 22.608-6.698l22.092-6.17 20.416-5.486 20.051-5.793 105.68-28.498 14.864-4.114 14.079-3.501c.328-.081.526-.411.445-.739-.08-.32-.41-.52-.74-.44z" fill="#fff" stroke="#292526" stroke-width=".6096"/>
 <path d="m428.06,257.02-6.707,2.896c-1.23.462-11.205,3.133-12.47,3.378l-3.678,1.117c-3.22,1.034-8.085,2.593-9.409,2.629-1.244.032-4.154.376-6.682,1.152-2.67.82-8.821,2.596-10.792,2.845l-5.381.84-4.053.861-13.025,2.721-.992.187c-2.18.408-5.824,1.089-8.068,1.748l-4.037,1.03-4.905,1.297c-1.26.419-2.887.661-4.462.895l-3.238.587-2.858.901c-1.688.57-3.437,1.16-5.037,1.403l-2.565.339c-1.411.172-2.432.295-3.748.688l-.819.243c-2.757.829-7.889,2.371-10.596,2.777l-2.872.349c-1.828.191-3.718.394-6.187,1.009l-4.003,1.065c-2.533.694-4.925,1.353-6.309,1.532-1.779.235-5.401,1.013-7.534,2.097-1.417.72-3.376,1.025-5.858,1.413l-.67.104c-2.65.418-6.689,1.626-8.166,2.15-1.115.395-2.978.677-4.475.901l-2.018.339-3.603.95-2.796.743-4.307,1.217c-2.2.658-4.691,1.403-5.976,1.612-1.834.298-3.794.823-5.522,1.285l-2.287.586-3.125.963c-1.918.644-4.305,1.444-6.756,1.96l-2.479.479c-2.518.471-5.373,1.003-7.314,1.788-1.949.789-5.583,1.764-8.235,2.475l-1.159.312-5.859,1.323c-2.701.567-5.252,1.105-6.614,1.555-2.738.9-6.083,1.952-11.118,3.02-5.6,1.188-10.344,2.616-11.665,3.027l-4.51,1.039c-2.109.431-4.5.92-6.361,1.512-3.953,1.259-8.51,2.419-9.812,2.743l-4.293,1.221c-3.451,1.007-8.177,2.389-11.231,3.043l-1.296.274c-2.16.456-4.2.887-5.702,1.347-3.956,1.21-4.15,1.254-6.548,1.8l-3.688.85-2.688.581c-2.188.457-4.667.974-7.103,1.715l-2.425.717c-2.158.628-3.862,1.125-6.385,2.155-1.906.78-4.917,1.537-8.107,2.339l-6.706,1.8c-4.852,1.495-14.833,4.422-16.167,4.718-.328.074-.537.399-.463.728s.398.536.728.463c1.385-.309 11.274-3.205 16.263-4.743l6.642-1.784c3.234-.81 6.287-1.577 8.274-2.391 2.462-1.008 4.139-1.495 6.263-2.113l2.441-.721c2.381-.727 4.833-1.237 6.996-1.689l2.72-.587 3.677-.849c2.387-.541 2.636-.599 6.635-1.82 1.453-.446 3.465-.87 5.598-1.32l1.299-.275c3.101-.663 7.85-2.052 11.319-3.066l4.245-1.205c1.312-.33 5.9-1.497 9.887-2.766 1.798-.572 4.156-1.055 6.237-1.481l4.624-1.068c1.309-.404 6.008-1.818 11.559-2.996 5.094-1.082 8.476-2.145 11.245-3.058 1.298-.427 3.936-.982 6.486-1.518l5.926-1.34 1.156-.31c2.682-.72 6.356-1.705 8.375-2.523 1.829-.739 4.62-1.259 7.081-1.718l2.507-.485c2.518-.532 4.944-1.345 6.893-1.998l3.009-.932 2.327-.597c1.703-.453 3.632-.971 5.403-1.259 1.365-.222 3.789-.944 6.132-1.647l4.229-1.197 2.846-.754 3.544-.937 1.936-.324c1.549-.232 3.477-.523 4.701-.958 1.44-.512 5.377-1.688 7.948-2.094l.668-.105c2.589-.403 4.634-.723 6.223-1.531 1.893-.961 5.317-1.732 7.143-1.974 1.464-.193 3.896-.86 6.472-1.566l3.974-1.057c2.388-.597 4.152-.783 6.021-.98l2.927-.354c2.791-.418 7.979-1.977 10.764-2.813l.817-.246c1.216-.361 2.144-.475 3.547-.646l2.6-.343c1.706-.259 3.505-.866 5.247-1.452l2.78-.879 3.105-.559c1.626-.242 3.307-.491 4.667-.944l4.803-1.269 4.099-1.047c2.186-.642 5.793-1.316 7.947-1.72l.998-.187 13.049-2.727 4.048-.86 5.286-.825c2.212-.277 8.847-2.227 10.997-2.888 2.28-.699 5.09-1.064 6.356-1.098 1.383-.037 5.233-1.238 9.749-2.687l3.538-1.081c1.282-.249 11.41-2.963 12.664-3.435l6.708-2.896 7.906-2.737c-.317.111-.662-.059-.772-.376s.062-.666.38-.777l-7.99,2.8z" fill="#fff" stroke="#292526" stroke-width=".6096"/>
 <path d="m444.35,254.74-1.601.318-5.491,1.182-1.854.546c-2.229.675-4.537,1.371-7.8,1.72-2.921.314-6.051,1.529-8.564,2.506l-3.271,1.171c-2.606.725-6.322,1.449-9.036,1.977l-.341.067c-1.559.304-4.513,1.381-7.37,2.422-2.257.824-4.39,1.604-5.647,1.934l-15.994,4.111c-2.47.619-12.838,4.733-15.227,5.723-1.224.508-4.812,1.521-8.285,2.504l-7.783,2.306c-3.39,1.18-14.257,4.248-17.552,5.006-1.361.312-7.067,2.094-13.673,4.156-9.313,2.907-20.905,6.524-23.393,6.968-2.926.522-9.366,2.527-14.541,4.14l-5.478,1.664-9.423,2.92c-4.639,1.473-9.437,2.993-11.297,3.479-1.751.456-5.845,1.845-10.179,3.313-4.5,1.526-9.154,3.104-11.903,3.891-3.464.99-10.235,3.189-15.677,4.957l-7.67,2.466-24.091,7.479c-2.109.337-12.37,3.68-19.86,6.122l-6.405,2.057-28.13,8.123c-4.24,1.211-27.486,8.704-29.763,9.554-1.138.425-8.423,2.57-15.468,4.646-11.878,3.499-13.524,4.006-13.765,4.168-.264.175-.334.515-.183.791s.507.386.797.259c.5-.221 7.404-2.252 13.497-4.048 7.064-2.08 14.37-4.233 15.549-4.672 2.269-.848 25.442-8.316 29.671-9.526l28.133-8.124 6.445-2.068c7.032-2.293 17.66-5.757 19.761-6.099 .083-.019 24.172-7.497 24.172-7.497l7.688-2.47c5.433-1.763 12.192-3.96 15.634-4.945 2.777-.794 7.445-2.377 11.96-3.908 4.312-1.461 8.385-2.842 10.095-3.289 1.891-.493 6.704-2.02 11.357-3.497l9.376-2.905 5.52-1.676c4.87-1.518 11.542-3.595 14.389-4.103 2.565-.459 13.711-3.937 23.544-7.006 6.58-2.055 12.266-3.829 13.585-4.132 3.4-.779 14.179-3.826 17.676-5.043l7.715-2.283c3.668-1.037 7.131-2.015 8.421-2.55 2.288-.949 12.687-5.072 15.055-5.665l16.009-4.116c1.314-.347 3.471-1.133 5.756-1.967 2.813-1.025 5.722-2.088 7.187-2.372l.34-.066c2.731-.532 6.476-1.263 9.129-1.998l3.386-1.209c2.445-.952 5.493-2.135 8.253-2.43 3.376-.363 5.845-1.108 8.023-1.768l1.826-.538 5.388-1.155 1.886-.412c.327-.069.406-.349.337-.677-.11-.3-.56-.47-.89-.41z" fill="#fff" stroke="#292526" stroke-width=".6096"/>
 <path d="m412.382,249.74a.782,.782 0 1,0 -1.564,0 .782,.782 0 1,0 1.564,0" fill="#fff" stroke="#292526" stroke-width=".3387"/>
 <path d="m409.79,263.91c0,.435-.349.782-.78.782-.435,0-.783-.348-.783-.782s.349-.783.783-.783 .78.35.78.78z" fill="#fff" stroke="#292526" stroke-width=".3387"/>
 <path d="m427.54,245.62c0,.435-.351.782-.779.782-.435,0-.785-.348-.785-.782s.351-.783.785-.783 .78.35.78.78z" fill="#fff" stroke="#292526" stroke-width=".3387"/>
 <path d="m423.35,259.65c0,.434-.351.782-.78.782-.435,0-.786-.349-.786-.782s.352-.784.786-.784c.43-.01.78.34.78.78z" fill="#fff" stroke="#292526" stroke-width=".3387"/>
 <path d="m356.273,275.15a.783,.783 0 1,0 -1.566,0 .783,.783 0 1,0 1.566,0" fill="#fff" stroke="#292526" stroke-width=".3387"/>
 <path d="m361.862,263.53a.782,.782 0 1,0 -1.564,0 .782,.782 0 1,0 1.564,0" fill="#fff" stroke="#292526" stroke-width=".3387"/>
 <path d="m379.443,258.81a.783,.783 0 1,0 -1.566,0 .783,.783 0 1,0 1.566,0" fill="#fff" stroke="#292526" stroke-width=".3387"/>
 <path d="m373.703,271.52a.783,.783 0 1,0 -1.566,0 .783,.783 0 1,0 1.566,0" fill="#fff" stroke="#292526" stroke-width=".3387"/>
 <path d="m378.713,273.26a.783,.783 0 1,0 -1.566,0 .783,.783 0 1,0 1.566,0" fill="#fff" stroke="#292526" stroke-width=".3387"/>
 <path d="m390.262,268.47a.782,.782 0 1,0 -1.564,0 .782,.782 0 1,0 1.564,0" fill="#fff" stroke="#292526" stroke-width=".3387"/>
 <path d="m396.152,254.23a.782,.782 0 1,0 -1.564,0 .782,.782 0 1,0 1.564,0" fill="#fff" stroke="#292526" stroke-width=".3387"/>
 <path d="m406.51,264.83c0,.434-.35.782-.78.782-.435,0-.783-.349-.783-.782s.349-.782.783-.782c.43-.01.78.34.78.78z" fill="#fff" stroke="#292526" stroke-width=".3387"/>
 <path d="m363.173,279a.783,.783 0 1,0 -1.566,0 .783,.783 0 1,0 1.566,0" fill="#fff" stroke="#292526" stroke-width=".3387"/>
 <path d="m286.71,283.96c0,.434-.349.785-.78.785s-.783-.352-.783-.785 .349-.781.783-.781 .78.35.78.78z" fill="#fff" stroke="#292526" stroke-width=".3387"/>
 <path d="m299.063,287.9a.783,.783 0 1,0 -1.566,0 .783,.783 0 1,0 1.566,0" fill="#fff" stroke="#292526" stroke-width=".3387"/>
 <path d="m306.953,278.69a.783,.783 0 1,0 -1.566,0 .783,.783 0 1,0 1.566,0" fill="#fff" stroke="#292526" stroke-width=".3387"/>
 <path d="m329.454,289.61a.784,.784 0 1,0 -1.568,0 .784,.784 0 1,0 1.568,0" fill="#fff" stroke="#292526" stroke-width=".3387"/>
 <path d="m325.643,273.14a.783,.783 0 1,0 -1.566,0 .783,.783 0 1,0 1.566,0" fill="#fff" stroke="#292526" stroke-width=".3387"/>
 <path d="m319.18,283.53c0,.434-.351.782-.779.782-.435,0-.784-.349-.784-.782s.35-.78.784-.78 .78.35.78.78z" fill="#fff" stroke="#292526" stroke-width=".3387"/>
 <path d="m337.753,279.51a.783,.783 0 1,0 -1.566,0 .783,.783 0 1,0 1.566,0" fill="#fff" stroke="#292526" stroke-width=".3387"/>
 <path d="m292.36,300.25c0,.431-.35.779-.78.779-.435,0-.785-.349-.785-.779 0-.435.35-.785.785-.785 .43,0 .78.36.78.79z" fill="#fff" stroke="#292526" stroke-width=".3387"/>
 <path d="m311.802,295.09a.782,.782 0 1,0 -1.564,0 .782,.782 0 1,0 1.564,0" fill="#fff" stroke="#292526" stroke-width=".3387"/>
 <path d="m233.202,304.08a.782,.782 0 1,0 -1.564,0 .782,.782 0 1,0 1.564,0" fill="#fff" stroke="#292526" stroke-width=".3387"/>
 <path d="m244.202,296.09a.782,.782 0 1,0 -1.564,0 .782,.782 0 1,0 1.564,0" fill="#fff" stroke="#292526" stroke-width=".3387"/>
 <path d="m266.223,289.54a.783,.783 0 1,0 -1.566,0 .783,.783 0 1,0 1.566,0" fill="#fff" stroke="#292526" stroke-width=".3387"/>
 <path d="m272.382,306.2a.782,.782 0 1,0 -1.564,0 .782,.782 0 1,0 1.564,0" fill="#fff" stroke="#292526" stroke-width=".3387"/>
 <path d="m278.283,292.73a.783,.783 0 1,0 -1.566,0 .783,.783 0 1,0 1.566,0" fill="#fff" stroke="#292526" stroke-width=".3387"/>
 <path d="m256.173,298.09a.783,.783 0 1,0 -1.566,0 .783,.783 0 1,0 1.566,0" fill="#fff" stroke="#292526" stroke-width=".3387"/>
 <path d="m251.62,312.49c0,.432-.35.78-.782.78s-.783-.349-.783-.78c0-.435.351-.784.783-.784s.78.35.78.78z" fill="#fff" stroke="#292526" stroke-width=".3387"/>
 <path d="m229.602,319.35a.782,.782 0 1,0 -1.564,0 .782,.782 0 1,0 1.564,0" fill="#fff" stroke="#292526" stroke-width=".3387"/>
 <path d="m96.909,339.61a.783,.783 0 1,0 -1.566,0 .783,.783 0 1,0 1.566,0" fill="#fff" stroke="#292526" stroke-width=".3387"/>
 <path d="m127.542,331.36a.782,.782 0 1,0 -1.564,0 .782,.782 0 1,0 1.564,0" fill="#fff" stroke="#292526" stroke-width=".3387"/>
 <path d="m156.15,323.8c0,.437-.351.783-.783.783s-.783-.347-.783-.783c0-.431.352-.782.783-.782s.78.35.78.78z" fill="#fff" stroke="#292526" stroke-width=".3387"/>
 <path d="m146.193,326.63a.783,.783 0 1,0 -1.566,0 .783,.783 0 1,0 1.566,0" fill="#fff" stroke="#292526" stroke-width=".3387"/>
 <path d="m172.743,317.96a.783,.783 0 1,0 -1.566,0 .783,.783 0 1,0 1.566,0" fill="#fff" stroke="#292526" stroke-width=".3387"/>
 <path d="m183.933,317.31a.783,.783 0 1,0 -1.566,0 .783,.783 0 1,0 1.566,0" fill="#fff" stroke="#292526" stroke-width=".3387"/>
 <path d="m209.2,310.48c0,.432-.351.78-.783.78s-.783-.349-.783-.78c0-.435.351-.784.783-.784s.78.35.78.78z" fill="#fff" stroke="#292526" stroke-width=".3387"/>
 <path d="m198.022,310.05a.782,.782 0 1,0 -1.564,0 .782,.782 0 1,0 1.564,0" fill="#fff" stroke="#292526" stroke-width=".3387"/>
 <path d="m206.25,326.77c0,.432-.35.779-.783.779s-.782-.348-.782-.779 .35-.784.782-.784 .78.35.78.78z" fill="#fff" stroke="#292526" stroke-width=".3387"/>
 <path d="m181.813,334.47a.783,.783 0 1,0 -1.566,0 .783,.783 0 1,0 1.566,0" fill="#fff" stroke="#292526" stroke-width=".3387"/>
 <path d="m155.893,342.43a.783,.783 0 1,0 -1.566,0 .783,.783 0 1,0 1.566,0" fill="#fff" stroke="#292526" stroke-width=".3387"/>
 <path d="m127.913,350.9a.783,.783 0 1,0 -1.566,0 .783,.783 0 1,0 1.566,0" fill="#fff" stroke="#292526" stroke-width=".3387"/>
 <path d="m98.049,360.09a.783,.783 0 1,0 -1.566,0 .783,.783 0 1,0 1.566,0" fill="#fff" stroke="#292526" stroke-width=".3387"/>
 <path d="m436.952,254.73a.782,.782 0 1,0 -1.564,0 .782,.782 0 1,0 1.564,0" fill="#fff" stroke="#292526" stroke-width=".3387"/>
</svg>
