<?xml version="1.0" encoding="UTF-8"?>
<svg width="442.06" height="312.24" enable-background="new 0 0 853.276 300.164" viewBox="0 0 853.276 300.164" xmlns="http://www.w3.org/2000/svg">
 <path d="m772.86 417.47c-15.289 4.565-34.863 6.2859-47.154 4.1456-6.2396-1.0865-11.887-2.5364-12.55-3.2222s-2.2461-0.7843-3.5177-0.21903-2.6087 0.36028-2.9713-0.4555-14.268-6.8704-30.901-13.455c-34.61-13.701-126.25-50.57-140.62-56.573-5.2976-2.2136-10.791-3.5095-12.208-2.8797s-2.9438 0.31736-3.3936-0.69427c-1.5015-3.3777-44.437-18.043-54.383-18.575l-9.8105-0.52505-100.54 43.719-100.54 43.719-3.756-9.0799c-2.0658-4.994-5.4825-14.158-7.5926-20.365l-3.8366-11.285-5.0782 1.1504c-2.793 0.6327-15.309 3.8562-27.813 7.1633-50.771 13.428-146.38 24.649-149.53 17.551-0.37862-0.85174-2.5244-0.73245-4.7683 0.26508-2.448 1.0882-4.4945 0.88112-5.1163-0.51772-0.57001-1.2823-2.3953-2.8895-4.0562-3.5717-18.663-7.6652-23.206-28.803-10.207-47.489 14.594-20.978 50.768-54.064 85.712-78.393 16.939-11.794 52.388-34.209 58.154-36.772 1.053-0.46812-2.0644-8.8849-8.5466-23.075-5.6124-12.286-10.477-23.096-10.81-24.023-0.39969-1.1118 41.781-20.353 123.97-56.55l141.33-62.314c17.264-31.896 0.81572 0.74269 15.868-29.414 1.5004-2.3283 3.7063-6.6642 4.9019-9.6353s4.8601-10.994 8.1432-17.828 7.5554-16.342 9.4939-21.128 4.5504-10.407 5.8041-12.492 5.4864-10.985 9.406-19.779 8.6285-19.18 10.464-23.08 5.7449-12.749 8.6869-19.662 7.2933-14.835 9.6695-17.603c4.7363-5.5168 34.961-21.904 40.888-22.168 1.9491-0.08693 8.4269-1.9519 14.395-4.1444s11.589-3.6625 12.492-3.2666c1.8062 0.79212 32.375 45.785 45.121 66.411 4.4295 7.1681 11.018 16.992 14.642 21.831s7.8421 11.589 9.3745 15.001 5.0581 9.1 7.835 12.641c4.2048 5.3625 5.6986 6.1501 8.935 4.7114 3.1454-1.3983 4.2712-0.87423 5.9062 2.7493 3.402 7.5394 5.3425 7.6921 19.948 1.5693 9.1373-3.8305 14.232-5.1752 15.353-4.0526 1.2085 1.2102 7.4088-3.6489 22.168-17.373l20.491-19.053 21.886-7.367c38.09-12.821 49.009-12.319 39.713 1.8276-2.2452 3.4167-4.8269 6.5433-5.7371 6.9479s-1.3284 1.47-0.92938 2.3676-0.02218 1.9643-0.936 2.3706-5.2539 5.9762-9.6448 12.378-15.137 21.761-23.881 34.132l-15.898 22.493 13.718 30.859c8.3627 18.812 13.256 31.536 12.534 32.593-0.70895 1.0387 3.5167 12.335 10.538 28.168 10.864 24.502 13.283 33.076 9.1564 32.461-0.90544-0.13498 0.73932 6.1102 3.655 13.878 6.1773 16.458 7.4943 14.264-17.758 29.575-14.254 8.6427-15.543 9.8186-14.142 12.906 1.6756 3.6931 8.7214 29.494 14.559 53.312 2.0193 8.2395 3.3284 16.222 2.9092 17.738s0.12671 3.6471 1.2131 4.735 3.2089 6.532 4.7166 12.098c21.283 78.569 26.861 100.48 26.618 104.56-0.28984 4.8556-18.334 13.042-24.375 11.058-3.8307-1.2578-4.1254-1.1268-3.975 1.767 0.0893 1.7191-0.71987 3.4024-1.7982 3.7408s-6.2895 1.9078-11.581 3.4875zm35.277-25.492c-0.75339-2.3525-4.623-17.343-8.5991-33.312s-9.6014-37.655-12.501-48.191-5.774-21.351-6.3883-24.034l-1.1169-4.8783-18.156 8.0709c-24.062 10.697-25.232 7.6082-1.4046-3.7092l18.155-8.623-3.6753-11.103c-2.0214-6.1064-4.6652-16.365-5.875-22.796s-3.5635-17.164-5.2304-23.85c-2.698-10.822-3.4222-12.24-6.5996-12.928-2.7125-0.58685-43.896 4.0418-51.921 5.8355-2.3445 0.524 80.524 184.99 84.809 188.79 3.412 3.0227 4.501 2.9462 11.815-0.83051 7.2716-3.7546 7.9235-4.577 6.6872-8.4373zm-27.233 13.572c-0.87154-0.95627-7.5377-0.45377-14.814 1.1167s-18.151 2.664-24.168 2.4302c-12.258-0.47639-7.7549-2.3662 8.2359-3.4563 5.7384-0.3912 15.334-2.0685 21.324-3.7273l10.89-3.016-42.201-93.798c-27.481-61.081-42.786-93.581-43.878-93.174-0.92243 0.34314-6.1024 1.5509-11.511 2.6839-18.91 3.9613-53.189 13.321-53.706 14.663-0.28641 0.7448 0.94838 4.1952 2.744 7.6676 2.2106 4.2749 2.59 6.6278 1.1753 7.2871-1.1492 0.53554-29.53 13.132-63.068 27.992l-60.979 27.018 6.092 3.3948c3.3506 1.8672 8.9679 4.4232 12.483 5.6801s6.7805 3.1621 7.2569 4.2338 1.5258 1.9485 2.332 1.9484c3.0259-2.3e-4 23.371 11.06 22.848 12.421-0.50394 1.3106-3.1261 0.2987-15.023-5.7974-2.4317-1.246-12.358-6.2703-22.059-11.165l-17.638-8.8996-20.412 9.0415-20.412 9.0416 7.2224 0.85886c8.0548 0.95786 53.02 18.148 54.156 20.704 0.39887 0.89726 1.679 1.2074 2.8447 0.68918s20.866 6.7023 43.779 16.046 51.278 20.818 63.034 25.5c59.6 23.736 74.983 30.181 75.659 31.704 0.40675 0.91499 2.1184 1.0506 3.8037 0.30147s4.5083-0.64698 6.2734 0.22703c10.709 5.3027 63.32-3.4626 57.713-9.6152zm-59.389 0.99235c-3.1131-2.1097-7.5122-4.425-9.7758-5.1449s-8.75-3.8202-14.414-6.8894-13.984-7.1934-18.488-9.165-13.544-6.4805-20.09-10.02-13.526-7.1235-15.512-7.9643-7.2267-3.349-11.645-5.5736-19.411-9.5417-33.315-16.26c-27.668-13.368-33.842-16.831-33.162-18.597 0.39347-1.0233 17.407 6.7552 34.449 15.75 3.1349 1.6546 10.714 5.3837 16.841 8.2868s15.13 7.3268 20.006 9.8304 27.619 13.601 50.541 24.662 42.025 20.893 42.45 21.85c1.5068 3.3896-2.3002 3.0209-7.8845-0.76352zm60.448-223.93c1.1376-1.5612-3.1174-0.32603-11.339 3.2915-7.937 3.4925-14.274 5.3619-15.967 4.7107-1.9702-0.7576-4.2672-5.1839-7.6982-14.835-4.195-11.799-5.3343-13.732-8.0142-13.593-3.6613 0.19015-2.563 3.875 2.2773 7.6401 1.7463 1.3584 3.6429 4.1954 4.2146 6.3045 0.67577 2.4929-2.6563-0.16445-9.5226-7.5945l-10.562-11.429-12.766 5.675c-14.202 6.3132-54.186 19.39-68.449 22.386-11.287 2.3708-21.36 1.3886-25.747-2.5107-4.6829-4.1617-16.843-30.75-18.539-40.536-1.8864-10.883 0.2688-13.109 28.088-29.004 45.697-26.11 45.674-26.091 15.94-12.506-27.928 12.76-46.519 19.685-49.633 18.488-0.86658-0.33322-2.626-2.4084-3.9099-4.6116s-3.5213-4.5936-4.9721-5.3119c-1.4713-0.72853-7.1498-10.911-12.841-23.027-9.8061-20.875-10.35-21.679-13.959-20.654-3.433 0.97525-3.4358 2.0677-0.03347 12.719 3.7344 11.691 57.075 123.16 66.562 139.1 4.7946 8.0552 5.3268 8.4106 10.161 6.7866 8.3248-2.7966 53.177-13.581 70.629-16.983 22.28-4.3425 50.159-9.1147 51.11-8.7488 1.3821 0.53147 23.078-13.158 24.97-15.755zm9.6452-22.269-5.3105-11.946-17.606 5.5817c-9.6832 3.07-19.087 5.6586-20.896 5.7527-2.9621 0.15384-2.6475 1.6132 3.1514 14.618l6.442 14.447 19.765-8.2536 19.765-8.2536-5.3105-11.946zm-444.72 200.67-1.1108-3.9038-45.618 20.279-45.618 20.279 1.0401 4.4538 1.0401 4.4538 45.689-20.829 45.689-20.829-1.1108-3.9038zm98.109-40.681c-0.56286-6.7925-2.5118-6.2127-49.846 14.829-27.052 12.025-46.059 21.222-45.67 22.097 0.36639 0.82419 0.73678 2.8583 0.82309 4.5203 0.14089 2.7127 5.0018 0.86807 47.523-18.034 36.425-16.192 47.321-21.6 47.171-23.412zm90.044-42.471-1.8137-4.0799-44.063 19.588-44.063 19.588 1.8137 4.0799 1.8137 4.0799 44.063-19.588 44.063-19.588-1.8137-4.0799zm95.899-39.21c-0.31299-0.66709-1.7543-2.0053-3.2029-2.9737-2.2135-1.4798-9.7107 1.2927-46.973 17.371l-44.339 19.132 1.847 4.1548 1.847 4.1548 45.695-20.313c25.132-11.172 45.439-20.859 45.126-21.526zm-138.84 49.503c40.293-17.912 43.127-19.405 40.96-21.575-1.2806-1.2823-6.527-9.5043-11.659-18.271l-9.3303-15.939-21.333 9.3768c-11.733 5.1572-31.244 13.79-43.359 19.183l-22.026 9.8061 7.6869 18.543c8.4773 20.449 10.473 23.411 13.642 20.246 1.1713-1.1697 21.609-10.786 45.418-21.37zm-151.75 60.127c-0.92695-3.619-4.0601-13.197-6.9626-21.285l-5.2773-14.705-44.246 19.636-44.246 19.636 1.5656 5.6383c6.254 22.524 8.3421 30.548 8.885 34.145l0.62212 4.121 45.672-20.303 45.672-20.303-1.6854-6.58zm89.218-56.101-9.281-19.643-44.44 19.19-44.44 19.19 5.674 15.461c3.1207 8.5033 6.2509 18.063 6.956 21.243l1.2819 5.7822 46.765-20.789 46.765-20.789-9.281-19.643zm191.12-74.385c-3.2032-5.832-7.9156-14.264-10.472-18.739l-4.6481-8.1348-44.973 19.443-44.973 19.443 2.764 6.2148c2.7252 6.1277 15.15 26.508 18.225 29.896 1.2124 1.3354 11.859-2.8288 45.74-17.89l44.16-19.631-5.8239-10.604zm156.54-80.975c-3.1595-7.1073-4.2709-8.3694-5.9201-6.7225-1.4554 1.4534-0.92895 4.5053 1.8593 10.778 3.1595 7.1073 4.2709 8.3694 5.9201 6.7224 1.4554-1.4534 0.92895-4.5053-1.8593-10.778zm-14.092 8.704c-1.6415-4.7305-2.7674-5.948-4.7044-5.0869-1.8916 0.84086-1.7846 2.8458 0.41586 7.7959 3.7799 8.503 7.3881 6.2237 4.2885-2.709zm7.8952-2.8581c-1.8169-4.0872-3.377-5.4607-5.6198-4.9479-2.5556 0.58433-2.5726 1.9069-0.09647 7.4771 2.4745 5.5664 3.4717 6.4444 5.6198 4.9479 1.8883-1.3155 1.9151-3.3861 0.09647-7.4771zm5.1617-25.76c-7.2547-16.32-12.22-25.84-13.24-25.386s2.7209 10.517 9.9756 26.837 12.22 25.839 13.24 25.386-2.7208-10.517-9.9756-26.837zm-21.093 31.69c-1.7571-3.9526-3.1629-5.3339-4.3376-4.2618-3.267 2.9813 1.3782 12.581 5.254 10.858 0.92575-0.41152 0.51335-3.3798-0.91643-6.5961zm-8.7038 0.72594c-1.3859-0.94595-1.9566-0.2179-1.7822 2.2736 0.33637 4.8054 3.1179 6.7471 3.5136 2.4528 0.16905-1.8341-0.6101-3.961-1.7314-4.7264zm-5.1841 3.9828c-0.40354-1.7492-1.7297-2.4895-3.2494-1.8139-1.5139 0.67299-1.9473 2.5367-1.0562 4.5414 1.768 3.9772 5.3316 1.7198 4.3056-2.7275zm-9.5305 1.5076c-2.3964-0.92147-2.6549 2.1846-0.31477 3.7818 1.7678 1.2066 2.1527 1.037 1.9683-0.8671-0.12609-1.3019-0.87019-2.6135-1.6536-2.9148zm35.658-24.842c0.42997-1.9874 1.986-4.1488 3.4578-4.8031s2.1864-2.2912 1.5878-3.6375-2.4784-1.83-4.1776-1.0746-4.0017 0.45967-5.1169-0.65704c-1.6247-1.6269-5.4427-0.51223-19.214 5.6098l-17.187 7.6402-3.0005-6.9727c-1.6503-3.835-5.5476-16.217-8.6606-27.515-3.3972-12.33-6.4354-20.648-7.5992-20.806-3.098-0.42165-59.811 27.831-80.25 39.978-10.263 6.0993-19.433 11.451-20.377 11.892s-2.6595 3.0142-3.8103 5.7176c-1.9361 4.5479-1.4176 6.4334 6.9386 25.231l9.031 20.316 7.8313 1.1294c17.414 2.5113 50.876-7.6885 101.79-31.027 33.288-15.259 38.07-17.853 38.756-21.02zm-32.381 13.041c-4.0424-0.5502-3.3649-5.7887 0.96436-7.4565 4.8164-1.8554 8.2907 2.5064 4.4441 5.5795-1.5371 1.228-3.9709 2.0726-5.4085 1.877zm22.231-9.6977c-0.70518-0.48131-3.3718 0.44672-5.9258 2.0623-3.8462 2.433-4.8914 2.3802-6.0862-0.30771-1.0551-2.3735-0.34675-3.7323 2.6373-5.0588 2.244-0.99753 4.309-1.2983 4.5891-0.66834s2.5686-0.15742 5.0856-1.7497c3.3459-2.1165 4.8685-2.2381 5.6624-0.45213 1.1459 2.5777-3.7714 7.6698-5.9624 6.1744zm-519.83 231.16c-0.3546-0.79768-3.367-0.80473-6.6941-0.01568s-10.271 1.985-15.432 2.6577c-8.8584 1.1548-9.5179 0.91761-11.815-4.2487l-2.4324-5.4718-20.761 4.9575c-34.974 8.3512-70.071 14.942-70.802 13.296-0.7888-1.7744-2.5978-1.3011 43.771-11.452 19.103-4.1819 37.691-8.3669 41.307-9.3001 5.7912-1.4944 6.82-1.1456 8.6298 2.9255 2.6371 5.9322 5.8796 6.7464 18.546 4.6568 13.394-2.2096 12.84-1.8015 12.32-9.0822-0.68231-9.5499-42.904-103.73-49.802-111.08-4.9192-5.2466-5.4269-5.3477-11.225-2.2347-29.099 15.623-88.504 57.487-92.218 64.987-4.0123 8.103 5.0988 39.097 16.72 56.877 11.828 18.098 15.301 24.47 13.719 25.173-1.5526 0.6902-36.335 4.1467-42.201 4.1938-2.1181 0.01696-3.0956 0.73051-2.5823 1.8851 0.45422 1.0218 2.2936 1.6972 4.0876 1.501s4.9955-0.41355 7.1146-0.48289c36.934-1.2083 85.394-8.817 132.45-20.797 28.483-7.2506 28.104-7.1263 27.296-8.9435zm-67.754-14.972c-8.1308 1.876-9.5461 1.4237-9.5856-3.0632-0.02735-3.1075 0.17168-3.228 1.812-1.0964 1.0317 1.3407 4.0976 1.7642 6.966 0.96242 4.0157-1.1225 4.8473-2.0528 3.8469-4.3034-1.3531-3.0439-7.8771-3.2388-9.8862-0.29542-0.65681 0.96229-1.6411 0.79699-2.1873-0.36735s-1.3474 0.45921-1.7806 3.6079c-0.97276 7.0718-1.6546 7.3861-10.139 4.6727-8.4535-2.7034-9.6643-5.1847-5.3-10.861 1.8731-2.4364 2.638-4.1237 1.6997-3.7497s-2.8626 2.6032-4.2763 4.9538-2.8526 4.0895-3.1974 3.8644-4.472-3.7018-9.1715-7.7261c-10.741-9.1973-12.462-12.565-6.8722-13.447 2.2602-0.35655 6.1145-1.5276 8.5653-2.6024 4.9242-2.1595 12.319 2.3182 15.446 9.3531 2.1495 4.8355 12.116 8.1994 20.695 6.9848 5.7014-0.80716 6.8012-0.24452 9.6396 4.9318 1.7622 3.2136 2.5714 6.023 1.7981 6.2432s-4.4061 1.0924-8.073 1.9384zm-14.111-6.5106c0.75267-2.6735 0.31263-3.6634-2.1764-4.8959-3.8704-1.9165-4.8157-1.5115-7.4848 3.2064-2.0993 3.7108-2.0727 3.7677 2.2494 4.8013 5.5136 1.3186 6.2518 1.0086 7.4118-3.1118zm-14.408-9.2926c3.633-6.0405-2.2658-10.66-11.575-9.0647-8.3113 1.4244-8.2154 2.5374 0.79697 9.254 7.2388 5.3948 7.4213 5.3916 10.778-0.18926zm41.99-34.181c-3.2403-7.2891-3.2385-7.2958 2.5648-9.6186 5.7109-2.2858 5.8596-2.2069 8.9544 4.755 3.113 7.0028 3.0852 7.1069-2.5648 9.6186-5.6759 2.5232-5.7323 2.4932-8.9544-4.755zm10.048-3.7768c-0.75149-1.6905-1.9421-2.885-2.6458-2.6544s-2.674 0.74453-4.3785 1.1421c-2.349 0.54793-2.6121 1.818-1.0874 5.2481 1.7545 3.9469 2.4887 4.1937 5.7448 1.9316 2.4081-1.673 3.2482-3.6847 2.3668-5.6673zm-77.834 20.053c-1.2594-1.2611-1.9691-3.4234-1.5772-4.805 2.3703-8.3564 7.5287-22.155 8.4325-22.557 0.58668-0.2608 1.8825-2.5959 2.8797-5.1891s2.9146-5.2046 4.261-5.8031 2.1215-1.8226 1.7225-2.7202 1.9061-2.8018 5.1224-4.2316c7.24-3.2184 8.3549 0.34323 1.8566 5.9309-2.4764 2.1294-4.0918 4.7954-3.5899 5.9246s-0.20008 3.4835-1.5601 5.2319-2.1192 5.209-1.6872 7.6903c0.96175 5.5233-3.319 14.092-8.1022 16.218-1.9434 0.8639-3.9688 2.7029-4.5009 4.0866-0.68557 1.7829-1.6345 1.8479-3.2572 0.22298zm6.6113-7.855c4.7367-4.4458 7.1946-14.201 3.8976-15.469-1.2226-0.47012-3.7368 3.5845-6.0349 9.7323-4.2751 11.437-4.1873 11.672 2.1373 5.7362zm8.6594-25.433c-0.39902-0.89759-1.2581-0.85165-1.9091 0.1021s-0.85715 2.4685-0.45813 3.366 1.2581 0.85165 1.9091-0.1021 0.85713-2.4685 0.45813-3.366zm47.091 3.4554c-0.85519-0.85636-2.5573-4.4383-3.7824-7.9599-2.0611-5.9246-1.8392-6.5968 2.9701-8.9999l5.1976-2.597 3.7777 8.4981c3.7672 8.4745 3.7633 8.5038-1.4152 10.557-2.8561 1.1324-5.8926 1.3581-6.7478 0.50176zm6.4882-10.43c-1.1781-2.6501-2.9001-3.4062-6.0712-2.6657-3.9811 0.9297-4.1913 1.5631-2.0887 6.293s2.7137 4.9982 6.0712 2.6657c2.6743-1.858 3.2667-3.6429 2.0887-6.293zm582.05-166.43c-0.93822-0.90616-0.69924 0.54347 0.53105 3.2214s1.9979 3.4194 1.7058 1.6476-1.2987-3.9628-2.2369-4.869zm-4.5803-3.3015c0.84072-0.37371 0.67245-2.6054-0.37393-4.9592-1.5061-3.3879-2.1895-3.7001-3.2799-1.4981-0.79341 1.6023 0.07969 6.0803 2.0594 10.562 2.3058 5.2202 2.8821 5.9368 1.7513 2.1776-0.92699-3.0815-0.99757-5.9086-0.15686-6.2823zm-499.73 229.19c20.892-8.57 21.062-8.6777 19.479-12.306-2.8168-6.4553 0.48558-11.696 6.3329-10.05 2.1589 0.60779 3.6702-0.05919 5.5188-2.4356 1.6972-2.1819 19.565-10.804 53.611-25.87 28.086-12.429 52.709-23.352 54.718-24.273 3.618-1.6599 3.5528-1.9002-6.8667-25.339l-10.519-23.664-22.461 9.9268c-12.354 5.4598-51.315 22.49-86.582 37.846l-64.121 27.919 5.4238 14.356c4.8171 12.75 17.008 39.849 20.481 45.526 0.90591 1.4808 1.6802 1.3495 2.5998-0.44088 0.78523-1.5288 9.7489-6.0117 22.386-11.195zm475.03-214.12c-0.67552-1.5196-0.73872-4.036-0.14042-5.5919 0.84606-2.2003 0.19929-2.434-2.9105-1.0515-3.4528 1.5349-3.6645 2.5284-1.5516 7.2815 1.6594 3.7328 2.9913 4.9604 4.1388 3.8145 0.93059-0.92931 1.1393-2.933 0.46374-4.4526zm10.994-6.0461c-1.7734-3.9893-3.2774-5.3837-4.9871-4.6237-2.6905 1.196-2.1792 4.0103 0.80237 4.4161 1.0368 0.14111 2.1537 1.8952 2.4822 3.8981 0.33372 2.0354 1.4008 3.2842 2.4194 2.8315 1.0023-0.44556 0.6797-3.3804-0.71683-6.522zm9.7918-4.3528c-0.95044-2.138-2.477-3.9892-3.3923-4.1138s-0.56383 2.249 0.78116 5.2746 2.8715 4.8768 3.3923 4.1138 0.16925-3.1366-0.78116-5.2746zm-330.36 150.4c-1.7419 0.28514-4.686 1.5762-6.5425 2.8689s-0.43133 1.0595 3.1671-0.51843 5.1174-2.6357 3.3755-2.3505zm127.2-59.113c-2.9542-3.6978-3.9649-3.2485-2.1048 0.93568 0.79802 1.7952 2.1166 2.968 2.9301 2.6064s0.44219-1.9556-0.82529-3.5421zm27.452-62.531c-11.728-24.617-21.718-44.911-22.199-45.098s-6.8335 2.1889-14.115 5.2806c-14.593 6.1962-14.382 5.8048-9.5852 17.712 3.3816 8.3947 0.5522 15.219-7.1476 17.24l-5.2913 1.3885 5.9047 11.836c5.6427 11.311 6.0801 11.758 9.8558 10.08 3.8219-1.699 4.1253-1.3642 9.2871 10.247l5.3361 12.004-4.6277 3.8789c-3.6089 3.025-4.2344 4.7637-2.8412 7.8978 1.3004 2.9252 2.8488 3.7166 5.6903 2.908 2.1471-0.61095 3.5546-1.8963 3.1278-2.8563s1.7944-2.8881 4.936-4.2846c5.5759-2.4787 5.781-2.3837 8.6138 3.9887l2.9019 6.5279 15.739-6.9965 15.739-6.9965-21.324-44.757zm149.52-17.326c-1.5078-3.392-3.9802-1.5181-3.3188 2.5154 0.40341 2.4603 1.1354 2.9476 2.4522 1.6325 1.0324-1.031 1.4224-2.8976 0.86659-4.1479zm-319.91 142.08c4.3963-4.8076-16.136 2.9086-64.057 24.073-46.801 20.67-50.15 22.383-48.968 25.044 1.1871 2.6722 4.8062 1.2512 56.161-22.052 30.191-13.699 55.78-25.879 56.865-27.065zm154.48-70.168c-1.3214-2.9725-2.5663-3.5494-4.9233-2.2817-4.4374 2.3868-1.1632 9.7521 3.4279 7.7112 2.3714-1.0542 2.7803-2.5389 1.4954-5.4294zm177.34-75.908c-0.37544-0.84462-1.6188-1.6631-2.763-1.8188s-1.5714 0.86178-0.94932 2.2611 1.8654 2.2178 2.763 1.8188 1.3248-1.4165 0.9493-2.2611zm9.7918-4.3528c-0.37546-0.84462-1.6188-1.6631-2.763-1.8188s-1.5714 0.86178-0.94933 2.2611 1.8654 2.2178 2.763 1.8188 1.3248-1.4165 0.94933-2.2611zm-456.09 200.68c-0.399-0.89758-1.4599-1.3055-2.3574-0.90649s-1.3055 1.4598-0.9065 2.3574 1.4599 1.3055 2.3574 0.9065 1.3055-1.4599 0.90649-2.3574zm241.56-107.32c-0.42684-0.96019-16.585 5.2668-41.298 15.915-48.419 20.863-64.073 28.433-63.141 30.532 0.4268 0.96013 20.784-7.3706 52.917-21.655 32.522-14.457 51.959-23.81 51.522-24.792zm11.4-5.1329c-0.399-0.89759-1.4599-1.3055-2.3574-0.9065s-1.3055 1.4599-0.90649 2.3574 1.4599 1.3055 2.3574 0.9065 1.3055-1.4599 0.9065-2.3574zm-112.11 43.972c3.9139-1.7399 6.7896-3.8978 6.3906-4.7953-0.42992-0.96709-6.7094 1.0281-15.413 4.8973-12.51 5.5612-14.512 6.925-13.501 9.199 0.99455 2.2372 2.3388 1.9563 8.2971-1.7339 3.9107-2.422 10.313-5.8272 14.226-7.567zm-25.342 7.3566c-1.3458-3.0274-0.36296-3.7476 13.563-9.9383 15.856-7.0487 17.462-10.937 2.1647-5.2426l-8.3847 3.1214-4.3528-9.7918-4.3528-9.7918 7.5308-3.9434c8.0526-4.2166 9.0566-7.1518 2.0278-5.9279-3.4102 0.59381-4.4991-0.15372-5.3154-3.6492-1.3421-5.747 3.3008-9.9528 8.0056-7.2521 1.9409 1.1142 3.8385 1.2208 4.2168 0.23684s-2.2875-3.0069-5.9242-4.4954c-6.3421-2.5959-6.7646-3.1799-10.347-14.302-2.8151-8.7396-3.2216-12.931-1.6505-17.016 1.1465-2.9815 1.4552-5.4804 0.68617-5.553s-8.5828 3.1731-17.364 7.2127-16.559 6.9399-17.284 6.445c-1.7094-1.1667-6.493 1.1006 65.62-31.102 34.531-15.42 63.551-28.783 64.49-29.695 6.3882-6.2088-7.522-1.0246-67.317 25.088l-67.758 29.59 2.2032 7.5999c3.0088 10.379 34.745 81.523 36.702 82.275 2.9887 1.1493 4.2859-0.61744 2.8406-3.8687zm-21.764-48.959-7.9802-17.952 4.8959-2.1764 4.8959-2.1764 7.9802 17.952 7.9802 17.952-4.8959 2.1764-4.8959 2.1764-7.9802-17.952zm9.003-0.88646c-1.6187-4.386-4.1909-8.5924-5.7161-9.3476-2.0172-0.99883-2.4177-1.8937-1.4695-3.2829 1.7177-2.5165-0.73499-5.0777-3.991-4.1676-2.05 0.57304-1.5451 3.237 2.4752 13.06 2.7778 6.7869 5.8079 12.857 6.7334 13.488 3.7632 2.5685 4.7357-2.2502 1.9679-9.75zm47.49 32.982c-0.78334-0.30122-0.74058 0.83413 0.09505 2.523 0.92343 1.8664 1.482 2.0812 1.4243 0.5477-0.05228-1.3877-0.73598-2.7695-1.5193-3.0707zm67.403-30.377c-1.1735-2.6398-3.0698-4.927-4.214-5.0828s-4.6792-6.1292-7.8555-13.275l-5.7751-12.991 4.5132-1.0993c4.152-1.0113 4.2873-1.4987 1.6911-6.0883-2.151-3.8025-3.7506-4.7248-6.7259-3.8782-3.7175 1.0578-4.2148 0.41125-10.42-13.549l-6.5167-14.66 8.7871-3.3154 8.7871-3.3154 4.2435 6.9087 4.2435 6.9087-2.8863-7.1532c-2.7344-6.7766-2.6379-7.2311 1.8311-8.6319 4.0154-1.2586 5.1734-0.66323 7.781 4.0002 3.4909 6.2432 6.4327 7.9966 8.4522 5.0378 1.0008-1.4663 0.67254-2.3121-1.173-3.0218-1.4096-0.54202-3.8963-3.9548-5.526-7.5839s-3.8385-7.1139-4.9083-7.744c-1.1826-0.69647-12.665 3.5234-29.289 10.764l-27.344 11.91 2.7947 7.6096 2.7947 7.6096-8.4056 3.981-8.4056 3.981-3.7288-7.0962c-3.55-6.756-3.9922-7.0035-9.2206-5.1611-6.5888 2.3217-6.2364 3.9835 1.3368 6.3046 4.6186 1.4155 6.3202 3.2258 9.2704 9.8625 3.2722 7.361 3.2614 8.5684-0.11503 12.785-2.0507 2.5607-5.5206 5.6369-7.7108 6.8359s-3.7537 2.6942-3.4743 3.3226 0.57284 2.3927 0.65219 3.9206c0.11048 2.1272 1.1444 2.1352 4.4127 0.03413 9.552-6.1405 11.066-7.787 10.92-11.874-0.14701-4.1111-0.07635-4.1098 1.8853 0.03476 1.1209 2.3682 1.2824 4.996 0.35875 5.8394-1.0881 0.99364 0.42609 2.4356 4.301 4.096l5.9802 2.5625-6.1213-12.088c-3.8242-7.5518-5.7425-13.073-5.1118-14.713 0.74171-1.9289 2.3614 0.4157 6.1053 8.8377l5.0958 11.463 5.1964-2.5995c5.164-2.5832 5.1738-2.6588 1.5682-12.08l-3.6283-9.4806-4.9774 2.2126c-2.7375 1.2169-5.3038 1.4782-5.7028 0.58065s2.243-2.9516 5.871-4.5644l6.5966-2.9324 5.1458 12.86c3.683 9.2042 4.5143 13.001 2.9244 13.359-1.2217 0.27435-1.6337 1.8207-0.91548 3.4364 1.6714 3.7598-0.04746 8.2299-3.8073 9.9013-2.043 0.90819-2.3869 2.5445-1.1293 5.3735 1.6982 3.8202 2.2691 3.8339 9.3842 0.22594l7.576-3.8417 4.277 8.2973c3.9392 7.6418 3.9987 8.5153 0.75337 11.056-6.5481 5.1263-13.18 6.1571-15.524 2.413-2.6519-4.2356-4.9801-3.4491-5.3654 1.8124-0.16137 2.2038-2.5986 5.546-5.5069 7.5517-12.111 8.3522-1.9446 5.6172 27.08-7.2851l31.007-13.784-2.1336-4.7996zm25.726-7.0309c-1.7419 0.28515-4.686 1.5762-6.5425 2.8689s-0.43133 1.0595 3.1671-0.51842 5.1173-2.6357 3.3755-2.3505zm196.5-91.011c-0.48932-1.1007-2.1792-1.9344-3.7552-1.8525-1.8938 0.09835-2.4222 1.1461-1.5583 3.0896 0.71899 1.6174 2.4088 2.451 3.7552 1.8525s2.0476-1.9888 1.5583-3.0896zm8.1255-3.7046c-0.1568-0.35276-1.3867-0.1517-2.7331 0.44681s-2.1317 1.7996-1.7453 2.669 1.6164 0.66834 2.7331-0.44681 1.9021-2.3162 1.7452-2.669zm-18.505 4.0785c-0.78335-0.30122-0.74058 0.83413 0.09503 2.523 0.92345 1.8664 1.4821 2.0812 1.4243 0.5477-0.05227-1.3876-0.73595-2.7695-1.5193-3.0707zm-184.87 83.607c-0.39902-0.89759-0.77201-2.2313-0.82888-2.9638s-5.8087 1.1648-12.782 4.2162c-11.011 4.8184-12.512 5.9236-11.411 8.4048 1.0946 2.467 2.9376 2.1144 13.507-2.5842 7.0719-3.1437 11.933-6.1301 11.514-7.073zm212.38-95.546c-0.08631-1.662-1.29-5.5706-2.6748-8.6858l-2.5178-5.664-9.4857 4.6334c-9.153 4.4708-9.4437 4.8203-8.2888 9.9627 0.65825 2.9312 1.6448 5.5016 2.1923 5.7122 0.87795 0.33758 16.904-1.7781 19.817-2.6162 0.61283-0.17633 1.0436-1.6804 0.95729-3.3424zm-646.38 284.34c-0.39902-0.89759-1.2581-0.85164-1.9091 0.1021s-0.85716 2.4685-0.45814 3.3661 1.2581 0.85164 1.9091-0.10212 0.85714-2.4685 0.45814-3.366zm336.85-151.42c-1.5793-2.4966-2.2389-5.1169-1.4658-5.8229 0.80677-0.73672-0.51282-2.4375-3.0973-3.9919-5.232-3.1468-9.4529-11.493-7.8804-15.582 0.60435-1.5716 0.36249-2.5065-0.54416-2.1035-5.2396 2.3292-1.3292 18.314 5.1425 21.021 2.401 1.0044 2.6597 1.5865 1.2938 2.9103-2.3444 2.2721-0.89809 4.8651 3.8986 6.9896 5.5271 2.4479 5.9886 1.8528 2.6527-3.4207zm15.3-3.148c2.7473-3.1011 2.6546-5.093-0.70963-15.242-4.148-12.514-7.4952-16.485-14.314-16.985-5.2302-0.38298-4.0753 2.1273 1.3289 2.8886 5.8568 0.82504 10.117 10.836 7.6359 17.944-1.7797 5.0977-1.7163 5.2931 1.3221 4.0732 3.0563-1.2271 3.0775-1.1652 0.50155 1.461-1.4794 1.5083-3.7608 2.8063-5.0698 2.8845-1.5235 0.09094-1.6993 1.6731-0.48864 4.3966 2.0822 4.684 4.7252 4.3006 9.7939-1.421zm21.412-15.577c-2.4278-4.6949-3.7904-5.7297-6.1587-4.6769-1.6726 0.74355-2.2609 1.8845-1.3071 2.5355 2.428 1.6573-0.47771 2.6576-3.8986 1.3422-2.2003-0.84606-2.1468 0.44672 0.24079 5.8176 3.0618 6.8877 3.084 6.8978 8.6554 3.9579 5.4149-2.8574 5.4904-3.1319 2.4682-8.9763zm-377.86 169.29c-0.21236-0.47772-2.3337-0.79821-4.7142-0.71222-3.6272 0.13107-3.8436-0.07903-1.3364-1.2974 2.5312-1.2301 2.4426-2.2498-0.57599-6.6268-5.926-8.5927-18.193-37.616-20.269-47.957-1.0713-5.336-2.6433-9.9692-3.4932-10.296-1.9251-0.74026-10.976 7.1701-21.571 18.853l-8.0783 8.9078 3.5282 10.85c1.9405 5.9675 5.8447 15.424 8.6759 21.015l5.1477 10.165 12.036-1.5019c12.174-1.5192 18.503-0.95386 14.145 1.2636-2.9338 1.493 10.07 0.88987 13.979-0.64834 1.6011-0.62999 2.7374-1.5363 2.525-2.014zm-37.973-11.778-9.2625 2.2462-3.8875-8.7451c-6.5782-14.798-5.6535-19.1 6.0798-28.285 3.3441-2.618 3.7162-2.3979 6.1154 3.6179 1.9937 4.999 1.9673 5.4864-0.12027 2.2198-4.0577-6.3494-5.3842-4.0339-2.2314 3.8953 1.5384 3.8691 2.1181 7.6547 1.2883 8.4125-1.0698 0.97692-0.68641 1.785 1.3177 2.7774 5.7935 2.8687-0.06322 9.5697-6.276 7.1808-2.2003-0.84606-2.5745-0.51539-1.6839 1.488 0.72717 1.6358 3.7643 2.127 8.3221 1.3459l7.177-1.23-3.13-8.6378c-3.093-8.5355-3.0728-8.5186 1.706 1.4278 2.6598 5.5361 4.6137 10.06 4.3419 10.053s-4.6623 0.99826-9.7566 2.2336zm-11.235-13.64c-0.78337-0.30121-0.74058 0.83413 0.09503 2.523 0.92345 1.8664 1.4821 2.0811 1.4243 0.54768-0.05228-1.3876-0.73596-2.7695-1.5193-3.0707zm23.842 1.7715c-1.2895-1.2912-1.8958-3.5146-1.3473-4.9409 0.72521-1.886 1.6366-1.9529 3.3416-0.2455 1.2895 1.2912 1.8958 3.5146 1.3473 4.9409-0.72521 1.886-1.6366 1.9529-3.3416 0.2455zm-3.8994-9.2116c-2.046-1.3965-1.8228-5.0531 0.36785-6.0269 0.84461-0.37546 2.1886 0.78612 2.9866 2.5813 1.5301 3.442-0.42204 5.4472-3.3544 3.4456zm-3.1741-9.3386c-0.59851-1.3464-0.35382-2.7744 0.54377-3.1734s2.1217 0.37611 2.7202 1.7225 0.35382 2.7744-0.54377 3.1734-2.1217-0.37612-2.7202-1.7225zm650.68-237.78c-2.6416-5.9424-3.2583-5.4104-1.9472 1.68 0.54522 2.9484 1.5942 4.6661 2.5815 4.2272 0.91469-0.40662 0.62926-3.0649-0.63427-5.9072zm6.1413 0.03879c-1.3995-6.509-17.343-37.732-18.912-37.034-1.0058 0.44712 1.9814 8.353 7.9034 20.918 8.6375 18.326 12.791 24.406 11.008 16.117zm20.754-36.263c-8.721-19.618-11.703-25.07-13.044-23.848-2.3372 2.1282 11.755 36.565 15.779 38.557 1.6467 0.81536 3.2786 3.6552 3.9314 6.8413 0.70556 3.4436 1.7641 5.1592 2.8778 4.6642 1.1855-0.527-1.9356-9.1003-9.5436-26.215zm7.0716-6.0753c-9.592-21.577-12.786-27.521-14.132-26.294-1.2771 1.1646 1.3514 8.8557 9.906 28.985 10.051 23.65 11.985 27.249 14.132 26.294 2.1315-0.94752 0.71409-5.0949-9.906-28.985zm-323.02 166.72c-3.5677-6.6802-3.6199-6.7002-10.744-4.1314l-7.159 2.5814 3.3063 7.4377 3.3063 7.4377 7.4377-3.3063 7.4377-3.3063-3.5851-6.7128zm88.622-34.51c4.8837-2.3138 13.45-6.2902 19.037-8.8364l10.157-4.6295-3.5498-7.9852c-4.0136-9.0288-6.9972-9.9538-12.426-3.8526-2.0781 2.3354-3.0068 5.7776-2.3608 8.751 0.58565 2.6958 0.46303 5.2789-0.27248 5.7402-5.765 3.616-7.0028 3.5223-9.8627-0.74615-2.7225-4.0633-3.5349-4.228-8.0763-1.6373-2.7771 1.5843-5.3655 2.1694-5.7519 1.3002s-1.992-1.5134-3.5681-1.4315c-2.3736 0.12329-2.0244 2.0294 2.0336 11.102 2.6945 6.0244 5.0931 9.9361 5.3301 8.6927s4.4266-4.1539 9.3104-6.4677zm-465.01 199.88c-4.8974-7.1138-14.314-28.114-16.2-36.129l-1.6325-6.9359-3.6163 6.1197c-9.5894 16.228-4.603 30.207 13.914 39.005 9.8993 4.7037 11.829 4.1763 7.5357-2.0596zm20.211-4.5871c-0.39902-0.89759-1.8271-1.1423-3.1734-0.54375s-2.1215 1.8226-1.7225 2.7202 1.827 1.1423 3.1734 0.54377 2.1215-1.8226 1.7225-2.7202zm371.64-173.02c0.49336-3.6248-3.1899-4.8927-4.7952-1.6507-0.793 1.6015-0.74988 3.384 0.09582 3.9613 2.0468 1.397 4.3489 0.26518 4.6994-2.3105zm79.82-39.29c-0.3251-1.9826-1.9953-4.0001-3.7115-4.4833-2.5751-0.72495-2.6537 0.17149-0.44967 5.1296 2.7412 6.1664 5.2152 5.7821 4.1612-0.64627zm195.89-98.91c-3.8692-8.7038-7.1941-14.392-8.1612-13.962s1.0281 6.7094 4.8973 15.413 7.1941 14.392 8.1612 13.962-1.0281-6.7094-4.8973-15.413zm7.0056-6.2239c-5.0841-11.437-6.3804-13.296-8.0853-11.593-1.597 1.5948-0.6344 5.1678 4.5101 16.741 5.7315 12.893 6.7315 14.327 8.0853 11.593 1.1474-2.3172-0.01297-6.6242-4.5101-16.741zm7.8084-4.4181c-6.0614-13.635-7.4645-15.784-9.1847-14.066-1.6148 1.6126-0.56622 5.3213 5.1239 18.121 6.0614 13.635 7.4645 15.784 9.1847 14.066 1.6148-1.6126 0.56622-5.3213-5.1239-18.121zm-299.65 141.5c-1.4202-3.1947-4.4798-1.5104-3.6614 2.0156 0.49942 2.1519 1.4193 2.7087 2.6374 1.5964 1.0287-0.93943 1.4896-2.5648 1.0241-3.612zm9.6232-2.5338c-0.37546-0.84459-1.6188-1.6631-2.763-1.8188s-1.5714 0.86177-0.94932 2.2611 1.8654 2.2178 2.763 1.8188 1.3248-1.4165 0.94932-2.2611zm15.594-8.8867c-0.37546-0.84462-1.6188-1.6631-2.763-1.8188s-1.5714 0.86178-0.94931 2.2611 1.8654 2.2178 2.763 1.8188 1.3248-1.4165 0.94931-2.2611zm52.45-23.405c0.58627-0.27529-1.1355-5.5804-3.8262-11.789-4.6436-10.715-5.1125-11.237-9.2306-10.275-2.3862 0.55724-4.552 1.5685-4.8131 2.2473s1.9576 6.7053 4.9302 13.392c5.2509 11.812 5.4968 12.084 8.6392 9.5418 1.779-1.439 3.7142-2.8416 4.3004-3.1169zm11.727-19.084c-4.2991-9.671-5.8726-11.885-7.8285-11.016-1.8694 0.83105-1.4679 3.6061 1.6992 11.743 4.6319 11.9 7.2027 15.31 9.773 12.963 1.181-1.0784 0.01477-5.4603-3.6436-13.69zm-480.16 216.05c-1.1088-1.3883-0.87331 0.04618 0.52323 3.1877s2.3037 4.2774 2.0159 2.5242-1.4304-4.3236-2.5392-5.7119zm468.02-219.17c-4.2672-9.5992-8.483-17.163-9.655-17.323-1.339-0.18224 0.77873 6.1484 5.9427 17.765 4.865 10.944 8.6654 17.762 9.655 17.323 0.98377-0.43733-1.3766-7.4932-5.9427-17.765zm-92.157 56.488c-0.59851-1.3464-2.1898-1.9583-3.5362-1.3598s-1.9583 2.1898-1.3598 3.5362 2.1898 1.9583 3.5362 1.3598 1.9583-2.1898 1.3598-3.5362zm255.68-119.52c-0.11412-0.25672-1.497-0.39979-3.073-0.31794-1.728 0.08976-2.4516 1.0799-1.8229 2.4944s1.8487 1.5406 3.0731 0.31795c1.1167-1.1152 1.937-2.2376 1.8228-2.4944zm9.6031-7.6892c-0.95149-0.92073-0.91384 0.16193 0.08369 2.4059s1.776 2.9973 1.73 1.674-0.86219-3.1592-1.8137-4.0799zm7.5803-2.0192c-1.0683-2.4032-3.3345-2.2629-4.3072 0.2667-0.81716 2.1251 3.0746 5.4224 4.293 3.6374 0.58276-0.85381 0.58915-2.6106 0.01418-3.904zm11.061-5.8943c-0.77447-1.7422-2.1425-2.8412-3.0401-2.4422s-0.79656 2.6048 0.22451 4.9017c1.0529 2.3686 2.3688 3.4257 3.0401 2.4422 0.65098-0.95376 0.54995-3.1595-0.22453-4.9017zm-7.66 2.0954c-0.78336-0.30122-0.74058 0.83413 0.09503 2.523 0.92345 1.8664 1.4821 2.0812 1.4243 0.5477-0.05227-1.3877-0.73595-2.7695-1.5193-3.0707zm-26.557 10.185c14.023-8.0276 14.222-8.1609 14.951-10.059 0.34681-0.90194-3.8982 0.37332-9.4332 2.8339-12.554 5.5807-14.797 2.9451-5.7968-6.8114 3.4457-3.7351 17.791-20.433 31.878-37.106s31.669-37.466 39.071-46.205l13.458-15.891 16.485-6.8819c15.863-6.6222 16.676-7.1868 21.536-14.962l5.0505-8.0799-5.249 1.0386c-2.8869 0.57123-8.0955 1.5599-11.575 2.1972s-12.429 3.3906-19.888 6.1187c-13.38 4.8935-13.58 5.0423-14.918 11.074-0.7461 3.3627-4.0176 8.7307-7.2701 11.929-10.465 10.29-76.373 74.568-89.777 87.556-7.1376 6.9161-17.083 16.595-22.1 21.509-8.5442 8.3677-17.727 25.193-15.942 29.209 0.75117 1.6898 41.159-16.959 59.518-27.469zm-251.57 109.94c-1.7436-0.86335-3.3568-1.0842-3.5849-0.49087-0.62864 1.6349 3.0472 3.7088 5.0196 2.8321 1.0822-0.48106 0.54207-1.3624-1.4346-2.3412zm75.078-33.443c-0.17597-0.39582-1.0543-0.39321-1.9519 0.00581s-1.2862 1.5032-0.86369 2.4538 1.3009 0.94795 1.9519-0.0058 1.0396-2.0579 0.86369-2.4538zm113.95-52.573c1.4455-3.3735 2.3191-6.829 1.9412-7.679-1.8554-4.1739 18.901-25.807 92.16-96.052 4.1453-3.9748 8.7368-8.4849 10.203-10.022s9.1178-9.0307 17.003-16.652c9.7174-9.3917 14.111-14.829 13.635-16.877-0.95699-4.1166-1.2093-3.91-37.691 30.852-43.858 41.79-76.63 72.639-88.254 83.073-11.214 10.066-17.571 18.946-22.549 31.496-4.5013 11.348-3.1958 14.272 4.7871 10.724 4.3104-1.9161 6.9187-4.5532 8.7648-8.8615zm-376.45 165.54c-0.90573-2.0375-3.4268-1.4845-13.356 2.9295-7.1637 3.1845-12.544 4.7565-12.974 3.7905-0.48775-1.0972 28.054-14.276 85.135-39.311 67.833-29.751 85.678-38.089 84.961-39.701-0.71435-1.6059-19.131 6.0615-86.586 36.047-56.031 24.908-85.93 37.523-86.404 36.455-0.41916-0.94291 4.4424-3.9293 11.514-7.073l12.24-5.441-5.023-11.3-5.0231-11.3-13.296 5.2732-13.296 5.2732 8.4325 18.959 8.4325 18.959 13.18-5.5251c10.887-4.564 12.985-5.962 12.063-8.0366zm30.997-13.808c-0.89871-2.0217-3.5518-1.4005-14.162 3.316-10.008 4.4489-12.822 6.3291-12.055 8.0542 0.75808 1.7053 4.1886 0.90203 14.162-3.316 10.8-4.5679 12.963-6.0128 12.055-8.0542zm30.406-14.053c-0.17219-1.7342-3.4357-0.91578-12.608 3.1617-10.069 4.476-12.167 5.9711-11.256 8.0209 0.92536 2.0816 3.1164 1.5322 12.608-3.1617 7.4109-3.6649 11.406-6.5116 11.256-8.021zm31.591-13.555c-0.88196-1.984-3.7175-1.2791-14.96 3.7186s-13.665 6.6305-12.784 8.6145 3.7175 1.2792 14.96-3.7185 13.665-6.6305 12.784-8.6145zm29.375-13.058c-0.86365-1.9428-3.4455-1.4-12.512 2.6303s-11.199 5.5834-10.336 7.5263 3.4455 1.4 12.512-2.6303 11.199-5.5834 10.336-7.5263zm24.48-10.882c-0.8354-1.8792-3.1735-1.521-10.064 1.5421s-8.723 4.5588-7.8876 6.438 3.1735 1.521 10.064-1.5421 8.723-4.5588 7.8876-6.438zm312.61-137.37c-1.3877 0.05227-2.7695 0.73596-3.0707 1.5193s0.83413 0.74058 2.523-0.09503c1.8664-0.92344 2.0812-1.4821 0.5477-1.4243zm-261.64 114.49c0.30643-0.79691-1.2554-2.617-3.4708-4.0447-3.5771-2.3052-3.8436-2.9679-2.3814-5.921 1.375-2.7768 2.0704-3.0509 4.2169-1.6618 1.4137 0.91489 2.8337 3.0855 3.1555 4.8236 0.78764 4.2537 3.358 2.8619 3.7148-2.0115 0.67363-9.1991-6.8874-16.766-8.6758-8.6829-0.72023 3.2553-1.4586 3.7952-3.9212 2.8673-2.4799-0.93441-2.9201-1.9512-2.4106-5.568 0.6015-4.2699 0.42772-4.2969-4.9636-0.77097-7.6928 5.031-8.9525 8.4881-5.7324 15.732 2.118 4.7646 4.111 6.5519 8.564 7.6805 5.712 1.4477 10.811 0.40152 11.904-2.4424zm-19.235-6.8609c-1.33-2.9919-0.9433-4.4668 1.4503-5.5309s3.7476-0.36296 5.0776 2.629 0.9433 4.4668-1.4503 5.5309-3.7476 0.36295-5.0776-2.629zm82.247-26.021c-0.75531-1.6991-0.78387-3.2472-0.06343-3.4402 4.1521-1.1121 4.9896-3.0648 3.1192-7.2724-2.134-4.8006-5.3328-5.6564-11.273-3.0158-2.7363 1.2164-2.5853 2.618 1.1996 11.132 3.5509 7.9878 4.6954 9.3758 6.3604 7.713 1.1167-1.1152 1.4124-3.4178 0.65703-5.1169zm229.62-103.4c3.7212-4.4081 6.8208-8.9334 10.499-15.328l2.6251-4.564-12.889-0.04441-12.889-0.04441-16.6 19.971c-9.13 10.984-17.291 20.278-18.135 20.653s-1.6719 1.6892-1.8394 2.9197c-0.43332 3.1837 45.012-18.568 49.228-23.562zm-128.43 51.065c4.1184-10.882 7.2957-14.967 23.465-30.169 6.7921-6.386 20.409-19.201 30.26-28.477s19.488-18.04 21.416-19.475c3.4364-2.5571 3.3701-2.8604-3.3386-15.28-3.7645-6.9692-7.6466-12.957-8.6268-13.307-2.1262-0.75873-39.091 18.68-51.908 27.296-14.344 9.643-37.155 27.865-41.19 32.905l-3.6965 4.6158 11.468 25.798c6.3074 14.189 12.175 26.07 13.04 26.402 3.3099 1.2727 5.792-1.5349 9.1119-10.307zm-63.681 27.659c1.8119-4.7119-0.30756-6.8207-4.1631-4.1421-1.9612 1.3625-5.486 2.3367-7.8327 2.1649-3.6218-0.26523-4.0656 0.14029-2.9355 2.6825 2.7216 6.1224 12.483 5.6613 14.931-0.70534zm-277.87 108.28-4.9678-11.175-13.296 5.2732-13.296 5.2732 5.441 12.24 5.441 12.24 12.823-6.3378 12.823-6.3377-4.9678-11.175zm31.007-13.784-5.0783-11.424-12.24 5.441-12.24 5.441 5.0783 11.424 5.0783 11.424 12.24-5.441 12.24-5.441-5.0783-11.424zm31.061-13.664-5.025-11.304-14.11 5.6403-14.11 5.6403 5.2635 11.83 5.2635 11.83 13.872-6.1665 13.872-6.1665-5.025-11.304zm29.382-13.044-5.0188-11.29-11.668 4.538-11.668 4.538 5.2634 11.83 5.2633 11.83 11.424-5.0783 11.424-5.0783-5.0188-11.29zm29.098-0.87993c-0.71722-2.3052-4.5457-11.023-7.1809-16.353l-2.575-5.2074-8.9758 3.9901-8.9758 3.9901 5.0783 11.424 5.0783 11.424 8.9758-3.9901c4.9367-2.1945 8.7955-4.5696 8.5752-5.2778zm76.578-42.777c-1.7874-4.0265-2.4929-4.1832-7.5871-1.6854-4.9838 2.4437-5.3952 3.2516-3.6524 7.172 1.7773 3.9981 2.4987 4.1584 7.5871 1.6854 5-2.43 5.4047-3.2248 3.6524-7.172zm76.471-34.449c2.0788-7.3842-6.4806-11.443-13.139-6.2306-6.7465 5.2816 0.59782 14.643 8.672 11.054 1.9545-0.86887 3.9646-3.0394 4.4669-4.8235zm230.15-115.57c2.3605-3.1536 6.8989-9.7614 10.085-14.684s7.9746-11.463 10.64-14.535 4.5995-6.1406 4.2975-6.82c-1.0077-2.2668-20.179 4.8439-24.83 9.2098-4.3139 4.049-40.381 46.648-41.161 48.616-0.66807 1.6852 2.0227 2.0186 13.344 1.6532l11.022-0.35572 6.1553-8.675c3.3854-4.7712 8.0866-11.255 10.447-14.409zm-202.43 90.647c1.135-0.61213 1.2833-1.6456 0.32958-2.2966-2.1144-1.4432-27.362 9.532-27.704 12.043-0.134 0.98459 0.17013 1.9488 0.67586 2.1426 0.77147 0.29572 19.898-8.2215 26.699-11.889zm-363.83 150.79c-1.7716-1.774 3.5582-4.5134 42.21-21.696l44.238-19.665-11.97-26.928-11.97-26.928-44.691 19.867-44.691 19.867 2.8915 8.9756c1.5903 4.9366 6.4195 16.202 10.732 25.035s8.8025 18.05 9.9789 20.483 2.8503 4.1078 3.7197 3.7213 0.66832-1.6164-0.44683-2.7331zm29.684-11.599c-1.3876 0.05227-2.7694 0.73594-3.0707 1.5193s0.83415 0.74058 2.523-0.09503c1.8664-0.92345 2.0811-1.4821 0.54768-1.4243zm16.32-7.2547c-1.3876 0.05228-2.7694 0.73596-3.0707 1.5193s0.83413 0.74058 2.523-0.09503c1.8664-0.92345 2.0812-1.4821 0.54768-1.4243zm22.848-10.157c-1.3876 0.05227-2.7694 0.73595-3.0707 1.5193s0.83413 0.74058 2.523-0.09505c1.8663-0.92343 2.0811-1.482 0.54768-1.4243zm6.5279-2.9019c-1.3876 0.05228-2.7694 0.73596-3.0707 1.5193s0.83413 0.74059 2.523-0.09503c1.8664-0.92344 2.0811-1.482 0.54768-1.4243zm47.444-21.05c-1.3232 0.04603-3.1592 0.86219-4.0799 1.8137s0.16193 0.91383 2.4059-0.08369 2.9973-1.776 1.674-1.73zm53.738-23.929c-1.3876 0.05227-2.7694 0.73595-3.0707 1.5193s0.83413 0.7406 2.523-0.09503c1.8664-0.92345 2.0812-1.4821 0.54768-1.4243zm35.903-15.96c-1.3876 0.05228-2.7695 0.73596-3.0707 1.5193s0.83415 0.74059 2.523-0.09505c1.8664-0.92342 2.0811-1.482 0.54768-1.4243zm83.231-36.999c-1.3876 0.05227-2.7694 0.73595-3.0707 1.5193s0.83413 0.7406 2.523-0.09503c1.8664-0.92345 2.0811-1.4821 0.54768-1.4243zm-128.4 20.732-12.215-26.27-45.48 19.698-45.48 19.698 12.162 27.362 12.162 27.362 45.533-20.789 45.533-20.789-12.215-26.27zm94.798-29.554-7.5012-16.875-8.0612-19.832c-19.994 8.0573-36.695 14.789-56.591 23.518l-30.64 13.62 8.9632 23.068c4.9298 12.687 10.34 25.014 12.022 27.393l3.0591 4.325 43.125-19.171 43.125-19.171-7.5012-16.875zm86.395-49.078c-6.425-14.129-12.423-25.974-13.33-26.323-3.0303-1.1657-87.287 35.482-86.36 37.567 25.096 52.334 3.4825 6.3734 25.355 52.337l86.016-37.892-11.682-25.689zm135.58-45.138c-0.62207-1.3994-1.6723-1.7512-2.3339-0.7819s-0.4765 2.2582 0.41136 2.8642c2.4052 1.6417 3.1969 0.78431 1.9226-2.0823zm-115.21 46.728c0.29022-4.9174 2.2246-7.2823 13.645-16.682 7.3188-6.0237 17.859-14.067 23.422-17.875l10.115-6.9224-28.893-64.997-28.893-64.997-15.08 6.7464c-11.376 5.0895-16.445 8.283-20.638 13.002-3.9408 4.4355-13.286 26.635-32.114 76.287l-26.555 70.031 36.967-15.908 36.967-15.908 6.0465 13.602c3.3256 7.481 8.525 17.906 11.554 23.167 5.007 8.6957 5.8536 9.4114 9.3133 7.8734 2.5347-1.1268 3.9184-3.605 4.1437-7.4214zm124.68-51.801c-0.39901-0.89759-1.827-1.1423-3.1734-0.54377s-2.1215 1.8226-1.7225 2.7202 1.827 1.1423 3.1734 0.54377 2.1215-1.8226 1.7225-2.7202zm8.6608-6.8971c-0.17595-0.39581-1.0543-0.3932-1.9519 0.00581s-1.2862 1.5032-0.86367 2.4538 1.3009 0.94794 1.9519-0.0058 1.0396-2.058 0.86367-2.4538zm-9.7469 2.3127c2.6351-0.45883 4.2468-1.4955 3.8194-2.4568-0.41247-0.92786-4.7074 0.10089-9.7151 2.327-4.9367 2.1946-8.6733 4.6706-8.3036 5.5024 0.97029 2.1827 6.7206 0.68676 8.2986-2.1589 0.7381-1.3309 3.3934-2.7771 5.9007-3.2137zm-45.544-2.2778c9.812-4.6891 10.086-4.9921 8.1852-9.0685-1.0813-2.3196-7.2065-11.562-13.612-20.54l-11.645-16.322-15.434 6.861-15.434 6.861 9.2996 22.153c5.1148 12.184 10.008 22.862 10.873 23.729 1.1242 1.1258 3.8653 0.09076 9.5948-3.6229 4.4115-2.8594 12.589-7.3819 18.172-10.05zm-159.58-17.908c15.062-39.562 29.071-74.075 31.131-76.695 2.3856-3.0329 10.099-8.0381 21.237-13.781 15.87-8.1826 16.716-8.8218 9.1253-6.9009-13.039 3.2999-34.006 16.452-36.28 22.757-0.24073 0.66755-3.8243 8.4341-7.9635 17.259s-7.694 16.656-7.8996 17.403-2.6556 6.117-5.4445 11.934-8.3118 17.851-12.273 26.743c-19.872 44.605-21.77 48.774-26.27 57.72-2.0366 4.0484-3.413 8.0128-3.0586 8.8099 0.51 1.1472 9.1263 6.8949 10.08 6.7238 0.12741-0.02286 12.555-32.411 27.617-71.973zm137.65-37.101c-2.2253-4.982-7.5486-13.354-19.62-30.856-2.8372-4.1136-8.7-13.381-13.029-20.594-11.961-19.932-10.819-19.236-25.099-15.293l-8.056 2.2248 18.582 41.801 18.582 41.801 15.504-6.892 15.504-6.892-2.3672-5.2997z"/>
</svg>
