<?xml version="1.0" encoding="UTF-8"?>
<svg viewBox="0 0 640 480" xmlns="http://www.w3.org/2000/svg">
 <path d="m299.15 419.75c0.86676-0.63385 0.85623-0.9447-0.20535-6.0678-0.61539-2.9698-0.92282-5.5947-0.68314-5.8329 0.23968-0.23828 1.8462-0.50494 3.57-0.59253 2.7037-0.13739 3.1554-0.30695 3.288-1.2347 0.084625-0.59155-1.1495-4.4294-2.7424-8.5285l-2.8963-7.453-8e-3 -8.4485c-0.004395-4.6467-0.20178-8.754-0.43863-9.1274-1.7873-2.8176-20.303-2.8193-22.09-0.002014-0.23755 0.37451-0.46039 3.2666-0.49524 6.4269-0.12994 11.787-0.67065 15.71-3.0228 21.934-1.1932 3.1572-2.0433 6.0692-1.8891 6.471 0.2117 0.55176 0.95996 0.66046 3.0562 0.44409 4.3237-0.44623 4.3863-0.30792 2.8059 6.2034-0.75119 3.095-1.2478 5.8182-1.1035 6.0517 0.46075 0.74548 21.813 0.51794 22.854-0.24353zm89.901 0.1721c0.16858-0.27277-0.19769-2.6172-0.81387-5.21-0.61621-2.5927-0.9827-5.0728-0.81442-5.5114 0.22586-0.58862 1.103-0.79724 3.352-0.79724 4.9489 0 4.9216 0.29602 0.97314-10.566l-2.4167-6.6482 0.0278-8.1841c0.015808-4.6614-0.19153-8.4034-0.48169-8.6935-0.77716-0.77716-4.5987-1.3805-8.9514-1.4132-4.0938-0.030762-11.476 1.3761-12.137 2.313-0.21109 0.29913-0.38739 3.7048-0.39178 7.5682l-8e-3 7.0244-3.9178 8.43c-2.1548 4.6365-3.9178 8.7961-3.9178 9.2438 0 1.1251 1.1092 1.4479 4.9744 1.4479 1.827 0 3.437 0.1864 3.5778 0.41418 0.14078 0.22778-0.35022 2.4359-1.0911 4.9069-0.74091 2.4711-1.2022 4.8704-1.0251 5.3319 0.28186 0.73456 1.72 0.83911 11.538 0.83911 6.5153 0 11.345-0.20782 11.523-0.49591zm-52.536-28.633c0.012573-10.554 0.18143-24.503 0.37524-30.996 0.25815-8.6492 0.19223-11.905-0.24652-12.176-0.35608-0.22009-0.78369 0.11914-1.0546 0.83661-0.89276 2.3644-2.68 14.328-2.6776 17.922 0.002838 4.2558 1.9228 27.638 2.4148 29.41 0.2038 0.73383-0.03183 1.881-0.60495 2.9452-0.8529 1.5837-0.87985 2.1644-0.29471 6.3473 0.35425 2.5322 0.76239 4.7955 0.90698 5.0294 0.931 1.5064 1.161-2.2551 1.1813-19.318zm-6.026 7.9022c2.2953-0.31458 2.4232-0.41827 2.4164-1.9589-0.012115-2.762-0.55383-3.8886-2.1347-4.4397-1.8606-0.64862-1.9444-1.8439-0.20886-2.9811 1.624-1.0642 1.6606-2.2789 0.44382-14.745-0.88156-9.0322-0.88104-9.0578 0.30655-15.671 1.4193-7.9034 3.4375-15.553 4.555-17.265 0.80792-1.2377 0.80875-1.2377 1.8516-0.19482 1.1011 1.1011 5.8962 16.304 6.4667 20.503 0.17593 1.2949-0.10077 7.0541-0.61493 12.798-1.364 15.238-1.5024 13.999 1.6174 14.48 3.5894 0.55334 6.2663 0.035339 8.1923-1.5852l1.6264-1.3685-0.3179-8.8993c-0.42725-11.961-2.1936-23.535-4.8648-31.877l-1.336-4.172 0.3851-72.978 0.3851-72.978-1.4144-2.8909c-1.6986-3.4719-3.2228-4.7614-6.8868-5.8266-2.1953-0.63818-3.2005-0.68399-4.9098-0.22376-2.7561 0.74216-6.1476 3.8092-7.3728 6.6674-1.1277 2.6309-2.3888 3.336-3.427 1.9163-2.1194-2.8984 2.6152-10.264 8.2963-12.907 3.666-1.7054 6.4966-2.001 10.714-1.1186 2.3073 0.48276 3.598 0.55081 3.8141 0.20114 0.79935-1.2934-2.6158-17.526-5.7347-27.257-2.7982-8.7308-4.4507-8.835-8.5914-0.5419-4.4049 8.8222-7.9574 19.474-9.8872 29.645-1.9693 10.379-2.1379 17.01-2.7568 108.39-0.36285 53.582 0.039185 47.305-3.6931 57.659-1.5584 4.3231-3.0751 12.019-3.5643 18.084-0.19693 2.4421-0.68854 4.9608-1.0924 5.597-0.88296 1.3911-1.0333 11.674-0.19357 13.243 0.44205 0.82599 1.1108 1.0104 3.6642 1.0104 2.7969 0 3.3176 0.17786 4.9794 1.7008l1.8559 1.7007-0.8754 3.8489c-0.73166 3.2168-0.75888 3.9227-0.16583 4.2985 0.841 0.5329 5.0716 0.59955 8.4722 0.13342zm13.808-2.0185c0.17267-1.7616-0.99509-3.7441-1.8824-3.1957-0.72931 0.45074-1.3713 3.7116-0.88553 4.4976 0.19925 0.32233 0.86899 0.51392 1.4883 0.42566 0.82364-0.11737 1.1673-0.5813 1.2796-1.7276zm25.128-24.524c0.80396-0.41577 3.9069-1.3262 6.8954-2.0231 9.3139-2.1722 21.323-4.9131 28.94-6.6055 4.0222-0.89356 8.5204-1.9672 9.9959-2.3858l2.6827-0.761-0.1267-9.0136c-0.088745-6.3142-0.35556-9.6498-0.89093-11.138-0.83221-2.3131-9.0785-12.92-14.59-18.766-9.3918-9.9625-17.538-22.209-23.369-35.134-4.596-10.186-10.378-27.41-13.108-39.047-0.60657-2.5857-1.4495-6.1117-1.873-7.8355-0.42358-1.7238-1.4846-6.5427-2.3578-10.709-1.9956-9.5208-2.5229-11.492-3.074-11.492-0.86908 0-1.0727 9.4381-1.4089 65.296l-0.3411 56.677 1.8564 4.9622c2.6081 6.9714 3.9948 12.732 5.0254 20.878 0.84509 6.6793 0.95471 7.0531 2.1678 7.3917 1.9016 0.5307 1.9924 0.52325 3.5749-0.2951zm-59.106-0.4194c0.28494-0.35913 0.68323-2.7686 0.88507-5.3543 0.48669-6.2349 2.4563-15.167 4.7289-21.445 1.0139-2.801 1.9364-6.4088 2.0499-8.0173 0.11356-1.6085 0.38379-28.253 0.60056-59.21 0.28458-40.637 0.23526-56.285-0.17728-56.285-0.69479 0-0.6268-0.22321-3.2227 10.581-5.7302 23.849-12.594 43.202-20.206 56.974-4.6124 8.3452-12.673 20.162-16.097 23.598-1.7176 1.7238-4.29 4.6621-5.7165 6.5296-2.8285 3.703-11.931 14.121-14.12 16.16-2.5075 2.3364-3.4906 7.1578-3.325 16.307l0.1443 7.9722 10.447 2.4883c5.7461 1.3686 11.096 2.4951 11.889 2.5032 0.79279 0.008179 4.3188 0.70569 7.8355 1.55 3.5167 0.84436 9.2149 2.1596 12.662 2.9228 3.4476 0.76318 6.9736 1.8159 7.8355 2.3393 1.8824 1.1432 3.087 1.2658 3.7856 0.38532zm-26.252-70.204c4.4732-6.3989 11.786-19.6 13.992-25.259l1.3238-3.3954 0.6167-67.124c0.61536-66.972 0.57318-71.432-0.77792-82.273-0.39383-3.1603-1.1188-8.995-1.611-12.966-1.3223-10.667-3.1891-12.128-6.0633-4.7458-2.9359 7.5405-8.6796 24.12-9.4839 27.376-1.0985 4.4468-1.2617 12.804-1.6825 86.191-0.18698 32.609-0.39358 64.813-0.45914 71.564-0.065552 6.7516-0.009979 12.926 0.12344 13.721 0.30908 1.8407 0.88599 1.3977 4.0218-3.0882zm106-18.207c0.49118-24.158 1.0988-105.58 0.95904-128.5-0.12241-20.071-0.21036-21.86-1.3994-28.469-0.69784-3.8786-1.6476-9.5202-2.1104-12.537-1.2307-8.021-1.2908-8.2406-2.7187-9.9375-1.6255-1.9318-2.4285-1.9608-3.273-0.1181-2.0183 4.4038-7.3637 19.763-8.0452 23.117-0.88812 4.3706-1.6516 34.749-2.1989 87.495-0.35477 34.184 0.008331 42.553 2.1416 49.364 2.6655 8.5104 6.6412 18.59 9.9659 25.268 3.725 7.4812 5.3416 10.024 5.9641 9.3795 0.22968-0.23761 0.55139-7.0138 0.71497-15.058zm-78.852-48.035c0.72211-2.7794 1.7687-7.2124 2.3257-9.8512 3.8242-18.117 4.7798-23.185 5.2874-28.043 0.79257-7.5846 2.411-17.081 3.917-22.984 1.1519-4.5148 1.9719-6.8944 5.4005-15.671 1.9137-4.8988 6.0036-12.121 7.4892-13.225 1.918-1.4254 4.2851-1.3478 5.9265 0.19418 6.6554 6.2525 12.782 25.328 17.439 54.298 0.6235 3.8786 1.5059 8.3448 1.9609 9.925 0.81885 2.8437 0.83206 2.857 1.293 1.3059 0.25738-0.86612 0.51685-27.503 0.58005-59.55 0.10498-53.23 0.038208-58.497-0.81424-64.251-2.9386-19.837-8.856-39.18-16.669-54.486-3.2293-6.3266-4.0809-8.4659-4.0809-10.252 0-2.7709-0.51892-5.5213-1.0418-5.5213-0.21384 0-0.98169 1.3516-1.7063 3.0036-0.72464 1.652-2.5302 4.503-4.0122 6.3357-10.689 13.217-19.665 33.259-22.993 51.343-2.2509 12.229-2.6888 19.668-2.8854 49.015-0.10297 15.371-0.35245 46.999-0.55444 70.284-0.20196 23.286-0.19208 43.135 0.021973 44.11l0.3892 1.772 0.707-1.3494c0.38882-0.74216 1.2978-3.6234 2.02-6.4027z" stroke-width="0"/>
</svg>
